<?xml version="1.0" encoding="UTF-8" standalone="no"?><svg xmlns="http://www.w3.org/2000/svg" xmlns:xlink="http://www.w3.org/1999/xlink" contentScriptType="application/ecmascript" contentStyleType="text/css" height="1414.5833px" preserveAspectRatio="none" style="width:2019px;height:1414px;background:#00000000;" version="1.1" viewBox="0 0 2019 1414" width="2019.7917px" zoomAndPan="magnify"><defs/><g><rect height="45.0846" rx="4.1667" ry="4.1667" style="stroke:#BABDBF;stroke-width:1.0416666666666667;fill:none;" width="334.375" x="838.5417" y="14.5833"/><text fill="#2FA4E7" font-family="Calibri" font-size="20.8333" lengthAdjust="spacingAndGlyphs" textLength="307.2917" x="852.0833" y="44.338">Extension Initialization Sequence</text><rect fill="#DCDCDC" height="1191.4388" rx="4.1667" ry="4.1667" style="stroke:#868E96;stroke-width:1.0416666666666667;" width="1490.1042" x="163.0208" y="217.8385"/><text fill="#343A40" font-family="Calibri" font-size="20.8333" font-weight="bold" lengthAdjust="spacingAndGlyphs" textLength="142.7083" x="836.7188" y="242.3848">Internal Logic</text><rect fill="#E6E6FA" height="1191.4388" rx="4.1667" ry="4.1667" style="stroke:#868E96;stroke-width:1.0416666666666667;" width="231.25" x="1738.5417" y="217.8385"/><text fill="#343A40" font-family="Calibri" font-size="20.8333" font-weight="bold" lengthAdjust="spacingAndGlyphs" textLength="143.75" x="1782.2917" y="242.3848">External Logic</text><rect height="870.9961" style="stroke:#333333;stroke-width:1.0416666666666667;fill:none;" width="10.4167" x="261.4583" y="451.237"/><rect height="9.375" style="stroke:#333333;stroke-width:1.0416666666666667;fill:none;" width="10.4167" x="266.6667" y="1312.8581"/><rect height="147.7539" style="stroke:#333333;stroke-width:1.0416666666666667;fill:none;" width="10.4167" x="758.3333" y="500.4883"/><rect height="300.4232" style="stroke:#333333;stroke-width:1.0416666666666667;fill:none;" width="10.4167" x="1129.1667" y="697.4935"/><rect height="60.7096" style="stroke:#333333;stroke-width:1.0416666666666667;fill:none;" width="10.4167" x="1134.375" y="755.0781"/><rect height="60.7096" style="stroke:#333333;stroke-width:1.0416666666666667;fill:none;" width="10.4167" x="1134.375" y="880.6641"/><rect height="147.7539" style="stroke:#333333;stroke-width:1.0416666666666667;fill:none;" width="10.4167" x="1496.875" y="1047.168"/><rect height="49.2513" style="stroke:#333333;stroke-width:1.0416666666666667;fill:none;" width="10.4167" x="1848.9583" y="549.7396"/><rect height="49.2513" style="stroke:#333333;stroke-width:1.0416666666666667;fill:none;" width="10.4167" x="1848.9583" y="1096.4193"/><line style="stroke:#333333;stroke-width:2.0833333333333335;fill:none;stroke-dasharray:5.0,5.0;" x1="266.1458" x2="266.1458" y1="331.2174" y2="1331.6081"/><line style="stroke:#333333;stroke-width:2.0833333333333335;fill:none;stroke-dasharray:5.0,5.0;" x1="763.5417" x2="763.5417" y1="331.2174" y2="1331.6081"/><line style="stroke:#333333;stroke-width:2.0833333333333335;fill:none;stroke-dasharray:5.0,5.0;" x1="1134.375" x2="1134.375" y1="331.2174" y2="1331.6081"/><line style="stroke:#333333;stroke-width:2.0833333333333335;fill:none;stroke-dasharray:5.0,5.0;" x1="1502.0833" x2="1502.0833" y1="331.2174" y2="1331.6081"/><line style="stroke:#333333;stroke-width:2.0833333333333335;fill:none;stroke-dasharray:5.0,5.0;" x1="1854.1667" x2="1854.1667" y1="331.2174" y2="1331.6081"/><rect height="49.2513" rx="4.1667" ry="4.1667" style="stroke:#2FA4E7;stroke-width:1.5625;fill:none;" width="115.625" x="208.8542" y="280.9245"/><text fill="#2FA4E7" font-family="Calibri" font-size="20.8333" lengthAdjust="spacingAndGlyphs" textLength="90.625" x="221.3542" y="312.7625">Extension</text><rect height="49.2513" rx="4.1667" ry="4.1667" style="stroke:#2FA4E7;stroke-width:1.5625;fill:none;" width="115.625" x="208.8542" y="1330.5664"/><text fill="#2FA4E7" font-family="Calibri" font-size="20.8333" lengthAdjust="spacingAndGlyphs" textLength="90.625" x="221.3542" y="1362.4044">Extension</text><rect height="73.5026" rx="4.1667" ry="4.1667" style="stroke:#2FA4E7;stroke-width:1.5625;fill:none;" width="285.4167" x="620.8333" y="256.6732"/><ellipse cx="640.625" cy="276.4648" fill="#ADD1B2" rx="12.5" ry="12.5" style="stroke:#2FA4E7;stroke-width:1.0416666666666667;"/><path d="M645.4427,279.6224 Q645.4427,280.6152 645.1009,281.429 Q644.7591,282.2266 644.0918,282.7962 Q643.4408,283.3496 642.4805,283.6589 Q641.5365,283.9681 640.3158,283.9681 Q639.2253,283.9681 638.2161,283.7402 Q637.2233,283.5124 636.377,283.0566 L636.377,280.127 Q636.8652,280.3711 637.3535,280.599 Q637.8581,280.8105 638.3626,280.9896 Q638.8835,281.1523 639.388,281.25 Q639.9089,281.3477 640.4297,281.3477 Q640.9342,281.3477 641.3086,281.2337 Q641.6829,281.1198 641.9108,280.9082 Q642.1387,280.6966 642.2363,280.4199 Q642.3503,280.127 642.3503,279.7852 Q642.3503,279.362 642.1712,279.0527 Q641.9922,278.7272 641.6667,278.4505 Q641.3574,278.1576 640.9017,277.8971 Q640.446,277.6367 639.8926,277.3438 Q639.4206,277.0996 638.8346,276.7578 Q638.265,276.3997 637.7441,275.8952 Q637.2396,275.3743 636.8815,274.6582 Q636.5397,273.9258 636.5397,272.9004 Q636.5397,271.9076 636.8652,271.1263 Q637.207,270.3288 637.8092,269.7917 Q638.4277,269.2383 639.2904,268.9616 Q640.1693,268.6686 641.2435,268.6686 Q641.7806,268.6686 642.2852,268.75 Q642.806,268.8151 643.3105,268.9453 Q643.8151,269.0755 644.3197,269.2708 Q644.8405,269.4661 645.3776,269.7103 L644.3522,272.168 Q643.8965,271.9564 643.5059,271.7936 Q643.1152,271.6309 642.7246,271.5169 Q642.3503,271.403 641.9922,271.3542 Q641.6341,271.2891 641.2598,271.2891 Q640.4785,271.2891 640.0553,271.7122 Q639.6322,272.1354 639.6322,272.8353 Q639.6322,273.2096 639.7461,273.5026 Q639.8763,273.7956 640.153,274.056 Q640.446,274.3001 640.8854,274.5768 Q641.3249,274.8372 641.9596,275.1628 Q642.7246,275.5697 643.3594,275.9928 Q644.0104,276.416 644.4661,276.9368 Q644.9219,277.4414 645.1823,278.0924 Q645.4427,278.7435 645.4427,279.6224 Z " fill="#2FA4E7"/><text fill="#2FA4E7" font-family="Calibri" font-size="20.8333" font-style="italic" lengthAdjust="spacingAndGlyphs" textLength="108.3333" x="725" y="288.5111">«Singleton»</text><text fill="#2FA4E7" font-family="Calibri" font-size="20.8333" lengthAdjust="spacingAndGlyphs" textLength="229.1667" x="664.5833" y="312.7625">OutputChannelManager</text><rect height="73.5026" rx="4.1667" ry="4.1667" style="stroke:#2FA4E7;stroke-width:1.5625;fill:none;" width="285.4167" x="620.8333" y="1330.5664"/><ellipse cx="640.625" cy="1350.3581" fill="#ADD1B2" rx="12.5" ry="12.5" style="stroke:#2FA4E7;stroke-width:1.0416666666666667;"/><path d="M645.4427,1353.5156 Q645.4427,1354.5085 645.1009,1355.3223 Q644.7591,1356.1198 644.0918,1356.6895 Q643.4408,1357.2428 642.4805,1357.5521 Q641.5365,1357.8613 640.3158,1357.8613 Q639.2253,1357.8613 638.2161,1357.6335 Q637.2233,1357.4056 636.377,1356.9499 L636.377,1354.0202 Q636.8652,1354.2643 637.3535,1354.4922 Q637.8581,1354.7038 638.3626,1354.8828 Q638.8835,1355.0456 639.388,1355.1432 Q639.9089,1355.2409 640.4297,1355.2409 Q640.9342,1355.2409 641.3086,1355.127 Q641.6829,1355.013 641.9108,1354.8014 Q642.1387,1354.5898 642.2363,1354.3132 Q642.3503,1354.0202 642.3503,1353.6784 Q642.3503,1353.2552 642.1712,1352.946 Q641.9922,1352.6204 641.6667,1352.3438 Q641.3574,1352.0508 640.9017,1351.7904 Q640.446,1351.5299 639.8926,1351.237 Q639.4206,1350.9928 638.8346,1350.651 Q638.265,1350.293 637.7441,1349.7884 Q637.2396,1349.2676 636.8815,1348.5514 Q636.5397,1347.819 636.5397,1346.7936 Q636.5397,1345.8008 636.8652,1345.0195 Q637.207,1344.222 637.8092,1343.6849 Q638.4277,1343.1315 639.2904,1342.8548 Q640.1693,1342.5618 641.2435,1342.5618 Q641.7806,1342.5618 642.2852,1342.6432 Q642.806,1342.7083 643.3105,1342.8385 Q643.8151,1342.9688 644.3197,1343.1641 Q644.8405,1343.3594 645.3776,1343.6035 L644.3522,1346.0612 Q643.8965,1345.8496 643.5059,1345.6868 Q643.1152,1345.5241 642.7246,1345.4102 Q642.3503,1345.2962 641.9922,1345.2474 Q641.6341,1345.1823 641.2598,1345.1823 Q640.4785,1345.1823 640.0553,1345.6055 Q639.6322,1346.0286 639.6322,1346.7285 Q639.6322,1347.1029 639.7461,1347.3958 Q639.8763,1347.6888 640.153,1347.9492 Q640.446,1348.1934 640.8854,1348.4701 Q641.3249,1348.7305 641.9596,1349.056 Q642.7246,1349.4629 643.3594,1349.8861 Q644.0104,1350.3092 644.4661,1350.8301 Q644.9219,1351.3346 645.1823,1351.9857 Q645.4427,1352.6367 645.4427,1353.5156 Z " fill="#2FA4E7"/><text fill="#2FA4E7" font-family="Calibri" font-size="20.8333" font-style="italic" lengthAdjust="spacingAndGlyphs" textLength="108.3333" x="725" y="1362.4044">«Singleton»</text><text fill="#2FA4E7" font-family="Calibri" font-size="20.8333" lengthAdjust="spacingAndGlyphs" textLength="229.1667" x="664.5833" y="1386.6557">OutputChannelManager</text><rect height="73.5026" rx="4.1667" ry="4.1667" style="stroke:#2FA4E7;stroke-width:1.5625;fill:none;" width="268.75" x="1000" y="256.6732"/><ellipse cx="1019.7917" cy="276.4648" fill="#ADD1B2" rx="12.5" ry="12.5" style="stroke:#2FA4E7;stroke-width:1.0416666666666667;"/><path d="M1024.6094,279.6224 Q1024.6094,280.6152 1024.2676,281.429 Q1023.9258,282.2266 1023.2585,282.7962 Q1022.6074,283.3496 1021.6471,283.6589 Q1020.7031,283.9681 1019.4824,283.9681 Q1018.3919,283.9681 1017.3828,283.7402 Q1016.39,283.5124 1015.5436,283.0566 L1015.5436,280.127 Q1016.0319,280.3711 1016.5202,280.599 Q1017.0247,280.8105 1017.5293,280.9896 Q1018.0501,281.1523 1018.5547,281.25 Q1019.0755,281.3477 1019.5964,281.3477 Q1020.1009,281.3477 1020.4753,281.2337 Q1020.8496,281.1198 1021.0775,280.9082 Q1021.3053,280.6966 1021.403,280.4199 Q1021.5169,280.127 1021.5169,279.7852 Q1021.5169,279.362 1021.3379,279.0527 Q1021.1589,278.7272 1020.8333,278.4505 Q1020.5241,278.1576 1020.0684,277.8971 Q1019.6126,277.6367 1019.0592,277.3438 Q1018.5872,277.0996 1018.0013,276.7578 Q1017.4316,276.3997 1016.9108,275.8952 Q1016.4063,275.3743 1016.0482,274.6582 Q1015.7064,273.9258 1015.7064,272.9004 Q1015.7064,271.9076 1016.0319,271.1263 Q1016.3737,270.3288 1016.9759,269.7917 Q1017.5944,269.2383 1018.457,268.9616 Q1019.3359,268.6686 1020.4102,268.6686 Q1020.9473,268.6686 1021.4518,268.75 Q1021.9727,268.8151 1022.4772,268.9453 Q1022.9818,269.0755 1023.4863,269.2708 Q1024.0072,269.4661 1024.5443,269.7103 L1023.5189,272.168 Q1023.0632,271.9564 1022.6725,271.7936 Q1022.2819,271.6309 1021.8913,271.5169 Q1021.5169,271.403 1021.1589,271.3542 Q1020.8008,271.2891 1020.4264,271.2891 Q1019.6452,271.2891 1019.222,271.7122 Q1018.7988,272.1354 1018.7988,272.8353 Q1018.7988,273.2096 1018.9128,273.5026 Q1019.043,273.7956 1019.3197,274.056 Q1019.6126,274.3001 1020.0521,274.5768 Q1020.4915,274.8372 1021.1263,275.1628 Q1021.8913,275.5697 1022.526,275.9928 Q1023.1771,276.416 1023.6328,276.9368 Q1024.0885,277.4414 1024.349,278.0924 Q1024.6094,278.7435 1024.6094,279.6224 Z " fill="#2FA4E7"/><text fill="#2FA4E7" font-family="Calibri" font-size="20.8333" font-style="italic" lengthAdjust="spacingAndGlyphs" textLength="108.3333" x="1095.8333" y="288.5111">«Singleton»</text><text fill="#2FA4E7" font-family="Calibri" font-size="20.8333" lengthAdjust="spacingAndGlyphs" textLength="212.5" x="1043.75" y="312.7625">ConfigurationManager</text><rect height="73.5026" rx="4.1667" ry="4.1667" style="stroke:#2FA4E7;stroke-width:1.5625;fill:none;" width="268.75" x="1000" y="1330.5664"/><ellipse cx="1019.7917" cy="1350.3581" fill="#ADD1B2" rx="12.5" ry="12.5" style="stroke:#2FA4E7;stroke-width:1.0416666666666667;"/><path d="M1024.6094,1353.5156 Q1024.6094,1354.5085 1024.2676,1355.3223 Q1023.9258,1356.1198 1023.2585,1356.6895 Q1022.6074,1357.2428 1021.6471,1357.5521 Q1020.7031,1357.8613 1019.4824,1357.8613 Q1018.3919,1357.8613 1017.3828,1357.6335 Q1016.39,1357.4056 1015.5436,1356.9499 L1015.5436,1354.0202 Q1016.0319,1354.2643 1016.5202,1354.4922 Q1017.0247,1354.7038 1017.5293,1354.8828 Q1018.0501,1355.0456 1018.5547,1355.1432 Q1019.0755,1355.2409 1019.5964,1355.2409 Q1020.1009,1355.2409 1020.4753,1355.127 Q1020.8496,1355.013 1021.0775,1354.8014 Q1021.3053,1354.5898 1021.403,1354.3132 Q1021.5169,1354.0202 1021.5169,1353.6784 Q1021.5169,1353.2552 1021.3379,1352.946 Q1021.1589,1352.6204 1020.8333,1352.3438 Q1020.5241,1352.0508 1020.0684,1351.7904 Q1019.6126,1351.5299 1019.0592,1351.237 Q1018.5872,1350.9928 1018.0013,1350.651 Q1017.4316,1350.293 1016.9108,1349.7884 Q1016.4063,1349.2676 1016.0482,1348.5514 Q1015.7064,1347.819 1015.7064,1346.7936 Q1015.7064,1345.8008 1016.0319,1345.0195 Q1016.3737,1344.222 1016.9759,1343.6849 Q1017.5944,1343.1315 1018.457,1342.8548 Q1019.3359,1342.5618 1020.4102,1342.5618 Q1020.9473,1342.5618 1021.4518,1342.6432 Q1021.9727,1342.7083 1022.4772,1342.8385 Q1022.9818,1342.9688 1023.4863,1343.1641 Q1024.0072,1343.3594 1024.5443,1343.6035 L1023.5189,1346.0612 Q1023.0632,1345.8496 1022.6725,1345.6868 Q1022.2819,1345.5241 1021.8913,1345.4102 Q1021.5169,1345.2962 1021.1589,1345.2474 Q1020.8008,1345.1823 1020.4264,1345.1823 Q1019.6452,1345.1823 1019.222,1345.6055 Q1018.7988,1346.0286 1018.7988,1346.7285 Q1018.7988,1347.1029 1018.9128,1347.3958 Q1019.043,1347.6888 1019.3197,1347.9492 Q1019.6126,1348.1934 1020.0521,1348.4701 Q1020.4915,1348.7305 1021.1263,1349.056 Q1021.8913,1349.4629 1022.526,1349.8861 Q1023.1771,1350.3092 1023.6328,1350.8301 Q1024.0885,1351.3346 1024.349,1351.9857 Q1024.6094,1352.6367 1024.6094,1353.5156 Z " fill="#2FA4E7"/><text fill="#2FA4E7" font-family="Calibri" font-size="20.8333" font-style="italic" lengthAdjust="spacingAndGlyphs" textLength="108.3333" x="1095.8333" y="1362.4044">«Singleton»</text><text fill="#2FA4E7" font-family="Calibri" font-size="20.8333" lengthAdjust="spacingAndGlyphs" textLength="212.5" x="1043.75" y="1386.6557">ConfigurationManager</text><rect height="73.5026" rx="4.1667" ry="4.1667" style="stroke:#2FA4E7;stroke-width:1.5625;fill:none;" width="210.4167" x="1396.875" y="256.6732"/><ellipse cx="1416.6667" cy="276.4648" fill="#ADD1B2" rx="12.5" ry="12.5" style="stroke:#2FA4E7;stroke-width:1.0416666666666667;"/><path d="M1421.4844,279.6224 Q1421.4844,280.6152 1421.1426,281.429 Q1420.8008,282.2266 1420.1335,282.7962 Q1419.4824,283.3496 1418.5221,283.6589 Q1417.5781,283.9681 1416.3574,283.9681 Q1415.2669,283.9681 1414.2578,283.7402 Q1413.265,283.5124 1412.4186,283.0566 L1412.4186,280.127 Q1412.9069,280.3711 1413.3952,280.599 Q1413.8997,280.8105 1414.4043,280.9896 Q1414.9251,281.1523 1415.4297,281.25 Q1415.9505,281.3477 1416.4714,281.3477 Q1416.9759,281.3477 1417.3503,281.2337 Q1417.7246,281.1198 1417.9525,280.9082 Q1418.1803,280.6966 1418.278,280.4199 Q1418.3919,280.127 1418.3919,279.7852 Q1418.3919,279.362 1418.2129,279.0527 Q1418.0339,278.7272 1417.7083,278.4505 Q1417.3991,278.1576 1416.9434,277.8971 Q1416.4876,277.6367 1415.9342,277.3438 Q1415.4622,277.0996 1414.8763,276.7578 Q1414.3066,276.3997 1413.7858,275.8952 Q1413.2813,275.3743 1412.9232,274.6582 Q1412.5814,273.9258 1412.5814,272.9004 Q1412.5814,271.9076 1412.9069,271.1263 Q1413.2487,270.3288 1413.8509,269.7917 Q1414.4694,269.2383 1415.332,268.9616 Q1416.2109,268.6686 1417.2852,268.6686 Q1417.8223,268.6686 1418.3268,268.75 Q1418.8477,268.8151 1419.3522,268.9453 Q1419.8568,269.0755 1420.3613,269.2708 Q1420.8822,269.4661 1421.4193,269.7103 L1420.3939,272.168 Q1419.9382,271.9564 1419.5475,271.7936 Q1419.1569,271.6309 1418.7663,271.5169 Q1418.3919,271.403 1418.0339,271.3542 Q1417.6758,271.2891 1417.3014,271.2891 Q1416.5202,271.2891 1416.097,271.7122 Q1415.6738,272.1354 1415.6738,272.8353 Q1415.6738,273.2096 1415.7878,273.5026 Q1415.918,273.7956 1416.1947,274.056 Q1416.4876,274.3001 1416.9271,274.5768 Q1417.3665,274.8372 1418.0013,275.1628 Q1418.7663,275.5697 1419.401,275.9928 Q1420.0521,276.416 1420.5078,276.9368 Q1420.9635,277.4414 1421.224,278.0924 Q1421.4844,278.7435 1421.4844,279.6224 Z " fill="#2FA4E7"/><text fill="#2FA4E7" font-family="Calibri" font-size="20.8333" font-style="italic" lengthAdjust="spacingAndGlyphs" textLength="108.3333" x="1463.5417" y="288.5111">«Singleton»</text><text fill="#2FA4E7" font-family="Calibri" font-size="20.8333" lengthAdjust="spacingAndGlyphs" textLength="154.1667" x="1440.625" y="312.7625">FileContentStore</text><rect height="73.5026" rx="4.1667" ry="4.1667" style="stroke:#2FA4E7;stroke-width:1.5625;fill:none;" width="210.4167" x="1396.875" y="1330.5664"/><ellipse cx="1416.6667" cy="1350.3581" fill="#ADD1B2" rx="12.5" ry="12.5" style="stroke:#2FA4E7;stroke-width:1.0416666666666667;"/><path d="M1421.4844,1353.5156 Q1421.4844,1354.5085 1421.1426,1355.3223 Q1420.8008,1356.1198 1420.1335,1356.6895 Q1419.4824,1357.2428 1418.5221,1357.5521 Q1417.5781,1357.8613 1416.3574,1357.8613 Q1415.2669,1357.8613 1414.2578,1357.6335 Q1413.265,1357.4056 1412.4186,1356.9499 L1412.4186,1354.0202 Q1412.9069,1354.2643 1413.3952,1354.4922 Q1413.8997,1354.7038 1414.4043,1354.8828 Q1414.9251,1355.0456 1415.4297,1355.1432 Q1415.9505,1355.2409 1416.4714,1355.2409 Q1416.9759,1355.2409 1417.3503,1355.127 Q1417.7246,1355.013 1417.9525,1354.8014 Q1418.1803,1354.5898 1418.278,1354.3132 Q1418.3919,1354.0202 1418.3919,1353.6784 Q1418.3919,1353.2552 1418.2129,1352.946 Q1418.0339,1352.6204 1417.7083,1352.3438 Q1417.3991,1352.0508 1416.9434,1351.7904 Q1416.4876,1351.5299 1415.9342,1351.237 Q1415.4622,1350.9928 1414.8763,1350.651 Q1414.3066,1350.293 1413.7858,1349.7884 Q1413.2813,1349.2676 1412.9232,1348.5514 Q1412.5814,1347.819 1412.5814,1346.7936 Q1412.5814,1345.8008 1412.9069,1345.0195 Q1413.2487,1344.222 1413.8509,1343.6849 Q1414.4694,1343.1315 1415.332,1342.8548 Q1416.2109,1342.5618 1417.2852,1342.5618 Q1417.8223,1342.5618 1418.3268,1342.6432 Q1418.8477,1342.7083 1419.3522,1342.8385 Q1419.8568,1342.9688 1420.3613,1343.1641 Q1420.8822,1343.3594 1421.4193,1343.6035 L1420.3939,1346.0612 Q1419.9382,1345.8496 1419.5475,1345.6868 Q1419.1569,1345.5241 1418.7663,1345.4102 Q1418.3919,1345.2962 1418.0339,1345.2474 Q1417.6758,1345.1823 1417.3014,1345.1823 Q1416.5202,1345.1823 1416.097,1345.6055 Q1415.6738,1346.0286 1415.6738,1346.7285 Q1415.6738,1347.1029 1415.7878,1347.3958 Q1415.918,1347.6888 1416.1947,1347.9492 Q1416.4876,1348.1934 1416.9271,1348.4701 Q1417.3665,1348.7305 1418.0013,1349.056 Q1418.7663,1349.4629 1419.401,1349.8861 Q1420.0521,1350.3092 1420.5078,1350.8301 Q1420.9635,1351.3346 1421.224,1351.9857 Q1421.4844,1352.6367 1421.4844,1353.5156 Z " fill="#2FA4E7"/><text fill="#2FA4E7" font-family="Calibri" font-size="20.8333" font-style="italic" lengthAdjust="spacingAndGlyphs" textLength="108.3333" x="1463.5417" y="1362.4044">«Singleton»</text><text fill="#2FA4E7" font-family="Calibri" font-size="20.8333" lengthAdjust="spacingAndGlyphs" textLength="154.1667" x="1440.625" y="1386.6557">FileContentStore</text><rect height="49.2513" rx="4.1667" ry="4.1667" style="stroke:#2FA4E7;stroke-width:1.5625;fill:none;" width="139.5833" x="1784.375" y="280.9245"/><text fill="#2FA4E7" font-family="Calibri" font-size="20.8333" lengthAdjust="spacingAndGlyphs" textLength="114.5833" x="1796.875" y="312.7625">VS Code API</text><rect height="49.2513" rx="4.1667" ry="4.1667" style="stroke:#2FA4E7;stroke-width:1.5625;fill:none;" width="139.5833" x="1784.375" y="1330.5664"/><text fill="#2FA4E7" font-family="Calibri" font-size="20.8333" lengthAdjust="spacingAndGlyphs" textLength="114.5833" x="1796.875" y="1362.4044">VS Code API</text><rect height="870.9961" style="stroke:#333333;stroke-width:1.0416666666666667;fill:none;" width="10.4167" x="261.4583" y="451.237"/><rect height="9.375" style="stroke:#333333;stroke-width:1.0416666666666667;fill:none;" width="10.4167" x="266.6667" y="1312.8581"/><rect height="147.7539" style="stroke:#333333;stroke-width:1.0416666666666667;fill:none;" width="10.4167" x="758.3333" y="500.4883"/><rect height="300.4232" style="stroke:#333333;stroke-width:1.0416666666666667;fill:none;" width="10.4167" x="1129.1667" y="697.4935"/><rect height="60.7096" style="stroke:#333333;stroke-width:1.0416666666666667;fill:none;" width="10.4167" x="1134.375" y="755.0781"/><rect height="60.7096" style="stroke:#333333;stroke-width:1.0416666666666667;fill:none;" width="10.4167" x="1134.375" y="880.6641"/><rect height="147.7539" style="stroke:#333333;stroke-width:1.0416666666666667;fill:none;" width="10.4167" x="1496.875" y="1047.168"/><rect height="49.2513" style="stroke:#333333;stroke-width:1.0416666666666667;fill:none;" width="10.4167" x="1848.9583" y="549.7396"/><rect height="49.2513" style="stroke:#333333;stroke-width:1.0416666666666667;fill:none;" width="10.4167" x="1848.9583" y="1096.4193"/><rect fill="#F8F9FA" height="3.125" style="stroke:#F8F9FA;stroke-width:1.0416666666666667;" width="2012.5" x="0" y="374.9349"/><line style="stroke:#868E96;stroke-width:1.0416666666666667;" x1="0" x2="2012.5" y1="374.9349" y2="374.9349"/><line style="stroke:#868E96;stroke-width:1.0416666666666667;" x1="0" x2="2012.5" y1="378.0599" y2="378.0599"/><rect fill="#F8F9FA" height="47.8516" style="stroke:#868E96;stroke-width:2.0833333333333335;" width="194.7917" x="908.8542" y="352.0508"/><text fill="#343A40" font-family="Calibri" font-size="25" font-weight="bold" lengthAdjust="spacingAndGlyphs" textLength="169.7917" x="920.3125" y="384.6313">ACTIVATION =</text><line style="stroke:#2FA4E7;stroke-width:2.604166666666667;" x1="259.375" x2="248.9583" y1="451.237" y2="447.0703"/><line style="stroke:#2FA4E7;stroke-width:2.604166666666667;" x1="259.375" x2="248.9583" y1="451.237" y2="455.4036"/><line style="stroke:#2FA4E7;stroke-width:2.604166666666667;" x1="0" x2="260.4167" y1="451.237" y2="451.237"/><text fill="#343A40" font-family="Calibri" font-size="20.8333" font-weight="bold" lengthAdjust="spacingAndGlyphs" textLength="11.4583" x="12.5" y="439.032">1</text><text fill="#343A40" font-family="Calibri" font-size="20.8333" lengthAdjust="spacingAndGlyphs" textLength="182.2917" x="38.5417" y="439.032">&lt;&lt;event&gt;&gt;activate()</text><polygon fill="#2FA4E7" points="745.8333,496.3216,756.25,500.4883,745.8333,504.6549,750,500.4883" style="stroke:#2FA4E7;stroke-width:1.0416666666666667;"/><line style="stroke:#2FA4E7;stroke-width:2.604166666666667;" x1="271.875" x2="752.0833" y1="500.4883" y2="500.4883"/><text fill="#343A40" font-family="Calibri" font-size="20.8333" font-weight="bold" lengthAdjust="spacingAndGlyphs" textLength="11.4583" x="284.375" y="488.2833">2</text><text fill="#343A40" font-family="Calibri" font-size="20.8333" lengthAdjust="spacingAndGlyphs" textLength="430.2083" x="310.4167" y="488.2833">initializeOutputChannel(channelName: string)</text><polygon fill="#2FA4E7" points="1836.4583,545.5729,1846.875,549.7396,1836.4583,553.9063,1840.625,549.7396" style="stroke:#2FA4E7;stroke-width:1.0416666666666667;"/><line style="stroke:#2FA4E7;stroke-width:2.604166666666667;" x1="768.75" x2="1842.7083" y1="549.7396" y2="549.7396"/><text fill="#343A40" font-family="Calibri" font-size="20.8333" font-weight="bold" lengthAdjust="spacingAndGlyphs" textLength="11.4583" x="781.25" y="537.5346">3</text><text fill="#343A40" font-family="Calibri" font-size="20.8333" lengthAdjust="spacingAndGlyphs" textLength="488.5417" x="807.2917" y="537.5346">window.createOutputChannel(channelName: string)</text><polygon fill="#2FA4E7" points="780.2083,594.8242,769.7917,598.9909,780.2083,603.1576,776.0417,598.9909" style="stroke:#2FA4E7;stroke-width:1.0416666666666667;"/><line style="stroke:#2FA4E7;stroke-width:2.604166666666667;stroke-dasharray:2.0,2.0;" x1="773.9583" x2="1853.125" y1="598.9909" y2="598.9909"/><text fill="#343A40" font-family="Calibri" font-size="20.8333" font-weight="bold" lengthAdjust="spacingAndGlyphs" textLength="11.4583" x="791.6667" y="586.7859">4</text><text fill="#343A40" font-family="Calibri" font-size="20.8333" lengthAdjust="spacingAndGlyphs" textLength="0" x="822.9167" y="586.7859"/><polygon fill="#2FA4E7" points="283.3333,644.0755,272.9167,648.2422,283.3333,652.4089,279.1667,648.2422" style="stroke:#2FA4E7;stroke-width:1.0416666666666667;"/><line style="stroke:#2FA4E7;stroke-width:2.604166666666667;stroke-dasharray:2.0,2.0;" x1="277.0833" x2="762.5" y1="648.2422" y2="648.2422"/><text fill="#343A40" font-family="Calibri" font-size="20.8333" font-weight="bold" lengthAdjust="spacingAndGlyphs" textLength="11.4583" x="294.7917" y="636.0372">5</text><text fill="#343A40" font-family="Calibri" font-size="20.8333" lengthAdjust="spacingAndGlyphs" textLength="0" x="326.0417" y="636.0372"/><polygon fill="#2FA4E7" points="1116.6667,693.3268,1127.0833,697.4935,1116.6667,701.6602,1120.8333,697.4935" style="stroke:#2FA4E7;stroke-width:1.0416666666666667;"/><line style="stroke:#2FA4E7;stroke-width:2.604166666666667;" x1="271.875" x2="1122.9167" y1="697.4935" y2="697.4935"/><text fill="#343A40" font-family="Calibri" font-size="20.8333" font-weight="bold" lengthAdjust="spacingAndGlyphs" textLength="11.4583" x="284.375" y="685.2885">6</text><text fill="#343A40" font-family="Calibri" font-size="20.8333" lengthAdjust="spacingAndGlyphs" textLength="573.9583" x="310.4167" y="685.2885">initializeExtensionConfiguration(rootConfigurationKey: string)</text><line style="stroke:#2FA4E7;stroke-width:2.604166666666667;" x1="1139.5833" x2="1188.5417" y1="741.5365" y2="741.5365"/><line style="stroke:#2FA4E7;stroke-width:2.604166666666667;" x1="1188.5417" x2="1188.5417" y1="741.5365" y2="755.0781"/><line style="stroke:#2FA4E7;stroke-width:2.604166666666667;" x1="1145.8333" x2="1188.5417" y1="755.0781" y2="755.0781"/><polygon fill="#2FA4E7" points="1156.25,750.9115,1145.8333,755.0781,1156.25,759.2448,1152.0833,755.0781" style="stroke:#2FA4E7;stroke-width:1.0416666666666667;"/><text fill="#343A40" font-family="Calibri" font-size="20.8333" font-weight="bold" lengthAdjust="spacingAndGlyphs" textLength="11.4583" x="1157.2917" y="729.3315">7</text><text fill="#343A40" font-family="Calibri" font-size="20.8333" lengthAdjust="spacingAndGlyphs" textLength="185.4167" x="1183.3333" y="729.3315">mapConfiguration()</text><line style="stroke:#2FA4E7;stroke-width:2.604166666666667;stroke-dasharray:2.0,2.0;" x1="1144.7917" x2="1188.5417" y1="814.7461" y2="814.7461"/><line style="stroke:#2FA4E7;stroke-width:2.604166666666667;stroke-dasharray:2.0,2.0;" x1="1188.5417" x2="1188.5417" y1="814.7461" y2="828.2878"/><line style="stroke:#2FA4E7;stroke-width:2.604166666666667;stroke-dasharray:2.0,2.0;" x1="1139.5833" x2="1188.5417" y1="828.2878" y2="828.2878"/><polygon fill="#2FA4E7" points="1150,824.1211,1139.5833,828.2878,1150,832.4544,1145.8333,828.2878" style="stroke:#2FA4E7;stroke-width:1.0416666666666667;"/><text fill="#343A40" font-family="Calibri" font-size="20.8333" font-weight="bold" lengthAdjust="spacingAndGlyphs" textLength="11.4583" x="1157.2917" y="802.5411">8</text><text fill="#343A40" font-family="Calibri" font-size="20.8333" lengthAdjust="spacingAndGlyphs" textLength="0" x="1188.5417" y="802.5411"/><line style="stroke:#2FA4E7;stroke-width:2.604166666666667;" x1="1139.5833" x2="1188.5417" y1="867.1224" y2="867.1224"/><line style="stroke:#2FA4E7;stroke-width:2.604166666666667;" x1="1188.5417" x2="1188.5417" y1="867.1224" y2="880.6641"/><line style="stroke:#2FA4E7;stroke-width:2.604166666666667;" x1="1145.8333" x2="1188.5417" y1="880.6641" y2="880.6641"/><polygon fill="#2FA4E7" points="1156.25,876.4974,1145.8333,880.6641,1156.25,884.8307,1152.0833,880.6641" style="stroke:#2FA4E7;stroke-width:1.0416666666666667;"/><text fill="#343A40" font-family="Calibri" font-size="20.8333" font-weight="bold" lengthAdjust="spacingAndGlyphs" textLength="11.4583" x="1157.2917" y="854.9174">9</text><text fill="#343A40" font-family="Calibri" font-size="20.8333" lengthAdjust="spacingAndGlyphs" textLength="306.25" x="1183.3333" y="854.9174">initializeConfigurationWatchers()</text><line style="stroke:#2FA4E7;stroke-width:2.604166666666667;stroke-dasharray:2.0,2.0;" x1="1144.7917" x2="1188.5417" y1="940.332" y2="940.332"/><line style="stroke:#2FA4E7;stroke-width:2.604166666666667;stroke-dasharray:2.0,2.0;" x1="1188.5417" x2="1188.5417" y1="940.332" y2="953.8737"/><line style="stroke:#2FA4E7;stroke-width:2.604166666666667;stroke-dasharray:2.0,2.0;" x1="1139.5833" x2="1188.5417" y1="953.8737" y2="953.8737"/><polygon fill="#2FA4E7" points="1150,949.707,1139.5833,953.8737,1150,958.0404,1145.8333,953.8737" style="stroke:#2FA4E7;stroke-width:1.0416666666666667;"/><text fill="#343A40" font-family="Calibri" font-size="20.8333" font-weight="bold" lengthAdjust="spacingAndGlyphs" textLength="22.9167" x="1157.2917" y="928.127">10</text><text fill="#343A40" font-family="Calibri" font-size="20.8333" lengthAdjust="spacingAndGlyphs" textLength="0" x="1200" y="928.127"/><polygon fill="#2FA4E7" points="283.3333,993.75,272.9167,997.9167,283.3333,1002.0833,279.1667,997.9167" style="stroke:#2FA4E7;stroke-width:1.0416666666666667;"/><line style="stroke:#2FA4E7;stroke-width:2.604166666666667;stroke-dasharray:2.0,2.0;" x1="277.0833" x2="1133.3333" y1="997.9167" y2="997.9167"/><text fill="#343A40" font-family="Calibri" font-size="20.8333" font-weight="bold" lengthAdjust="spacingAndGlyphs" textLength="22.9167" x="294.7917" y="985.7117">11</text><text fill="#343A40" font-family="Calibri" font-size="20.8333" lengthAdjust="spacingAndGlyphs" textLength="0" x="337.5" y="985.7117"/><polygon fill="#2FA4E7" points="1484.375,1043.0013,1494.7917,1047.168,1484.375,1051.3346,1488.5417,1047.168" style="stroke:#2FA4E7;stroke-width:1.0416666666666667;"/><line style="stroke:#2FA4E7;stroke-width:2.604166666666667;" x1="271.875" x2="1490.625" y1="1047.168" y2="1047.168"/><text fill="#343A40" font-family="Calibri" font-size="20.8333" font-weight="bold" lengthAdjust="spacingAndGlyphs" textLength="22.9167" x="284.375" y="1034.963">12</text><text fill="#343A40" font-family="Calibri" font-size="20.8333" lengthAdjust="spacingAndGlyphs" textLength="243.75" x="321.875" y="1034.963">initializeFileContentStore()</text><polygon fill="#2FA4E7" points="1836.4583,1092.2526,1846.875,1096.4193,1836.4583,1100.5859,1840.625,1096.4193" style="stroke:#2FA4E7;stroke-width:1.0416666666666667;"/><line style="stroke:#2FA4E7;stroke-width:2.604166666666667;" x1="1507.2917" x2="1842.7083" y1="1096.4193" y2="1096.4193"/><text fill="#343A40" font-family="Calibri" font-size="20.8333" font-weight="bold" lengthAdjust="spacingAndGlyphs" textLength="22.9167" x="1519.7917" y="1084.2143">13</text><text fill="#343A40" font-family="Calibri" font-size="20.8333" lengthAdjust="spacingAndGlyphs" textLength="182.2917" x="1557.2917" y="1084.2143">workspace.findFiles</text><polygon fill="#2FA4E7" points="1518.75,1141.5039,1508.3333,1145.6706,1518.75,1149.8372,1514.5833,1145.6706" style="stroke:#2FA4E7;stroke-width:1.0416666666666667;"/><line style="stroke:#2FA4E7;stroke-width:2.604166666666667;stroke-dasharray:2.0,2.0;" x1="1512.5" x2="1853.125" y1="1145.6706" y2="1145.6706"/><text fill="#343A40" font-family="Calibri" font-size="20.8333" font-weight="bold" lengthAdjust="spacingAndGlyphs" textLength="22.9167" x="1530.2083" y="1133.4656">14</text><text fill="#343A40" font-family="Calibri" font-size="20.8333" lengthAdjust="spacingAndGlyphs" textLength="0" x="1572.9167" y="1133.4656"/><polygon fill="#2FA4E7" points="283.3333,1190.7552,272.9167,1194.9219,283.3333,1199.0885,279.1667,1194.9219" style="stroke:#2FA4E7;stroke-width:1.0416666666666667;"/><line style="stroke:#2FA4E7;stroke-width:2.604166666666667;stroke-dasharray:2.0,2.0;" x1="277.0833" x2="1501.0417" y1="1194.9219" y2="1194.9219"/><text fill="#343A40" font-family="Calibri" font-size="20.8333" font-weight="bold" lengthAdjust="spacingAndGlyphs" textLength="22.9167" x="294.7917" y="1182.7169">15</text><text fill="#343A40" font-family="Calibri" font-size="20.8333" lengthAdjust="spacingAndGlyphs" textLength="0" x="337.5" y="1182.7169"/><rect fill="#F8F9FA" height="3.125" style="stroke:#F8F9FA;stroke-width:1.0416666666666667;" width="2012.5" x="0" y="1236.556"/><line style="stroke:#868E96;stroke-width:1.0416666666666667;" x1="0" x2="2012.5" y1="1236.556" y2="1236.556"/><line style="stroke:#868E96;stroke-width:1.0416666666666667;" x1="0" x2="2012.5" y1="1239.681" y2="1239.681"/><rect fill="#F8F9FA" height="47.8516" style="stroke:#868E96;stroke-width:2.0833333333333335;" width="226.0417" x="893.2292" y="1213.6719"/><text fill="#343A40" font-family="Calibri" font-size="25" font-weight="bold" lengthAdjust="spacingAndGlyphs" textLength="201.0417" x="904.6875" y="1246.2524">DEACTIVATION =</text><line style="stroke:#2FA4E7;stroke-width:2.604166666666667;" x1="259.375" x2="248.9583" y1="1312.8581" y2="1308.6914"/><line style="stroke:#2FA4E7;stroke-width:2.604166666666667;" x1="259.375" x2="248.9583" y1="1312.8581" y2="1317.0247"/><line style="stroke:#2FA4E7;stroke-width:2.604166666666667;" x1="0" x2="260.4167" y1="1312.8581" y2="1312.8581"/><text fill="#343A40" font-family="Calibri" font-size="20.8333" font-weight="bold" lengthAdjust="spacingAndGlyphs" textLength="22.9167" x="12.5" y="1300.6531">16</text><text fill="#343A40" font-family="Calibri" font-size="20.8333" lengthAdjust="spacingAndGlyphs" textLength="193.75" x="50" y="1300.6531">&lt;&lt;event&gt;&gt;dectivate()</text><rect fill="#FFFFFF" height="129.0039" rx="5.2083" ry="5.2083" style="stroke:#FFFFFF;stroke-width:1.0416666666666667;" width="287.5" x="8.3333" y="78.418"/><rect fill="#F8F8FF" height="34.668" style="stroke:none;stroke-width:1.0416666666666667;" width="264.5833" x="19.7917" y="90.918"/><text fill="#343A40" font-family="Calibri" font-size="20.8333" lengthAdjust="spacingAndGlyphs" textLength="0" x="66.6667" y="115.4643"/><text fill="#343A40" font-family="Calibri" font-size="20.8333" font-weight="bold" lengthAdjust="spacingAndGlyphs" textLength="0" x="82.2917" y="115.4643"/><text fill="#343A40" font-family="Calibri" font-size="20.8333" font-weight="bold" lengthAdjust="spacingAndGlyphs" text-decoration="underline" textLength="191.6667" x="82.2917" y="115.4643">ESB Message Types</text><text fill="#343A40" font-family="Calibri" font-size="20.8333" font-weight="bold" lengthAdjust="spacingAndGlyphs" textLength="0" x="279.1667" y="115.4643"/><rect fill="#008000" height="34.668" style="stroke:none;stroke-width:1.0416666666666667;" width="52.0833" x="19.7917" y="125.5859"/><text fill="#343A40" font-family="Calibri" font-size="20.8333" lengthAdjust="spacingAndGlyphs" textLength="0" x="40.625" y="150.1322"/><text fill="#343A40" font-family="Calibri" font-size="20.8333" lengthAdjust="spacingAndGlyphs" textLength="43.75" x="82.2917" y="150.1322">Sync</text><rect fill="#FFA500" height="34.668" style="stroke:none;stroke-width:1.0416666666666667;" width="52.0833" x="19.7917" y="160.2539"/><text fill="#343A40" font-family="Calibri" font-size="20.8333" lengthAdjust="spacingAndGlyphs" textLength="0" x="35.4167" y="184.8002"/><text fill="#343A40" font-family="Calibri" font-size="20.8333" lengthAdjust="spacingAndGlyphs" textLength="55.2083" x="82.2917" y="184.8002">Async</text><line style="stroke:#F8F8FF;stroke-width:1.0416666666666667;" x1="19.7917" x2="284.375" y1="90.918" y2="90.918"/><line style="stroke:#F8F8FF;stroke-width:1.0416666666666667;" x1="19.7917" x2="284.375" y1="125.5859" y2="125.5859"/><line style="stroke:#F8F8FF;stroke-width:1.0416666666666667;" x1="19.7917" x2="284.375" y1="160.2539" y2="160.2539"/><line style="stroke:#F8F8FF;stroke-width:1.0416666666666667;" x1="19.7917" x2="284.375" y1="194.9219" y2="194.9219"/><line style="stroke:#F8F8FF;stroke-width:1.0416666666666667;" x1="19.7917" x2="19.7917" y1="90.918" y2="194.9219"/><line style="stroke:#F8F8FF;stroke-width:1.0416666666666667;" x1="71.875" x2="71.875" y1="90.918" y2="194.9219"/><line style="stroke:#F8F8FF;stroke-width:1.0416666666666667;" x1="284.375" x2="284.375" y1="90.918" y2="194.9219"/><!--MD5=[042eb201003896bbbacd943cf7dda98f]
@startuml Extension Initialization Sequence

!include style/sequence.style.iuml
!include style/sequence.settings.iuml
!include style/sequence.variables.iuml

legend top left
  <#GhostWhite,#GhostWhite>|        |= __ESB Message Types__ |
  |<$syncColor>   | Sync|
  |<$asyncColor>  | Async|
endlegend

title Extension Initialization Sequence

!define X "Extension"
!define OPCMNG "OutputChannelManager"
!define CNFMNG "ConfigurationManager"
!define FCS "FileContentStore"

!define VSCAPI "VS Code API"

box "Internal Logic" $internalServicesBoxColor
    participant X
    participant OPCMNG   << (S,#ADD1B2) Singleton >>
    participant CNFMNG   << (S,#ADD1B2) Singleton >>
    participant FCS      << (S,#ADD1B2) Singleton >>
end box

box "External Logic" $externalServicesBoxColor
    participant VSCAPI
end box

=== ACTIVATION ===
->>X:<<event>>activate()
X->OPCMNG:initializeOutputChannel(channelName: string)
OPCMNG->VSCAPI:window.createOutputChannel(channelName: string)
return
return
X->CNFMNG:initializeExtensionConfiguration(rootConfigurationKey: string)
CNFMNG->CNFMNG:mapConfiguration()
return
CNFMNG->CNFMNG:initializeConfigurationWatchers()
return
return
X->FCS:initializeFileContentStore()
FCS->VSCAPI:workspace.findFiles
return
return
=== DEACTIVATION ===
->>X:<<event>>dectivate()


@enduml

@startuml Extension Initialization Sequence





skinparam backgroundColor transparent
skinparam useBetaStyle false







skinparam defaultFontName       "Verdana"
skinparam defaultFontSize       12
skinparam dpi                   100
skinparam shadowing             false
skinparam roundcorner           8
skinparam ParticipantPadding    40
skinparam BoxPadding            40
skinparam Padding               5
skinparam ArrowColor            #868E96
skinparam stereotype {
    CBackgroundColor #EDF0F2
    CBorderColor #BABDBF
    ABackgroundColor #8FB961
    ABorderColor $SUCCESS_DARK
    IBackgroundColor #D2494E
    IBorderColor $DANGER_DARK
    EBackgroundColor #E47833
    EBorderColor $WARNING_DARK
    NBackgroundColor #35638F
    NBorderColor $INFO_DARK
}
skinparam title {
	FontColor	                 #2FA4E7
	BorderColor	                 #BABDBF
	FontSize	    	         20
	BorderRoundCorner            8
	BorderThickness 	         1
	BackgroundColor              transparent
}

skinparam legend {
	BackgroundColor transparent
	BorderColor #BABDBF
	FontColor #343A40
}

skinparam swimlane {
	BorderColor #033C73
	BorderThickness 2
	TitleBackgroundColor  #EDF0F2-#E9ECEF
	TitleFontColor #2FA4E7
}


skinparam activity {
		FontColor #2FA4E7
	BorderColor #2FA4E7
	BackgroundColor transparent
	BarColor #73A839
	StartColor #033C73
	EndColor #033C73
	DiamondBackgroundColor transparent
  	DiamondBorderColor #BABDBF
	DiamondFontColor #BABDBF
}


skinparam participant {
		FontColor #2FA4E7
	BorderColor #2FA4E7
	BackgroundColor transparent
	ParticipantBorderThickness 2
}


skinparam actor {
		FontColor #2FA4E7
	BorderColor #2FA4E7
	BackgroundColor transparent
}


skinparam arrow {
	Thickness 3
	Color #2FA4E7
	FontColor #343A40
}


skinparam sequence {
	BorderColor #2FA4E7
	TitleFontColor #2FA4E7
	BackgroundColor transparent
	StartColor #2FA4E7
	EndColor #2FA4E7
	BoxBackgroundColor transparent
	BoxBorderColor #868E96
	BoxFontColor #343A40
	DelayFontColor #343A40
	LifeLineBorderColor #BABDBF
	LifeLineBorderThickness 2
	LifeLineBackgroundColor transparent
	GroupBorderColor #868E96
	GroupFontColor #343A40
	GroupHeaderFontColor #033C73
	GroupBackgroundColor #E9ECEF
	GroupBodyBackgroundColor transparent
	GroupHeaderBackgroundColor transparent
	DividerBackgroundColor #F8F9FA
    DividerBorderColor #868E96
    DividerBorderThickness 2
    DividerFontColor #343A40
	ReferenceBackgroundColor transparent
	ReferenceBorderColor #868E96
	ReferenceFontColor #343A40
	ReferenceHeaderFontColor #033C73
	StereotypeFontColor #2FA4E7
}


skinparam partition {
	BorderColor #2FA4E7
	FontColor #2FA4E7
	BackgroundColor transparent
}


skinparam collections {
		FontColor #2FA4E7
	BorderColor #2FA4E7
	BackgroundColor transparent
}


skinparam control {
		FontColor #2FA4E7
	BorderColor #2FA4E7
	BackgroundColor transparent
}


skinparam entity {
		FontColor #2FA4E7
	BorderColor #2FA4E7
	BackgroundColor transparent
}


skinparam boundary {
		FontColor #2FA4E7
	BorderColor #2FA4E7
	BackgroundColor transparent
}


skinparam agent {
	BackgroundColor transparent
	BorderColor #999999
	FontColor #333333
}


skinparam note {
	BorderThickness 1
	BackgroundColor transparent
	BorderColor #033C73
	FontColor #033C73
}


skinparam artifact {
	BackgroundColor transparent
	BorderColor #868E96
	FontColor #868E96
}


skinparam component {
		FontColor #2FA4E7
	BorderColor #2FA4E7
	BackgroundColor transparent
}


skinparam interface {
	BackgroundColor  transparent
	BorderColor  #C71C22
	FontColor #343A40
}


skinparam storage {
	BackgroundColor transparent
  	BorderColor #DD5600
	FontColor #DD5600
}


skinparam node {
	BackgroundColor transparent
	BorderColor #343A40
	FontColor #343A40
}


skinparam cloud {
	BackgroundColor transparent
	BorderColor #F2FCFE
	FontColor #343A40
}


skinparam database {
		FontColor #2FA4E7
	BorderColor #2FA4E7
	BackgroundColor transparent
}


skinparam class {
		FontColor #2FA4E7
	BorderColor #2FA4E7
	BackgroundColor transparent
	FontColor #F8F9FA
	HeaderBackgroundColor #2FA4E7-#2683B9
	StereotypeFontColor #343A40
	BorderThickness 1
	AttributeFontColor #343A40
	AttributeFontSize 11
}


skinparam object {
		FontColor #2FA4E7
	BorderColor #2FA4E7
	BackgroundColor transparent
	StereotypeFontColor #343A40
	BorderThickness 1
	AttributeFontColor #BABDBF
	AttributeFontSize 11
}


skinparam usecase {
		FontColor #2FA4E7
	BorderColor #2FA4E7
	BackgroundColor transparent
	BorderThickness 2
	StereotypeFontColor #2FA4E7
}


skinparam rectangle {
		FontColor #2FA4E7
	BorderColor #2FA4E7
	BackgroundColor transparent
	BorderThickness 2
	StereotypeFontColor #2FA4E7
}


skinparam package {
	BackgroundColor transparent
  	BorderColor #2FA4E7
	FontColor #2FA4E7
	BorderThickness 2
}


skinparam folder {
	BackgroundColor transparent
  	BorderColor #DD5600
	FontColor #DD5600
	BorderThickness 2
}


skinparam frame {
	BackgroundColor transparent
  	BorderColor #033C73
	FontColor #033C73
	BorderThickness 2
}


skinparam state {
		FontColor #2FA4E7
	BorderColor #2FA4E7
	BackgroundColor transparent
	StartColor #033C73
	EndColor #033C73
	AttributeFontColor #BABDBF
	AttributeFontSize 11
}


skinparam queue {
		FontColor #2FA4E7
	BorderColor #2FA4E7
	BackgroundColor transparent
}


skinparam card {
	BackgroundColor transparent
	BorderColor #033C73
	FontColor #033C73
}


skinparam file {
	BackgroundColor transparent
	BorderColor #868E96
	FontColor #868E96
}


skinparam stack {
		FontColor #2FA4E7
	BorderColor #2FA4E7
	BackgroundColor transparent
}




skinparam defaultFontName Calibri
skinparam defaultFontSize 20
skinparam sequenceLifeLineBorderColor #333
skinparam legendBackgroundColor #FFFFFF
skinparam legendBorderColor #FFFFFF
skinparam legendEntrySeparator #FFFFFF
skinparam arrowThickness 2.5
autoactivate on
autonumber


legend top left
  <#GhostWhite,#GhostWhite>|        |= __ESB Message Types__ |
  |<#green>   | Sync|
  |<#orange>  | Async|
endlegend

title Extension Initialization Sequence



box "Internal Logic" #Gainsboro
    participant "Extension"
    participant "OutputChannelManager"   << (S,#ADD1B2) Singleton >>
    participant "ConfigurationManager"   << (S,#ADD1B2) Singleton >>
    participant "FileContentStore"      << (S,#ADD1B2) Singleton >>
end box

box "External Logic" #Lavender
    participant "VS Code API"
end box

=== ACTIVATION ===
->>"Extension":<<event>>activate()
"Extension"->"OutputChannelManager":initializeOutputChannel(channelName: string)
"OutputChannelManager"->"VS Code API":window.createOutputChannel(channelName: string)
return
return
"Extension"->"ConfigurationManager":initializeExtensionConfiguration(rootConfigurationKey: string)
"ConfigurationManager"->"ConfigurationManager":mapConfiguration()
return
"ConfigurationManager"->"ConfigurationManager":initializeConfigurationWatchers()
return
return
"Extension"->"FileContentStore":initializeFileContentStore()
"FileContentStore"->"VS Code API":workspace.findFiles
return
return
=== DEACTIVATION ===
->>"Extension":<<event>>dectivate()


@enduml

PlantUML version 1.2020.23(Sun Dec 13 19:14:58 GMT 2020)
(GPL source distribution)
Java Runtime: OpenJDK Runtime Environment
JVM: OpenJDK 64-Bit Server VM
Default Encoding: UTF-8
Language: en
Country: US
--></g></svg>