<?xml version="1.0" encoding="UTF-8" standalone="no"?><svg xmlns="http://www.w3.org/2000/svg" xmlns:xlink="http://www.w3.org/1999/xlink" contentScriptType="application/ecmascript" contentStyleType="text/css" height="885px" preserveAspectRatio="none" style="width:1097px;height:885px;" version="1.1" viewBox="0 0 1097 885" width="1097px" zoomAndPan="magnify"><defs><filter height="300%" id="f1x3slk2cmu054" width="300%" x="-1" y="-1"><feGaussianBlur result="blurOut" stdDeviation="2.0"/><feColorMatrix in="blurOut" result="blurOut2" type="matrix" values="0 0 0 0 0 0 0 0 0 0 0 0 0 0 0 0 0 0 .4 0"/><feOffset dx="4.0" dy="4.0" in="blurOut2" result="blurOut3"/><feBlend in="SourceGraphic" in2="blurOut3" mode="normal"/></filter></defs><g><text fill="#000000" font-family="sans-serif" font-size="18" lengthAdjust="spacingAndGlyphs" textLength="274" x="408.25" y="28.708">Extension Initialization Sequence</text><rect fill="#DCDCDC" height="759.0234" style="stroke:#A80036;stroke-width:1.0;" width="855" x="102" y="120.8438"/><text fill="#000000" font-family="sans-serif" font-size="13" font-weight="bold" lengthAdjust="spacingAndGlyphs" textLength="90" x="484.5" y="132.9106">Internal Logic</text><rect fill="#E6E6FA" height="759.0234" style="stroke:#A80036;stroke-width:1.0;" width="103" x="986.5" y="120.8438"/><text fill="#000000" font-family="sans-serif" font-size="13" font-weight="bold" lengthAdjust="spacingAndGlyphs" textLength="90" x="993" y="132.9106">External Logic</text><rect fill="#FFFFFF" filter="url(#f1x3slk2cmu054)" height="545.7813" style="stroke:#A80036;stroke-width:1.0;" width="10" x="141" y="270.4922"/><rect fill="#FFFFFF" filter="url(#f1x3slk2cmu054)" height="9" style="stroke:#A80036;stroke-width:1.0;" width="10" x="146" y="807.2734"/><rect fill="#FFFFFF" filter="url(#f1x3slk2cmu054)" height="87.3984" style="stroke:#A80036;stroke-width:1.0;" width="10" x="447" y="299.625"/><rect fill="#FFFFFF" filter="url(#f1x3slk2cmu054)" height="197.6641" style="stroke:#A80036;stroke-width:1.0;" width="10" x="647" y="416.1563"/><rect fill="#FFFFFF" filter="url(#f1x3slk2cmu054)" height="40.1328" style="stroke:#A80036;stroke-width:1.0;" width="10" x="652" y="453.2891"/><rect fill="#FFFFFF" filter="url(#f1x3slk2cmu054)" height="40.1328" style="stroke:#A80036;stroke-width:1.0;" width="10" x="652" y="537.5547"/><rect fill="#FFFFFF" filter="url(#f1x3slk2cmu054)" height="87.3984" style="stroke:#A80036;stroke-width:1.0;" width="10" x="872" y="642.9531"/><rect fill="#FFFFFF" filter="url(#f1x3slk2cmu054)" height="29.1328" style="stroke:#A80036;stroke-width:1.0;" width="10" x="1033" y="328.7578"/><rect fill="#FFFFFF" filter="url(#f1x3slk2cmu054)" height="29.1328" style="stroke:#A80036;stroke-width:1.0;" width="10" x="1033" y="672.0859"/><line style="stroke:#A80036;stroke-width:1.0;stroke-dasharray:5.0,5.0;" x1="146" x2="146" y1="191.5703" y2="825.2734"/><line style="stroke:#A80036;stroke-width:1.0;stroke-dasharray:5.0,5.0;" x1="452" x2="452" y1="191.5703" y2="825.2734"/><line style="stroke:#A80036;stroke-width:1.0;stroke-dasharray:5.0,5.0;" x1="652" x2="652" y1="191.5703" y2="825.2734"/><line style="stroke:#A80036;stroke-width:1.0;stroke-dasharray:5.0,5.0;" x1="877" x2="877" y1="191.5703" y2="825.2734"/><line style="stroke:#A80036;stroke-width:1.0;stroke-dasharray:5.0,5.0;" x1="1037.5" x2="1037.5" y1="191.5703" y2="825.2734"/><rect fill="#FEFECE" filter="url(#f1x3slk2cmu054)" height="30.2969" style="stroke:#A80036;stroke-width:1.5;" width="76" x="106" y="156.2734"/><text fill="#000000" font-family="sans-serif" font-size="14" lengthAdjust="spacingAndGlyphs" textLength="62" x="113" y="176.2686">Extension</text><rect fill="#FEFECE" filter="url(#f1x3slk2cmu054)" height="30.2969" style="stroke:#A80036;stroke-width:1.5;" width="76" x="106" y="824.2734"/><text fill="#000000" font-family="sans-serif" font-size="14" lengthAdjust="spacingAndGlyphs" textLength="62" x="113" y="844.2686">Extension</text><rect fill="#FEFECE" filter="url(#f1x3slk2cmu054)" height="46.5938" style="stroke:#A80036;stroke-width:1.5;" width="192" x="354" y="139.9766"/><ellipse cx="372" cy="157.9766" fill="#ADD1B2" rx="11" ry="11" style="stroke:#A80036;stroke-width:1.0;"/><path d="M376.1719,160.6016 Q376.1719,161.4141 375.8906,162.0703 Q375.625,162.7266 375.0781,163.1953 Q374.5469,163.6484 373.7656,163.8984 Q373,164.1484 372,164.1484 Q371.1094,164.1484 370.2969,163.9609 Q369.4844,163.7734 368.7813,163.4141 L368.7813,161.0234 Q369.1719,161.2109 369.5781,161.3984 Q370,161.5703 370.4063,161.7109 Q370.8281,161.8516 371.25,161.9453 Q371.6719,162.0234 372.0781,162.0234 Q372.5,162.0234 372.7969,161.9297 Q373.1094,161.8203 373.2969,161.6641 Q373.4844,161.4922 373.5625,161.2578 Q373.6563,161.0078 373.6563,160.7266 Q373.6563,160.3828 373.5156,160.1328 Q373.375,159.8672 373.1094,159.6484 Q372.8438,159.4141 372.4688,159.1953 Q372.1094,158.9766 371.6563,158.7422 Q371.2656,158.5391 370.7969,158.2578 Q370.3281,157.9766 369.9063,157.5547 Q369.4844,157.1328 369.2031,156.5391 Q368.9219,155.9453 368.9219,155.1172 Q368.9219,154.3047 369.1875,153.6641 Q369.4688,153.0234 369.9531,152.5859 Q370.4531,152.1328 371.1563,151.8984 Q371.875,151.6641 372.75,151.6641 Q373.2031,151.6641 373.6094,151.7266 Q374.0313,151.7891 374.4375,151.8984 Q374.8594,151.9922 375.2656,152.1641 Q375.6875,152.3203 376.125,152.5234 L375.2969,154.5234 Q374.9219,154.3516 374.5938,154.2266 Q374.2813,154.0859 373.9688,153.9922 Q373.6563,153.8984 373.3594,153.8516 Q373.0781,153.8047 372.7656,153.8047 Q372.125,153.8047 371.7813,154.1484 Q371.4375,154.4922 371.4375,155.0703 Q371.4375,155.3828 371.5313,155.6172 Q371.6406,155.8516 371.8594,156.0547 Q372.0938,156.2578 372.4531,156.4766 Q372.8281,156.6953 373.3438,156.9766 Q373.9531,157.3047 374.4688,157.6484 Q375,157.9922 375.375,158.4141 Q375.7656,158.8359 375.9688,159.3672 Q376.1719,159.8984 376.1719,160.6016 Z " fill="#000000"/><text fill="#000000" font-family="sans-serif" font-size="14" font-style="italic" lengthAdjust="spacingAndGlyphs" textLength="73" x="427.5" y="159.9717">«Singleton»</text><text fill="#000000" font-family="sans-serif" font-size="14" lengthAdjust="spacingAndGlyphs" textLength="150" x="389" y="176.2686">OutputChannelManager</text><rect fill="#FEFECE" filter="url(#f1x3slk2cmu054)" height="46.5938" style="stroke:#A80036;stroke-width:1.5;" width="192" x="354" y="824.2734"/><ellipse cx="372" cy="842.2734" fill="#ADD1B2" rx="11" ry="11" style="stroke:#A80036;stroke-width:1.0;"/><path d="M376.1719,844.8984 Q376.1719,845.7109 375.8906,846.3672 Q375.625,847.0234 375.0781,847.4922 Q374.5469,847.9453 373.7656,848.1953 Q373,848.4453 372,848.4453 Q371.1094,848.4453 370.2969,848.2578 Q369.4844,848.0703 368.7813,847.7109 L368.7813,845.3203 Q369.1719,845.5078 369.5781,845.6953 Q370,845.8672 370.4063,846.0078 Q370.8281,846.1484 371.25,846.2422 Q371.6719,846.3203 372.0781,846.3203 Q372.5,846.3203 372.7969,846.2266 Q373.1094,846.1172 373.2969,845.9609 Q373.4844,845.7891 373.5625,845.5547 Q373.6563,845.3047 373.6563,845.0234 Q373.6563,844.6797 373.5156,844.4297 Q373.375,844.1641 373.1094,843.9453 Q372.8438,843.7109 372.4688,843.4922 Q372.1094,843.2734 371.6563,843.0391 Q371.2656,842.8359 370.7969,842.5547 Q370.3281,842.2734 369.9063,841.8516 Q369.4844,841.4297 369.2031,840.8359 Q368.9219,840.2422 368.9219,839.4141 Q368.9219,838.6016 369.1875,837.9609 Q369.4688,837.3203 369.9531,836.8828 Q370.4531,836.4297 371.1563,836.1953 Q371.875,835.9609 372.75,835.9609 Q373.2031,835.9609 373.6094,836.0234 Q374.0313,836.0859 374.4375,836.1953 Q374.8594,836.2891 375.2656,836.4609 Q375.6875,836.6172 376.125,836.8203 L375.2969,838.8203 Q374.9219,838.6484 374.5938,838.5234 Q374.2813,838.3828 373.9688,838.2891 Q373.6563,838.1953 373.3594,838.1484 Q373.0781,838.1016 372.7656,838.1016 Q372.125,838.1016 371.7813,838.4453 Q371.4375,838.7891 371.4375,839.3672 Q371.4375,839.6797 371.5313,839.9141 Q371.6406,840.1484 371.8594,840.3516 Q372.0938,840.5547 372.4531,840.7734 Q372.8281,840.9922 373.3438,841.2734 Q373.9531,841.6016 374.4688,841.9453 Q375,842.2891 375.375,842.7109 Q375.7656,843.1328 375.9688,843.6641 Q376.1719,844.1953 376.1719,844.8984 Z " fill="#000000"/><text fill="#000000" font-family="sans-serif" font-size="14" font-style="italic" lengthAdjust="spacingAndGlyphs" textLength="73" x="427.5" y="844.2686">«Singleton»</text><text fill="#000000" font-family="sans-serif" font-size="14" lengthAdjust="spacingAndGlyphs" textLength="150" x="389" y="860.5654">OutputChannelManager</text><rect fill="#FEFECE" filter="url(#f1x3slk2cmu054)" height="46.5938" style="stroke:#A80036;stroke-width:1.5;" width="180" x="560" y="139.9766"/><ellipse cx="578" cy="157.9766" fill="#ADD1B2" rx="11" ry="11" style="stroke:#A80036;stroke-width:1.0;"/><path d="M582.1719,160.6016 Q582.1719,161.4141 581.8906,162.0703 Q581.625,162.7266 581.0781,163.1953 Q580.5469,163.6484 579.7656,163.8984 Q579,164.1484 578,164.1484 Q577.1094,164.1484 576.2969,163.9609 Q575.4844,163.7734 574.7813,163.4141 L574.7813,161.0234 Q575.1719,161.2109 575.5781,161.3984 Q576,161.5703 576.4063,161.7109 Q576.8281,161.8516 577.25,161.9453 Q577.6719,162.0234 578.0781,162.0234 Q578.5,162.0234 578.7969,161.9297 Q579.1094,161.8203 579.2969,161.6641 Q579.4844,161.4922 579.5625,161.2578 Q579.6563,161.0078 579.6563,160.7266 Q579.6563,160.3828 579.5156,160.1328 Q579.375,159.8672 579.1094,159.6484 Q578.8438,159.4141 578.4688,159.1953 Q578.1094,158.9766 577.6563,158.7422 Q577.2656,158.5391 576.7969,158.2578 Q576.3281,157.9766 575.9063,157.5547 Q575.4844,157.1328 575.2031,156.5391 Q574.9219,155.9453 574.9219,155.1172 Q574.9219,154.3047 575.1875,153.6641 Q575.4688,153.0234 575.9531,152.5859 Q576.4531,152.1328 577.1563,151.8984 Q577.875,151.6641 578.75,151.6641 Q579.2031,151.6641 579.6094,151.7266 Q580.0313,151.7891 580.4375,151.8984 Q580.8594,151.9922 581.2656,152.1641 Q581.6875,152.3203 582.125,152.5234 L581.2969,154.5234 Q580.9219,154.3516 580.5938,154.2266 Q580.2813,154.0859 579.9688,153.9922 Q579.6563,153.8984 579.3594,153.8516 Q579.0781,153.8047 578.7656,153.8047 Q578.125,153.8047 577.7813,154.1484 Q577.4375,154.4922 577.4375,155.0703 Q577.4375,155.3828 577.5313,155.6172 Q577.6406,155.8516 577.8594,156.0547 Q578.0938,156.2578 578.4531,156.4766 Q578.8281,156.6953 579.3438,156.9766 Q579.9531,157.3047 580.4688,157.6484 Q581,157.9922 581.375,158.4141 Q581.7656,158.8359 581.9688,159.3672 Q582.1719,159.8984 582.1719,160.6016 Z " fill="#000000"/><text fill="#000000" font-family="sans-serif" font-size="14" font-style="italic" lengthAdjust="spacingAndGlyphs" textLength="73" x="627.5" y="159.9717">«Singleton»</text><text fill="#000000" font-family="sans-serif" font-size="14" lengthAdjust="spacingAndGlyphs" textLength="138" x="595" y="176.2686">ConfigurationManager</text><rect fill="#FEFECE" filter="url(#f1x3slk2cmu054)" height="46.5938" style="stroke:#A80036;stroke-width:1.5;" width="180" x="560" y="824.2734"/><ellipse cx="578" cy="842.2734" fill="#ADD1B2" rx="11" ry="11" style="stroke:#A80036;stroke-width:1.0;"/><path d="M582.1719,844.8984 Q582.1719,845.7109 581.8906,846.3672 Q581.625,847.0234 581.0781,847.4922 Q580.5469,847.9453 579.7656,848.1953 Q579,848.4453 578,848.4453 Q577.1094,848.4453 576.2969,848.2578 Q575.4844,848.0703 574.7813,847.7109 L574.7813,845.3203 Q575.1719,845.5078 575.5781,845.6953 Q576,845.8672 576.4063,846.0078 Q576.8281,846.1484 577.25,846.2422 Q577.6719,846.3203 578.0781,846.3203 Q578.5,846.3203 578.7969,846.2266 Q579.1094,846.1172 579.2969,845.9609 Q579.4844,845.7891 579.5625,845.5547 Q579.6563,845.3047 579.6563,845.0234 Q579.6563,844.6797 579.5156,844.4297 Q579.375,844.1641 579.1094,843.9453 Q578.8438,843.7109 578.4688,843.4922 Q578.1094,843.2734 577.6563,843.0391 Q577.2656,842.8359 576.7969,842.5547 Q576.3281,842.2734 575.9063,841.8516 Q575.4844,841.4297 575.2031,840.8359 Q574.9219,840.2422 574.9219,839.4141 Q574.9219,838.6016 575.1875,837.9609 Q575.4688,837.3203 575.9531,836.8828 Q576.4531,836.4297 577.1563,836.1953 Q577.875,835.9609 578.75,835.9609 Q579.2031,835.9609 579.6094,836.0234 Q580.0313,836.0859 580.4375,836.1953 Q580.8594,836.2891 581.2656,836.4609 Q581.6875,836.6172 582.125,836.8203 L581.2969,838.8203 Q580.9219,838.6484 580.5938,838.5234 Q580.2813,838.3828 579.9688,838.2891 Q579.6563,838.1953 579.3594,838.1484 Q579.0781,838.1016 578.7656,838.1016 Q578.125,838.1016 577.7813,838.4453 Q577.4375,838.7891 577.4375,839.3672 Q577.4375,839.6797 577.5313,839.9141 Q577.6406,840.1484 577.8594,840.3516 Q578.0938,840.5547 578.4531,840.7734 Q578.8281,840.9922 579.3438,841.2734 Q579.9531,841.6016 580.4688,841.9453 Q581,842.2891 581.375,842.7109 Q581.7656,843.1328 581.9688,843.6641 Q582.1719,844.1953 582.1719,844.8984 Z " fill="#000000"/><text fill="#000000" font-family="sans-serif" font-size="14" font-style="italic" lengthAdjust="spacingAndGlyphs" textLength="73" x="627.5" y="844.2686">«Singleton»</text><text fill="#000000" font-family="sans-serif" font-size="14" lengthAdjust="spacingAndGlyphs" textLength="138" x="595" y="860.5654">ConfigurationManager</text><rect fill="#FEFECE" filter="url(#f1x3slk2cmu054)" height="46.5938" style="stroke:#A80036;stroke-width:1.5;" width="148" x="801" y="139.9766"/><ellipse cx="819" cy="157.9766" fill="#ADD1B2" rx="11" ry="11" style="stroke:#A80036;stroke-width:1.0;"/><path d="M823.1719,160.6016 Q823.1719,161.4141 822.8906,162.0703 Q822.625,162.7266 822.0781,163.1953 Q821.5469,163.6484 820.7656,163.8984 Q820,164.1484 819,164.1484 Q818.1094,164.1484 817.2969,163.9609 Q816.4844,163.7734 815.7813,163.4141 L815.7813,161.0234 Q816.1719,161.2109 816.5781,161.3984 Q817,161.5703 817.4063,161.7109 Q817.8281,161.8516 818.25,161.9453 Q818.6719,162.0234 819.0781,162.0234 Q819.5,162.0234 819.7969,161.9297 Q820.1094,161.8203 820.2969,161.6641 Q820.4844,161.4922 820.5625,161.2578 Q820.6563,161.0078 820.6563,160.7266 Q820.6563,160.3828 820.5156,160.1328 Q820.375,159.8672 820.1094,159.6484 Q819.8438,159.4141 819.4688,159.1953 Q819.1094,158.9766 818.6563,158.7422 Q818.2656,158.5391 817.7969,158.2578 Q817.3281,157.9766 816.9063,157.5547 Q816.4844,157.1328 816.2031,156.5391 Q815.9219,155.9453 815.9219,155.1172 Q815.9219,154.3047 816.1875,153.6641 Q816.4688,153.0234 816.9531,152.5859 Q817.4531,152.1328 818.1563,151.8984 Q818.875,151.6641 819.75,151.6641 Q820.2031,151.6641 820.6094,151.7266 Q821.0313,151.7891 821.4375,151.8984 Q821.8594,151.9922 822.2656,152.1641 Q822.6875,152.3203 823.125,152.5234 L822.2969,154.5234 Q821.9219,154.3516 821.5938,154.2266 Q821.2813,154.0859 820.9688,153.9922 Q820.6563,153.8984 820.3594,153.8516 Q820.0781,153.8047 819.7656,153.8047 Q819.125,153.8047 818.7813,154.1484 Q818.4375,154.4922 818.4375,155.0703 Q818.4375,155.3828 818.5313,155.6172 Q818.6406,155.8516 818.8594,156.0547 Q819.0938,156.2578 819.4531,156.4766 Q819.8281,156.6953 820.3438,156.9766 Q820.9531,157.3047 821.4688,157.6484 Q822,157.9922 822.375,158.4141 Q822.7656,158.8359 822.9688,159.3672 Q823.1719,159.8984 823.1719,160.6016 Z " fill="#000000"/><text fill="#000000" font-family="sans-serif" font-size="14" font-style="italic" lengthAdjust="spacingAndGlyphs" textLength="73" x="852.5" y="159.9717">«Singleton»</text><text fill="#000000" font-family="sans-serif" font-size="14" lengthAdjust="spacingAndGlyphs" textLength="106" x="836" y="176.2686">FileContentStore</text><rect fill="#FEFECE" filter="url(#f1x3slk2cmu054)" height="46.5938" style="stroke:#A80036;stroke-width:1.5;" width="148" x="801" y="824.2734"/><ellipse cx="819" cy="842.2734" fill="#ADD1B2" rx="11" ry="11" style="stroke:#A80036;stroke-width:1.0;"/><path d="M823.1719,844.8984 Q823.1719,845.7109 822.8906,846.3672 Q822.625,847.0234 822.0781,847.4922 Q821.5469,847.9453 820.7656,848.1953 Q820,848.4453 819,848.4453 Q818.1094,848.4453 817.2969,848.2578 Q816.4844,848.0703 815.7813,847.7109 L815.7813,845.3203 Q816.1719,845.5078 816.5781,845.6953 Q817,845.8672 817.4063,846.0078 Q817.8281,846.1484 818.25,846.2422 Q818.6719,846.3203 819.0781,846.3203 Q819.5,846.3203 819.7969,846.2266 Q820.1094,846.1172 820.2969,845.9609 Q820.4844,845.7891 820.5625,845.5547 Q820.6563,845.3047 820.6563,845.0234 Q820.6563,844.6797 820.5156,844.4297 Q820.375,844.1641 820.1094,843.9453 Q819.8438,843.7109 819.4688,843.4922 Q819.1094,843.2734 818.6563,843.0391 Q818.2656,842.8359 817.7969,842.5547 Q817.3281,842.2734 816.9063,841.8516 Q816.4844,841.4297 816.2031,840.8359 Q815.9219,840.2422 815.9219,839.4141 Q815.9219,838.6016 816.1875,837.9609 Q816.4688,837.3203 816.9531,836.8828 Q817.4531,836.4297 818.1563,836.1953 Q818.875,835.9609 819.75,835.9609 Q820.2031,835.9609 820.6094,836.0234 Q821.0313,836.0859 821.4375,836.1953 Q821.8594,836.2891 822.2656,836.4609 Q822.6875,836.6172 823.125,836.8203 L822.2969,838.8203 Q821.9219,838.6484 821.5938,838.5234 Q821.2813,838.3828 820.9688,838.2891 Q820.6563,838.1953 820.3594,838.1484 Q820.0781,838.1016 819.7656,838.1016 Q819.125,838.1016 818.7813,838.4453 Q818.4375,838.7891 818.4375,839.3672 Q818.4375,839.6797 818.5313,839.9141 Q818.6406,840.1484 818.8594,840.3516 Q819.0938,840.5547 819.4531,840.7734 Q819.8281,840.9922 820.3438,841.2734 Q820.9531,841.6016 821.4688,841.9453 Q822,842.2891 822.375,842.7109 Q822.7656,843.1328 822.9688,843.6641 Q823.1719,844.1953 823.1719,844.8984 Z " fill="#000000"/><text fill="#000000" font-family="sans-serif" font-size="14" font-style="italic" lengthAdjust="spacingAndGlyphs" textLength="73" x="852.5" y="844.2686">«Singleton»</text><text fill="#000000" font-family="sans-serif" font-size="14" lengthAdjust="spacingAndGlyphs" textLength="106" x="836" y="860.5654">FileContentStore</text><rect fill="#FEFECE" filter="url(#f1x3slk2cmu054)" height="30.2969" style="stroke:#A80036;stroke-width:1.5;" width="91" x="990.5" y="156.2734"/><text fill="#000000" font-family="sans-serif" font-size="14" lengthAdjust="spacingAndGlyphs" textLength="77" x="997.5" y="176.2686">VS Code API</text><rect fill="#FEFECE" filter="url(#f1x3slk2cmu054)" height="30.2969" style="stroke:#A80036;stroke-width:1.5;" width="91" x="990.5" y="824.2734"/><text fill="#000000" font-family="sans-serif" font-size="14" lengthAdjust="spacingAndGlyphs" textLength="77" x="997.5" y="844.2686">VS Code API</text><rect fill="#FFFFFF" filter="url(#f1x3slk2cmu054)" height="545.7813" style="stroke:#A80036;stroke-width:1.0;" width="10" x="141" y="270.4922"/><rect fill="#FFFFFF" filter="url(#f1x3slk2cmu054)" height="9" style="stroke:#A80036;stroke-width:1.0;" width="10" x="146" y="807.2734"/><rect fill="#FFFFFF" filter="url(#f1x3slk2cmu054)" height="87.3984" style="stroke:#A80036;stroke-width:1.0;" width="10" x="447" y="299.625"/><rect fill="#FFFFFF" filter="url(#f1x3slk2cmu054)" height="197.6641" style="stroke:#A80036;stroke-width:1.0;" width="10" x="647" y="416.1563"/><rect fill="#FFFFFF" filter="url(#f1x3slk2cmu054)" height="40.1328" style="stroke:#A80036;stroke-width:1.0;" width="10" x="652" y="453.2891"/><rect fill="#FFFFFF" filter="url(#f1x3slk2cmu054)" height="40.1328" style="stroke:#A80036;stroke-width:1.0;" width="10" x="652" y="537.5547"/><rect fill="#FFFFFF" filter="url(#f1x3slk2cmu054)" height="87.3984" style="stroke:#A80036;stroke-width:1.0;" width="10" x="872" y="642.9531"/><rect fill="#FFFFFF" filter="url(#f1x3slk2cmu054)" height="29.1328" style="stroke:#A80036;stroke-width:1.0;" width="10" x="1033" y="328.7578"/><rect fill="#FFFFFF" filter="url(#f1x3slk2cmu054)" height="29.1328" style="stroke:#A80036;stroke-width:1.0;" width="10" x="1033" y="672.0859"/><rect fill="#EEEEEE" filter="url(#f1x3slk2cmu054)" height="3" style="stroke:#EEEEEE;stroke-width:1.0;" width="1090.5" x="0" y="224.4648"/><line style="stroke:#000000;stroke-width:1.0;" x1="0" x2="1090.5" y1="224.4648" y2="224.4648"/><line style="stroke:#000000;stroke-width:1.0;" x1="0" x2="1090.5" y1="227.4648" y2="227.4648"/><rect fill="#EEEEEE" filter="url(#f1x3slk2cmu054)" height="27.7891" style="stroke:#000000;stroke-width:2.0;" width="128" x="481.25" y="211.5703"/><text fill="#000000" font-family="sans-serif" font-size="17" font-weight="bold" lengthAdjust="spacingAndGlyphs" textLength="114" x="487.25" y="231.3501">ACTIVATION =</text><line style="stroke:#A80036;stroke-width:1.0;" x1="139" x2="129" y1="270.4922" y2="266.4922"/><line style="stroke:#A80036;stroke-width:1.0;" x1="139" x2="129" y1="270.4922" y2="274.4922"/><line style="stroke:#A80036;stroke-width:1.0;" x1="0" x2="140" y1="270.4922" y2="270.4922"/><text fill="#000000" font-family="sans-serif" font-size="13" font-weight="bold" lengthAdjust="spacingAndGlyphs" textLength="7" x="7" y="265.4263">1</text><text fill="#000000" font-family="sans-serif" font-size="13" lengthAdjust="spacingAndGlyphs" textLength="96" x="18" y="265.4263">&lt;:zap:&gt; activate()</text><polygon fill="#A80036" points="435,295.625,445,299.625,435,303.625,439,299.625" style="stroke:#A80036;stroke-width:1.0;"/><line style="stroke:#A80036;stroke-width:1.0;" x1="151" x2="441" y1="299.625" y2="299.625"/><text fill="#000000" font-family="sans-serif" font-size="13" font-weight="bold" lengthAdjust="spacingAndGlyphs" textLength="7" x="158" y="294.5591">2</text><text fill="#000000" font-family="sans-serif" font-size="13" lengthAdjust="spacingAndGlyphs" textLength="266" x="169" y="294.5591">initializeOutputChannel(channelName: string)</text><polygon fill="#A80036" points="1021,324.7578,1031,328.7578,1021,332.7578,1025,328.7578" style="stroke:#A80036;stroke-width:1.0;"/><line style="stroke:#A80036;stroke-width:1.0;" x1="457" x2="1027" y1="328.7578" y2="328.7578"/><text fill="#000000" font-family="sans-serif" font-size="13" font-weight="bold" lengthAdjust="spacingAndGlyphs" textLength="7" x="464" y="323.6919">3</text><text fill="#000000" font-family="sans-serif" font-size="13" lengthAdjust="spacingAndGlyphs" textLength="305" x="475" y="323.6919">window.createOutputChannel(channelName: string)</text><polygon fill="#A80036" points="468,353.8906,458,357.8906,468,361.8906,464,357.8906" style="stroke:#A80036;stroke-width:1.0;"/><line style="stroke:#A80036;stroke-width:1.0;stroke-dasharray:2.0,2.0;" x1="462" x2="1037" y1="357.8906" y2="357.8906"/><text fill="#000000" font-family="sans-serif" font-size="13" font-weight="bold" lengthAdjust="spacingAndGlyphs" textLength="7" x="474" y="352.8247">4</text><text fill="#000000" font-family="sans-serif" font-size="13" lengthAdjust="spacingAndGlyphs" textLength="0" x="488" y="352.8247"/><polygon fill="#A80036" points="162,383.0234,152,387.0234,162,391.0234,158,387.0234" style="stroke:#A80036;stroke-width:1.0;"/><line style="stroke:#A80036;stroke-width:1.0;stroke-dasharray:2.0,2.0;" x1="156" x2="451" y1="387.0234" y2="387.0234"/><text fill="#000000" font-family="sans-serif" font-size="13" font-weight="bold" lengthAdjust="spacingAndGlyphs" textLength="7" x="168" y="381.9575">5</text><text fill="#000000" font-family="sans-serif" font-size="13" lengthAdjust="spacingAndGlyphs" textLength="0" x="182" y="381.9575"/><polygon fill="#A80036" points="635,412.1563,645,416.1563,635,420.1563,639,416.1563" style="stroke:#A80036;stroke-width:1.0;"/><line style="stroke:#A80036;stroke-width:1.0;" x1="151" x2="641" y1="416.1563" y2="416.1563"/><text fill="#000000" font-family="sans-serif" font-size="13" font-weight="bold" lengthAdjust="spacingAndGlyphs" textLength="7" x="158" y="411.0903">6</text><text fill="#000000" font-family="sans-serif" font-size="13" lengthAdjust="spacingAndGlyphs" textLength="360" x="169" y="411.0903">initializeExtensionConfiguration(rootConfigurationKey: string)</text><line style="stroke:#A80036;stroke-width:1.0;" x1="657" x2="704" y1="440.2891" y2="440.2891"/><line style="stroke:#A80036;stroke-width:1.0;" x1="704" x2="704" y1="440.2891" y2="453.2891"/><line style="stroke:#A80036;stroke-width:1.0;" x1="663" x2="704" y1="453.2891" y2="453.2891"/><polygon fill="#A80036" points="673,449.2891,663,453.2891,673,457.2891,669,453.2891" style="stroke:#A80036;stroke-width:1.0;"/><text fill="#000000" font-family="sans-serif" font-size="13" font-weight="bold" lengthAdjust="spacingAndGlyphs" textLength="7" x="669" y="435.2231">7</text><text fill="#000000" font-family="sans-serif" font-size="13" lengthAdjust="spacingAndGlyphs" textLength="115" x="680" y="435.2231">mapConfiguration()</text><line style="stroke:#A80036;stroke-width:1.0;stroke-dasharray:2.0,2.0;" x1="662" x2="704" y1="492.4219" y2="492.4219"/><line style="stroke:#A80036;stroke-width:1.0;stroke-dasharray:2.0,2.0;" x1="704" x2="704" y1="492.4219" y2="505.4219"/><line style="stroke:#A80036;stroke-width:1.0;stroke-dasharray:2.0,2.0;" x1="657" x2="704" y1="505.4219" y2="505.4219"/><polygon fill="#A80036" points="667,501.4219,657,505.4219,667,509.4219,663,505.4219" style="stroke:#A80036;stroke-width:1.0;"/><text fill="#000000" font-family="sans-serif" font-size="13" font-weight="bold" lengthAdjust="spacingAndGlyphs" textLength="7" x="669" y="487.356">8</text><text fill="#000000" font-family="sans-serif" font-size="13" lengthAdjust="spacingAndGlyphs" textLength="0" x="683" y="487.356"/><line style="stroke:#A80036;stroke-width:1.0;" x1="657" x2="704" y1="524.5547" y2="524.5547"/><line style="stroke:#A80036;stroke-width:1.0;" x1="704" x2="704" y1="524.5547" y2="537.5547"/><line style="stroke:#A80036;stroke-width:1.0;" x1="663" x2="704" y1="537.5547" y2="537.5547"/><polygon fill="#A80036" points="673,533.5547,663,537.5547,673,541.5547,669,537.5547" style="stroke:#A80036;stroke-width:1.0;"/><text fill="#000000" font-family="sans-serif" font-size="13" font-weight="bold" lengthAdjust="spacingAndGlyphs" textLength="7" x="669" y="519.4888">9</text><text fill="#000000" font-family="sans-serif" font-size="13" lengthAdjust="spacingAndGlyphs" textLength="190" x="680" y="519.4888">initializeConfigurationWatchers()</text><line style="stroke:#A80036;stroke-width:1.0;stroke-dasharray:2.0,2.0;" x1="662" x2="704" y1="576.6875" y2="576.6875"/><line style="stroke:#A80036;stroke-width:1.0;stroke-dasharray:2.0,2.0;" x1="704" x2="704" y1="576.6875" y2="589.6875"/><line style="stroke:#A80036;stroke-width:1.0;stroke-dasharray:2.0,2.0;" x1="657" x2="704" y1="589.6875" y2="589.6875"/><polygon fill="#A80036" points="667,585.6875,657,589.6875,667,593.6875,663,589.6875" style="stroke:#A80036;stroke-width:1.0;"/><text fill="#000000" font-family="sans-serif" font-size="13" font-weight="bold" lengthAdjust="spacingAndGlyphs" textLength="14" x="669" y="571.6216">10</text><text fill="#000000" font-family="sans-serif" font-size="13" lengthAdjust="spacingAndGlyphs" textLength="0" x="690" y="571.6216"/><polygon fill="#A80036" points="162,609.8203,152,613.8203,162,617.8203,158,613.8203" style="stroke:#A80036;stroke-width:1.0;"/><line style="stroke:#A80036;stroke-width:1.0;stroke-dasharray:2.0,2.0;" x1="156" x2="651" y1="613.8203" y2="613.8203"/><text fill="#000000" font-family="sans-serif" font-size="13" font-weight="bold" lengthAdjust="spacingAndGlyphs" textLength="14" x="168" y="608.7544">11</text><text fill="#000000" font-family="sans-serif" font-size="13" lengthAdjust="spacingAndGlyphs" textLength="0" x="189" y="608.7544"/><polygon fill="#A80036" points="860,638.9531,870,642.9531,860,646.9531,864,642.9531" style="stroke:#A80036;stroke-width:1.0;"/><line style="stroke:#A80036;stroke-width:1.0;" x1="151" x2="866" y1="642.9531" y2="642.9531"/><text fill="#000000" font-family="sans-serif" font-size="13" font-weight="bold" lengthAdjust="spacingAndGlyphs" textLength="14" x="158" y="637.8872">12</text><text fill="#000000" font-family="sans-serif" font-size="13" lengthAdjust="spacingAndGlyphs" textLength="152" x="176" y="637.8872">initializeFileContentStore()</text><polygon fill="#A80036" points="1021,668.0859,1031,672.0859,1021,676.0859,1025,672.0859" style="stroke:#A80036;stroke-width:1.0;"/><line style="stroke:#A80036;stroke-width:1.0;" x1="882" x2="1027" y1="672.0859" y2="672.0859"/><text fill="#000000" font-family="sans-serif" font-size="13" font-weight="bold" lengthAdjust="spacingAndGlyphs" textLength="14" x="889" y="667.02">13</text><text fill="#000000" font-family="sans-serif" font-size="13" lengthAdjust="spacingAndGlyphs" textLength="114" x="907" y="667.02">workspace.findFiles</text><polygon fill="#A80036" points="893,697.2188,883,701.2188,893,705.2188,889,701.2188" style="stroke:#A80036;stroke-width:1.0;"/><line style="stroke:#A80036;stroke-width:1.0;stroke-dasharray:2.0,2.0;" x1="887" x2="1037" y1="701.2188" y2="701.2188"/><text fill="#000000" font-family="sans-serif" font-size="13" font-weight="bold" lengthAdjust="spacingAndGlyphs" textLength="14" x="899" y="696.1528">14</text><text fill="#000000" font-family="sans-serif" font-size="13" lengthAdjust="spacingAndGlyphs" textLength="0" x="920" y="696.1528"/><polygon fill="#A80036" points="162,726.3516,152,730.3516,162,734.3516,158,730.3516" style="stroke:#A80036;stroke-width:1.0;"/><line style="stroke:#A80036;stroke-width:1.0;stroke-dasharray:2.0,2.0;" x1="156" x2="876" y1="730.3516" y2="730.3516"/><text fill="#000000" font-family="sans-serif" font-size="13" font-weight="bold" lengthAdjust="spacingAndGlyphs" textLength="14" x="168" y="725.2856">15</text><text fill="#000000" font-family="sans-serif" font-size="13" lengthAdjust="spacingAndGlyphs" textLength="0" x="189" y="725.2856"/><rect fill="#EEEEEE" filter="url(#f1x3slk2cmu054)" height="3" style="stroke:#EEEEEE;stroke-width:1.0;" width="1090.5" x="0" y="761.2461"/><line style="stroke:#000000;stroke-width:1.0;" x1="0" x2="1090.5" y1="761.2461" y2="761.2461"/><line style="stroke:#000000;stroke-width:1.0;" x1="0" x2="1090.5" y1="764.2461" y2="764.2461"/><rect fill="#EEEEEE" filter="url(#f1x3slk2cmu054)" height="27.7891" style="stroke:#000000;stroke-width:2.0;" width="150" x="470.25" y="748.3516"/><text fill="#000000" font-family="sans-serif" font-size="17" font-weight="bold" lengthAdjust="spacingAndGlyphs" textLength="136" x="476.25" y="768.1313">DEACTIVATION =</text><line style="stroke:#A80036;stroke-width:1.0;" x1="139" x2="129" y1="807.2734" y2="803.2734"/><line style="stroke:#A80036;stroke-width:1.0;" x1="139" x2="129" y1="807.2734" y2="811.2734"/><line style="stroke:#A80036;stroke-width:1.0;" x1="0" x2="140" y1="807.2734" y2="807.2734"/><text fill="#000000" font-family="sans-serif" font-size="13" font-weight="bold" lengthAdjust="spacingAndGlyphs" textLength="14" x="7" y="802.2075">16</text><text fill="#000000" font-family="sans-serif" font-size="13" lengthAdjust="spacingAndGlyphs" textLength="104" x="25" y="802.2075">&lt;:zap:&gt; dectivate()</text><rect fill="#DDDDDD" height="62.8906" rx="5" ry="5" style="stroke:#000000;stroke-width:1.0;" width="183" x="8" y="47.9531"/><rect fill="#F8F8FF" height="16.2969" style="stroke:none;stroke-width:1.0;" width="171" x="14" y="54.9531"/><text fill="#000000" font-family="sans-serif" font-size="14" lengthAdjust="spacingAndGlyphs" textLength="0" x="46" y="67.9482"/><text fill="#000000" font-family="sans-serif" font-size="14" font-weight="bold" lengthAdjust="spacingAndGlyphs" textLength="0" x="50" y="67.9482"/><text fill="#000000" font-family="sans-serif" font-size="14" font-weight="bold" lengthAdjust="spacingAndGlyphs" text-decoration="underline" textLength="131" x="50" y="67.9482">ESB Message Types</text><text fill="#000000" font-family="sans-serif" font-size="14" font-weight="bold" lengthAdjust="spacingAndGlyphs" textLength="0" x="185" y="67.9482"/><rect fill="#008000" height="16.2969" style="stroke:none;stroke-width:1.0;" width="32" x="14" y="71.25"/><text fill="#000000" font-family="sans-serif" font-size="14" lengthAdjust="spacingAndGlyphs" textLength="0" x="26" y="84.2451"/><text fill="#000000" font-family="sans-serif" font-size="14" lengthAdjust="spacingAndGlyphs" textLength="29" x="50" y="84.2451">Sync</text><rect fill="#FFA500" height="16.2969" style="stroke:none;stroke-width:1.0;" width="32" x="14" y="87.5469"/><text fill="#000000" font-family="sans-serif" font-size="14" lengthAdjust="spacingAndGlyphs" textLength="0" x="22" y="100.542"/><text fill="#000000" font-family="sans-serif" font-size="14" lengthAdjust="spacingAndGlyphs" textLength="38" x="50" y="100.542">Async</text><line style="stroke:#F8F8FF;stroke-width:1.0;" x1="14" x2="185" y1="54.9531" y2="54.9531"/><line style="stroke:#F8F8FF;stroke-width:1.0;" x1="14" x2="185" y1="71.25" y2="71.25"/><line style="stroke:#F8F8FF;stroke-width:1.0;" x1="14" x2="185" y1="87.5469" y2="87.5469"/><line style="stroke:#F8F8FF;stroke-width:1.0;" x1="14" x2="185" y1="103.8438" y2="103.8438"/><line style="stroke:#F8F8FF;stroke-width:1.0;" x1="14" x2="14" y1="54.9531" y2="103.8438"/><line style="stroke:#F8F8FF;stroke-width:1.0;" x1="46" x2="46" y1="54.9531" y2="103.8438"/><line style="stroke:#F8F8FF;stroke-width:1.0;" x1="185" x2="185" y1="54.9531" y2="103.8438"/><!--MD5=[7adf309e0cd7d74b2a70ee5d4af555e8]
@startuml Extension Initialization Sequence

' !include style/sequence.style.iuml
!include style/sequence.settings.iuml
!include style/sequence.variables.iuml


legend top left
  <#GhostWhite,#GhostWhite>|        |= __ESB Message Types__ |
  |<$syncColor>   | Sync|
  |<$asyncColor>  | Async|
endlegend

title Extension Initialization Sequence

!define X "Extension"
!define OPCMNG "OutputChannelManager"
!define CNFMNG "ConfigurationManager"
!define FCS "FileContentStore"

!define VSCAPI "VS Code API"

box "Internal Logic" $internalServicesBoxColor
    participant X
    participant OPCMNG   << (S,#ADD1B2) Singleton >>
    participant CNFMNG   << (S,#ADD1B2) Singleton >>
    participant FCS      << (S,#ADD1B2) Singleton >>
end box

box "External Logic" $externalServicesBoxColor
    participant VSCAPI
end box

=== ACTIVATION ===
->>X: <:zap:> activate()
X->OPCMNG:initializeOutputChannel(channelName: string)
OPCMNG->VSCAPI:window.createOutputChannel(channelName: string)
return
return
X->CNFMNG:initializeExtensionConfiguration(rootConfigurationKey: string)
CNFMNG->CNFMNG:mapConfiguration()
return
CNFMNG->CNFMNG:initializeConfigurationWatchers()
return
return
X->FCS:initializeFileContentStore()
FCS->VSCAPI:workspace.findFiles
return
return
=== DEACTIVATION ===
->>X: <:zap:> dectivate()


@enduml

@startuml Extension Initialization Sequence

autoactivate on
autonumber



legend top left
  <#GhostWhite,#GhostWhite>|        |= __ESB Message Types__ |
  |<#green>   | Sync|
  |<#orange>  | Async|
endlegend

title Extension Initialization Sequence



box "Internal Logic" #Gainsboro
    participant "Extension"
    participant "OutputChannelManager"   << (S,#ADD1B2) Singleton >>
    participant "ConfigurationManager"   << (S,#ADD1B2) Singleton >>
    participant "FileContentStore"      << (S,#ADD1B2) Singleton >>
end box

box "External Logic" #Lavender
    participant "VS Code API"
end box

=== ACTIVATION ===
->>"Extension": <:zap:> activate()
"Extension"->"OutputChannelManager":initializeOutputChannel(channelName: string)
"OutputChannelManager"->"VS Code API":window.createOutputChannel(channelName: string)
return
return
"Extension"->"ConfigurationManager":initializeExtensionConfiguration(rootConfigurationKey: string)
"ConfigurationManager"->"ConfigurationManager":mapConfiguration()
return
"ConfigurationManager"->"ConfigurationManager":initializeConfigurationWatchers()
return
return
"Extension"->"FileContentStore":initializeFileContentStore()
"FileContentStore"->"VS Code API":workspace.findFiles
return
return
=== DEACTIVATION ===
->>"Extension": <:zap:> dectivate()


@enduml

PlantUML version 1.2020.23(Sun Dec 13 19:14:58 GMT 2020)
(GPL source distribution)
Java Runtime: OpenJDK Runtime Environment
JVM: OpenJDK 64-Bit Server VM
Default Encoding: UTF-8
Language: en
Country: US
--></g></svg>