<?xml version="1.0" encoding="UTF-8" standalone="no"?><svg xmlns="http://www.w3.org/2000/svg" xmlns:xlink="http://www.w3.org/1999/xlink" contentScriptType="application/ecmascript" contentStyleType="text/css" height="1879.1667px" preserveAspectRatio="none" style="width:2687px;height:1879px;background:#00000000;" version="1.1" viewBox="0 0 2687 1879" width="2687.5px" zoomAndPan="magnify"><defs/><g><rect height="45.0846" rx="4.1667" ry="4.1667" style="stroke:#BABDBF;stroke-width:1.0416666666666667;fill:none;" width="431.25" x="1123.9583" y="14.5833"/><text fill="#2FA4E7" font-family="Calibri" font-size="20.8333" lengthAdjust="spacingAndGlyphs" textLength="404.1667" x="1137.5" y="44.338">Extension Initialization Sequence - Updated</text><rect fill="#DCDCDC" height="1655.8268" rx="4.1667" ry="4.1667" style="stroke:#868E96;stroke-width:1.0416666666666667;" width="2157.8125" x="163.0208" y="217.8385"/><text fill="#343A40" font-family="Calibri" font-size="20.8333" font-weight="bold" lengthAdjust="spacingAndGlyphs" textLength="142.7083" x="1170.5729" y="242.3848">Internal Logic</text><rect fill="#E6E6FA" height="1655.8268" rx="4.1667" ry="4.1667" style="stroke:#868E96;stroke-width:1.0416666666666667;" width="231.25" x="2406.25" y="217.8385"/><text fill="#343A40" font-family="Calibri" font-size="20.8333" font-weight="bold" lengthAdjust="spacingAndGlyphs" textLength="143.75" x="2450" y="242.3848">External Logic</text><rect height="1158.8216" style="stroke:#333333;stroke-width:1.0416666666666667;fill:none;" width="10.4167" x="261.4583" y="451.237"/><rect height="49.2513" style="stroke:#333333;stroke-width:1.0416666666666667;fill:none;" width="10.4167" x="261.4583" y="1727.9948"/><rect height="147.7539" style="stroke:#333333;stroke-width:1.0416666666666667;fill:none;" width="10.4167" x="758.3333" y="500.4883"/><rect height="300.4232" style="stroke:#333333;stroke-width:1.0416666666666667;fill:none;" width="10.4167" x="1129.1667" y="697.4935"/><rect height="60.7096" style="stroke:#333333;stroke-width:1.0416666666666667;fill:none;" width="10.4167" x="1134.375" y="755.0781"/><rect height="60.7096" style="stroke:#333333;stroke-width:1.0416666666666667;fill:none;" width="10.4167" x="1134.375" y="880.6641"/><rect height="147.7539" style="stroke:#333333;stroke-width:1.0416666666666667;fill:none;" width="10.4167" x="1496.875" y="1145.6706"/><rect height="218.1315" style="stroke:#333333;stroke-width:1.0416666666666667;fill:none;" width="10.4167" x="1820.3125" y="1342.6758"/><rect height="49.2513" style="stroke:#333333;stroke-width:1.0416666666666667;fill:none;" width="10.4167" x="2154.1667" y="1047.168"/><rect height="49.2513" style="stroke:#333333;stroke-width:1.0416666666666667;fill:none;" width="10.4167" x="2154.1667" y="1455.013"/><rect height="49.2513" style="stroke:#333333;stroke-width:1.0416666666666667;fill:none;" width="10.4167" x="2516.6667" y="549.7396"/><rect height="49.2513" style="stroke:#333333;stroke-width:1.0416666666666667;fill:none;" width="10.4167" x="2516.6667" y="1194.9219"/><line style="stroke:#333333;stroke-width:2.0833333333333335;fill:none;stroke-dasharray:5.0,5.0;" x1="266.1458" x2="266.1458" y1="331.2174" y2="1795.9961"/><line style="stroke:#333333;stroke-width:2.0833333333333335;fill:none;stroke-dasharray:5.0,5.0;" x1="763.5417" x2="763.5417" y1="331.2174" y2="1795.9961"/><line style="stroke:#333333;stroke-width:2.0833333333333335;fill:none;stroke-dasharray:5.0,5.0;" x1="1134.375" x2="1134.375" y1="331.2174" y2="1795.9961"/><line style="stroke:#333333;stroke-width:2.0833333333333335;fill:none;stroke-dasharray:5.0,5.0;" x1="1502.0833" x2="1502.0833" y1="331.2174" y2="1795.9961"/><line style="stroke:#333333;stroke-width:2.0833333333333335;fill:none;stroke-dasharray:5.0,5.0;" x1="1825" x2="1825" y1="331.2174" y2="1795.9961"/><line style="stroke:#333333;stroke-width:2.0833333333333335;fill:none;stroke-dasharray:5.0,5.0;" x1="2159.375" x2="2159.375" y1="331.2174" y2="1795.9961"/><line style="stroke:#333333;stroke-width:2.0833333333333335;fill:none;stroke-dasharray:5.0,5.0;" x1="2521.875" x2="2521.875" y1="331.2174" y2="1795.9961"/><rect height="49.2513" rx="4.1667" ry="4.1667" style="stroke:#2FA4E7;stroke-width:1.5625;fill:none;" width="115.625" x="208.8542" y="280.9245"/><text fill="#2FA4E7" font-family="Calibri" font-size="20.8333" lengthAdjust="spacingAndGlyphs" textLength="90.625" x="221.3542" y="312.7625">Extension</text><rect height="49.2513" rx="4.1667" ry="4.1667" style="stroke:#2FA4E7;stroke-width:1.5625;fill:none;" width="115.625" x="208.8542" y="1794.9544"/><text fill="#2FA4E7" font-family="Calibri" font-size="20.8333" lengthAdjust="spacingAndGlyphs" textLength="90.625" x="221.3542" y="1826.7924">Extension</text><rect height="73.5026" rx="4.1667" ry="4.1667" style="stroke:#2FA4E7;stroke-width:1.5625;fill:none;" width="285.4167" x="620.8333" y="256.6732"/><ellipse cx="640.625" cy="276.4648" fill="#ADD1B2" rx="12.5" ry="12.5" style="stroke:#2FA4E7;stroke-width:1.0416666666666667;"/><path d="M645.4427,279.6224 Q645.4427,280.6152 645.1009,281.429 Q644.7591,282.2266 644.0918,282.7962 Q643.4408,283.3496 642.4805,283.6589 Q641.5365,283.9681 640.3158,283.9681 Q639.2253,283.9681 638.2161,283.7402 Q637.2233,283.5124 636.377,283.0566 L636.377,280.127 Q636.8652,280.3711 637.3535,280.599 Q637.8581,280.8105 638.3626,280.9896 Q638.8835,281.1523 639.388,281.25 Q639.9089,281.3477 640.4297,281.3477 Q640.9342,281.3477 641.3086,281.2337 Q641.6829,281.1198 641.9108,280.9082 Q642.1387,280.6966 642.2363,280.4199 Q642.3503,280.127 642.3503,279.7852 Q642.3503,279.362 642.1712,279.0527 Q641.9922,278.7272 641.6667,278.4505 Q641.3574,278.1576 640.9017,277.8971 Q640.446,277.6367 639.8926,277.3438 Q639.4206,277.0996 638.8346,276.7578 Q638.265,276.3997 637.7441,275.8952 Q637.2396,275.3743 636.8815,274.6582 Q636.5397,273.9258 636.5397,272.9004 Q636.5397,271.9076 636.8652,271.1263 Q637.207,270.3288 637.8092,269.7917 Q638.4277,269.2383 639.2904,268.9616 Q640.1693,268.6686 641.2435,268.6686 Q641.7806,268.6686 642.2852,268.75 Q642.806,268.8151 643.3105,268.9453 Q643.8151,269.0755 644.3197,269.2708 Q644.8405,269.4661 645.3776,269.7103 L644.3522,272.168 Q643.8965,271.9564 643.5059,271.7936 Q643.1152,271.6309 642.7246,271.5169 Q642.3503,271.403 641.9922,271.3542 Q641.6341,271.2891 641.2598,271.2891 Q640.4785,271.2891 640.0553,271.7122 Q639.6322,272.1354 639.6322,272.8353 Q639.6322,273.2096 639.7461,273.5026 Q639.8763,273.7956 640.153,274.056 Q640.446,274.3001 640.8854,274.5768 Q641.3249,274.8372 641.9596,275.1628 Q642.7246,275.5697 643.3594,275.9928 Q644.0104,276.416 644.4661,276.9368 Q644.9219,277.4414 645.1823,278.0924 Q645.4427,278.7435 645.4427,279.6224 Z " fill="#2FA4E7"/><text fill="#2FA4E7" font-family="Calibri" font-size="20.8333" font-style="italic" lengthAdjust="spacingAndGlyphs" textLength="108.3333" x="725" y="288.5111">«Singleton»</text><text fill="#2FA4E7" font-family="Calibri" font-size="20.8333" lengthAdjust="spacingAndGlyphs" textLength="229.1667" x="664.5833" y="312.7625">OutputChannelManager</text><rect height="73.5026" rx="4.1667" ry="4.1667" style="stroke:#2FA4E7;stroke-width:1.5625;fill:none;" width="285.4167" x="620.8333" y="1794.9544"/><ellipse cx="640.625" cy="1814.7461" fill="#ADD1B2" rx="12.5" ry="12.5" style="stroke:#2FA4E7;stroke-width:1.0416666666666667;"/><path d="M645.4427,1817.9036 Q645.4427,1818.8965 645.1009,1819.7103 Q644.7591,1820.5078 644.0918,1821.0775 Q643.4408,1821.6309 642.4805,1821.9401 Q641.5365,1822.2493 640.3158,1822.2493 Q639.2253,1822.2493 638.2161,1822.0215 Q637.2233,1821.7936 636.377,1821.3379 L636.377,1818.4082 Q636.8652,1818.6523 637.3535,1818.8802 Q637.8581,1819.0918 638.3626,1819.2708 Q638.8835,1819.4336 639.388,1819.5313 Q639.9089,1819.6289 640.4297,1819.6289 Q640.9342,1819.6289 641.3086,1819.515 Q641.6829,1819.401 641.9108,1819.1895 Q642.1387,1818.9779 642.2363,1818.7012 Q642.3503,1818.4082 642.3503,1818.0664 Q642.3503,1817.6432 642.1712,1817.334 Q641.9922,1817.0085 641.6667,1816.7318 Q641.3574,1816.4388 640.9017,1816.1784 Q640.446,1815.918 639.8926,1815.625 Q639.4206,1815.3809 638.8346,1815.0391 Q638.265,1814.681 637.7441,1814.1764 Q637.2396,1813.6556 636.8815,1812.9395 Q636.5397,1812.207 636.5397,1811.1816 Q636.5397,1810.1888 636.8652,1809.4076 Q637.207,1808.61 637.8092,1808.0729 Q638.4277,1807.5195 639.2904,1807.2428 Q640.1693,1806.9499 641.2435,1806.9499 Q641.7806,1806.9499 642.2852,1807.0313 Q642.806,1807.0964 643.3105,1807.2266 Q643.8151,1807.3568 644.3197,1807.5521 Q644.8405,1807.7474 645.3776,1807.9915 L644.3522,1810.4492 Q643.8965,1810.2376 643.5059,1810.0749 Q643.1152,1809.9121 642.7246,1809.7982 Q642.3503,1809.6842 641.9922,1809.6354 Q641.6341,1809.5703 641.2598,1809.5703 Q640.4785,1809.5703 640.0553,1809.9935 Q639.6322,1810.4167 639.6322,1811.1165 Q639.6322,1811.4909 639.7461,1811.7839 Q639.8763,1812.0768 640.153,1812.3372 Q640.446,1812.5814 640.8854,1812.8581 Q641.3249,1813.1185 641.9596,1813.444 Q642.7246,1813.8509 643.3594,1814.2741 Q644.0104,1814.6973 644.4661,1815.2181 Q644.9219,1815.7227 645.1823,1816.3737 Q645.4427,1817.0247 645.4427,1817.9036 Z " fill="#2FA4E7"/><text fill="#2FA4E7" font-family="Calibri" font-size="20.8333" font-style="italic" lengthAdjust="spacingAndGlyphs" textLength="108.3333" x="725" y="1826.7924">«Singleton»</text><text fill="#2FA4E7" font-family="Calibri" font-size="20.8333" lengthAdjust="spacingAndGlyphs" textLength="229.1667" x="664.5833" y="1851.0437">OutputChannelManager</text><rect height="73.5026" rx="4.1667" ry="4.1667" style="stroke:#2FA4E7;stroke-width:1.5625;fill:none;" width="268.75" x="1000" y="256.6732"/><ellipse cx="1019.7917" cy="276.4648" fill="#ADD1B2" rx="12.5" ry="12.5" style="stroke:#2FA4E7;stroke-width:1.0416666666666667;"/><path d="M1024.6094,279.6224 Q1024.6094,280.6152 1024.2676,281.429 Q1023.9258,282.2266 1023.2585,282.7962 Q1022.6074,283.3496 1021.6471,283.6589 Q1020.7031,283.9681 1019.4824,283.9681 Q1018.3919,283.9681 1017.3828,283.7402 Q1016.39,283.5124 1015.5436,283.0566 L1015.5436,280.127 Q1016.0319,280.3711 1016.5202,280.599 Q1017.0247,280.8105 1017.5293,280.9896 Q1018.0501,281.1523 1018.5547,281.25 Q1019.0755,281.3477 1019.5964,281.3477 Q1020.1009,281.3477 1020.4753,281.2337 Q1020.8496,281.1198 1021.0775,280.9082 Q1021.3053,280.6966 1021.403,280.4199 Q1021.5169,280.127 1021.5169,279.7852 Q1021.5169,279.362 1021.3379,279.0527 Q1021.1589,278.7272 1020.8333,278.4505 Q1020.5241,278.1576 1020.0684,277.8971 Q1019.6126,277.6367 1019.0592,277.3438 Q1018.5872,277.0996 1018.0013,276.7578 Q1017.4316,276.3997 1016.9108,275.8952 Q1016.4063,275.3743 1016.0482,274.6582 Q1015.7064,273.9258 1015.7064,272.9004 Q1015.7064,271.9076 1016.0319,271.1263 Q1016.3737,270.3288 1016.9759,269.7917 Q1017.5944,269.2383 1018.457,268.9616 Q1019.3359,268.6686 1020.4102,268.6686 Q1020.9473,268.6686 1021.4518,268.75 Q1021.9727,268.8151 1022.4772,268.9453 Q1022.9818,269.0755 1023.4863,269.2708 Q1024.0072,269.4661 1024.5443,269.7103 L1023.5189,272.168 Q1023.0632,271.9564 1022.6725,271.7936 Q1022.2819,271.6309 1021.8913,271.5169 Q1021.5169,271.403 1021.1589,271.3542 Q1020.8008,271.2891 1020.4264,271.2891 Q1019.6452,271.2891 1019.222,271.7122 Q1018.7988,272.1354 1018.7988,272.8353 Q1018.7988,273.2096 1018.9128,273.5026 Q1019.043,273.7956 1019.3197,274.056 Q1019.6126,274.3001 1020.0521,274.5768 Q1020.4915,274.8372 1021.1263,275.1628 Q1021.8913,275.5697 1022.526,275.9928 Q1023.1771,276.416 1023.6328,276.9368 Q1024.0885,277.4414 1024.349,278.0924 Q1024.6094,278.7435 1024.6094,279.6224 Z " fill="#2FA4E7"/><text fill="#2FA4E7" font-family="Calibri" font-size="20.8333" font-style="italic" lengthAdjust="spacingAndGlyphs" textLength="108.3333" x="1095.8333" y="288.5111">«Singleton»</text><text fill="#2FA4E7" font-family="Calibri" font-size="20.8333" lengthAdjust="spacingAndGlyphs" textLength="212.5" x="1043.75" y="312.7625">ConfigurationManager</text><rect height="73.5026" rx="4.1667" ry="4.1667" style="stroke:#2FA4E7;stroke-width:1.5625;fill:none;" width="268.75" x="1000" y="1794.9544"/><ellipse cx="1019.7917" cy="1814.7461" fill="#ADD1B2" rx="12.5" ry="12.5" style="stroke:#2FA4E7;stroke-width:1.0416666666666667;"/><path d="M1024.6094,1817.9036 Q1024.6094,1818.8965 1024.2676,1819.7103 Q1023.9258,1820.5078 1023.2585,1821.0775 Q1022.6074,1821.6309 1021.6471,1821.9401 Q1020.7031,1822.2493 1019.4824,1822.2493 Q1018.3919,1822.2493 1017.3828,1822.0215 Q1016.39,1821.7936 1015.5436,1821.3379 L1015.5436,1818.4082 Q1016.0319,1818.6523 1016.5202,1818.8802 Q1017.0247,1819.0918 1017.5293,1819.2708 Q1018.0501,1819.4336 1018.5547,1819.5313 Q1019.0755,1819.6289 1019.5964,1819.6289 Q1020.1009,1819.6289 1020.4753,1819.515 Q1020.8496,1819.401 1021.0775,1819.1895 Q1021.3053,1818.9779 1021.403,1818.7012 Q1021.5169,1818.4082 1021.5169,1818.0664 Q1021.5169,1817.6432 1021.3379,1817.334 Q1021.1589,1817.0085 1020.8333,1816.7318 Q1020.5241,1816.4388 1020.0684,1816.1784 Q1019.6126,1815.918 1019.0592,1815.625 Q1018.5872,1815.3809 1018.0013,1815.0391 Q1017.4316,1814.681 1016.9108,1814.1764 Q1016.4063,1813.6556 1016.0482,1812.9395 Q1015.7064,1812.207 1015.7064,1811.1816 Q1015.7064,1810.1888 1016.0319,1809.4076 Q1016.3737,1808.61 1016.9759,1808.0729 Q1017.5944,1807.5195 1018.457,1807.2428 Q1019.3359,1806.9499 1020.4102,1806.9499 Q1020.9473,1806.9499 1021.4518,1807.0313 Q1021.9727,1807.0964 1022.4772,1807.2266 Q1022.9818,1807.3568 1023.4863,1807.5521 Q1024.0072,1807.7474 1024.5443,1807.9915 L1023.5189,1810.4492 Q1023.0632,1810.2376 1022.6725,1810.0749 Q1022.2819,1809.9121 1021.8913,1809.7982 Q1021.5169,1809.6842 1021.1589,1809.6354 Q1020.8008,1809.5703 1020.4264,1809.5703 Q1019.6452,1809.5703 1019.222,1809.9935 Q1018.7988,1810.4167 1018.7988,1811.1165 Q1018.7988,1811.4909 1018.9128,1811.7839 Q1019.043,1812.0768 1019.3197,1812.3372 Q1019.6126,1812.5814 1020.0521,1812.8581 Q1020.4915,1813.1185 1021.1263,1813.444 Q1021.8913,1813.8509 1022.526,1814.2741 Q1023.1771,1814.6973 1023.6328,1815.2181 Q1024.0885,1815.7227 1024.349,1816.3737 Q1024.6094,1817.0247 1024.6094,1817.9036 Z " fill="#2FA4E7"/><text fill="#2FA4E7" font-family="Calibri" font-size="20.8333" font-style="italic" lengthAdjust="spacingAndGlyphs" textLength="108.3333" x="1095.8333" y="1826.7924">«Singleton»</text><text fill="#2FA4E7" font-family="Calibri" font-size="20.8333" lengthAdjust="spacingAndGlyphs" textLength="212.5" x="1043.75" y="1851.0437">ConfigurationManager</text><rect height="73.5026" rx="4.1667" ry="4.1667" style="stroke:#2FA4E7;stroke-width:1.5625;fill:none;" width="210.4167" x="1396.875" y="256.6732"/><ellipse cx="1416.6667" cy="276.4648" fill="#ADD1B2" rx="12.5" ry="12.5" style="stroke:#2FA4E7;stroke-width:1.0416666666666667;"/><path d="M1421.4844,279.6224 Q1421.4844,280.6152 1421.1426,281.429 Q1420.8008,282.2266 1420.1335,282.7962 Q1419.4824,283.3496 1418.5221,283.6589 Q1417.5781,283.9681 1416.3574,283.9681 Q1415.2669,283.9681 1414.2578,283.7402 Q1413.265,283.5124 1412.4186,283.0566 L1412.4186,280.127 Q1412.9069,280.3711 1413.3952,280.599 Q1413.8997,280.8105 1414.4043,280.9896 Q1414.9251,281.1523 1415.4297,281.25 Q1415.9505,281.3477 1416.4714,281.3477 Q1416.9759,281.3477 1417.3503,281.2337 Q1417.7246,281.1198 1417.9525,280.9082 Q1418.1803,280.6966 1418.278,280.4199 Q1418.3919,280.127 1418.3919,279.7852 Q1418.3919,279.362 1418.2129,279.0527 Q1418.0339,278.7272 1417.7083,278.4505 Q1417.3991,278.1576 1416.9434,277.8971 Q1416.4876,277.6367 1415.9342,277.3438 Q1415.4622,277.0996 1414.8763,276.7578 Q1414.3066,276.3997 1413.7858,275.8952 Q1413.2813,275.3743 1412.9232,274.6582 Q1412.5814,273.9258 1412.5814,272.9004 Q1412.5814,271.9076 1412.9069,271.1263 Q1413.2487,270.3288 1413.8509,269.7917 Q1414.4694,269.2383 1415.332,268.9616 Q1416.2109,268.6686 1417.2852,268.6686 Q1417.8223,268.6686 1418.3268,268.75 Q1418.8477,268.8151 1419.3522,268.9453 Q1419.8568,269.0755 1420.3613,269.2708 Q1420.8822,269.4661 1421.4193,269.7103 L1420.3939,272.168 Q1419.9382,271.9564 1419.5475,271.7936 Q1419.1569,271.6309 1418.7663,271.5169 Q1418.3919,271.403 1418.0339,271.3542 Q1417.6758,271.2891 1417.3014,271.2891 Q1416.5202,271.2891 1416.097,271.7122 Q1415.6738,272.1354 1415.6738,272.8353 Q1415.6738,273.2096 1415.7878,273.5026 Q1415.918,273.7956 1416.1947,274.056 Q1416.4876,274.3001 1416.9271,274.5768 Q1417.3665,274.8372 1418.0013,275.1628 Q1418.7663,275.5697 1419.401,275.9928 Q1420.0521,276.416 1420.5078,276.9368 Q1420.9635,277.4414 1421.224,278.0924 Q1421.4844,278.7435 1421.4844,279.6224 Z " fill="#2FA4E7"/><text fill="#2FA4E7" font-family="Calibri" font-size="20.8333" font-style="italic" lengthAdjust="spacingAndGlyphs" textLength="108.3333" x="1463.5417" y="288.5111">«Singleton»</text><text fill="#2FA4E7" font-family="Calibri" font-size="20.8333" lengthAdjust="spacingAndGlyphs" textLength="154.1667" x="1440.625" y="312.7625">FileContentStore</text><rect height="73.5026" rx="4.1667" ry="4.1667" style="stroke:#2FA4E7;stroke-width:1.5625;fill:none;" width="210.4167" x="1396.875" y="1794.9544"/><ellipse cx="1416.6667" cy="1814.7461" fill="#ADD1B2" rx="12.5" ry="12.5" style="stroke:#2FA4E7;stroke-width:1.0416666666666667;"/><path d="M1421.4844,1817.9036 Q1421.4844,1818.8965 1421.1426,1819.7103 Q1420.8008,1820.5078 1420.1335,1821.0775 Q1419.4824,1821.6309 1418.5221,1821.9401 Q1417.5781,1822.2493 1416.3574,1822.2493 Q1415.2669,1822.2493 1414.2578,1822.0215 Q1413.265,1821.7936 1412.4186,1821.3379 L1412.4186,1818.4082 Q1412.9069,1818.6523 1413.3952,1818.8802 Q1413.8997,1819.0918 1414.4043,1819.2708 Q1414.9251,1819.4336 1415.4297,1819.5313 Q1415.9505,1819.6289 1416.4714,1819.6289 Q1416.9759,1819.6289 1417.3503,1819.515 Q1417.7246,1819.401 1417.9525,1819.1895 Q1418.1803,1818.9779 1418.278,1818.7012 Q1418.3919,1818.4082 1418.3919,1818.0664 Q1418.3919,1817.6432 1418.2129,1817.334 Q1418.0339,1817.0085 1417.7083,1816.7318 Q1417.3991,1816.4388 1416.9434,1816.1784 Q1416.4876,1815.918 1415.9342,1815.625 Q1415.4622,1815.3809 1414.8763,1815.0391 Q1414.3066,1814.681 1413.7858,1814.1764 Q1413.2813,1813.6556 1412.9232,1812.9395 Q1412.5814,1812.207 1412.5814,1811.1816 Q1412.5814,1810.1888 1412.9069,1809.4076 Q1413.2487,1808.61 1413.8509,1808.0729 Q1414.4694,1807.5195 1415.332,1807.2428 Q1416.2109,1806.9499 1417.2852,1806.9499 Q1417.8223,1806.9499 1418.3268,1807.0313 Q1418.8477,1807.0964 1419.3522,1807.2266 Q1419.8568,1807.3568 1420.3613,1807.5521 Q1420.8822,1807.7474 1421.4193,1807.9915 L1420.3939,1810.4492 Q1419.9382,1810.2376 1419.5475,1810.0749 Q1419.1569,1809.9121 1418.7663,1809.7982 Q1418.3919,1809.6842 1418.0339,1809.6354 Q1417.6758,1809.5703 1417.3014,1809.5703 Q1416.5202,1809.5703 1416.097,1809.9935 Q1415.6738,1810.4167 1415.6738,1811.1165 Q1415.6738,1811.4909 1415.7878,1811.7839 Q1415.918,1812.0768 1416.1947,1812.3372 Q1416.4876,1812.5814 1416.9271,1812.8581 Q1417.3665,1813.1185 1418.0013,1813.444 Q1418.7663,1813.8509 1419.401,1814.2741 Q1420.0521,1814.6973 1420.5078,1815.2181 Q1420.9635,1815.7227 1421.224,1816.3737 Q1421.4844,1817.0247 1421.4844,1817.9036 Z " fill="#2FA4E7"/><text fill="#2FA4E7" font-family="Calibri" font-size="20.8333" font-style="italic" lengthAdjust="spacingAndGlyphs" textLength="108.3333" x="1463.5417" y="1826.7924">«Singleton»</text><text fill="#2FA4E7" font-family="Calibri" font-size="20.8333" lengthAdjust="spacingAndGlyphs" textLength="154.1667" x="1440.625" y="1851.0437">FileContentStore</text><rect height="73.5026" rx="4.1667" ry="4.1667" style="stroke:#2FA4E7;stroke-width:1.5625;fill:none;" width="248.9583" x="1701.0417" y="256.6732"/><ellipse cx="1720.8333" cy="276.4648" fill="#ADD1B2" rx="12.5" ry="12.5" style="stroke:#2FA4E7;stroke-width:1.0416666666666667;"/><path d="M1725.651,279.6224 Q1725.651,280.6152 1725.3092,281.429 Q1724.9674,282.2266 1724.3001,282.7962 Q1723.6491,283.3496 1722.6888,283.6589 Q1721.7448,283.9681 1720.5241,283.9681 Q1719.4336,283.9681 1718.4245,283.7402 Q1717.4316,283.5124 1716.5853,283.0566 L1716.5853,280.127 Q1717.0736,280.3711 1717.5618,280.599 Q1718.0664,280.8105 1718.571,280.9896 Q1719.0918,281.1523 1719.5964,281.25 Q1720.1172,281.3477 1720.638,281.3477 Q1721.1426,281.3477 1721.5169,281.2337 Q1721.8913,281.1198 1722.1191,280.9082 Q1722.347,280.6966 1722.4447,280.4199 Q1722.5586,280.127 1722.5586,279.7852 Q1722.5586,279.362 1722.3796,279.0527 Q1722.2005,278.7272 1721.875,278.4505 Q1721.5658,278.1576 1721.11,277.8971 Q1720.6543,277.6367 1720.1009,277.3438 Q1719.6289,277.0996 1719.043,276.7578 Q1718.4733,276.3997 1717.9525,275.8952 Q1717.4479,275.3743 1717.0898,274.6582 Q1716.748,273.9258 1716.748,272.9004 Q1716.748,271.9076 1717.0736,271.1263 Q1717.4154,270.3288 1718.0176,269.7917 Q1718.6361,269.2383 1719.4987,268.9616 Q1720.3776,268.6686 1721.4518,268.6686 Q1721.9889,268.6686 1722.4935,268.75 Q1723.0143,268.8151 1723.5189,268.9453 Q1724.0234,269.0755 1724.528,269.2708 Q1725.0488,269.4661 1725.5859,269.7103 L1724.5605,272.168 Q1724.1048,271.9564 1723.7142,271.7936 Q1723.3236,271.6309 1722.9329,271.5169 Q1722.5586,271.403 1722.2005,271.3542 Q1721.8424,271.2891 1721.4681,271.2891 Q1720.6868,271.2891 1720.2637,271.7122 Q1719.8405,272.1354 1719.8405,272.8353 Q1719.8405,273.2096 1719.9544,273.5026 Q1720.0846,273.7956 1720.3613,274.056 Q1720.6543,274.3001 1721.0938,274.5768 Q1721.5332,274.8372 1722.168,275.1628 Q1722.9329,275.5697 1723.5677,275.9928 Q1724.2188,276.416 1724.6745,276.9368 Q1725.1302,277.4414 1725.3906,278.0924 Q1725.651,278.7435 1725.651,279.6224 Z " fill="#2FA4E7"/><text fill="#2FA4E7" font-family="Calibri" font-size="20.8333" font-style="italic" lengthAdjust="spacingAndGlyphs" textLength="108.3333" x="1786.9792" y="288.5111">«Singleton»</text><text fill="#2FA4E7" font-family="Calibri" font-size="20.8333" lengthAdjust="spacingAndGlyphs" textLength="192.7083" x="1744.7917" y="312.7625">FileWatcherManager</text><rect height="73.5026" rx="4.1667" ry="4.1667" style="stroke:#2FA4E7;stroke-width:1.5625;fill:none;" width="248.9583" x="1701.0417" y="1794.9544"/><ellipse cx="1720.8333" cy="1814.7461" fill="#ADD1B2" rx="12.5" ry="12.5" style="stroke:#2FA4E7;stroke-width:1.0416666666666667;"/><path d="M1725.651,1817.9036 Q1725.651,1818.8965 1725.3092,1819.7103 Q1724.9674,1820.5078 1724.3001,1821.0775 Q1723.6491,1821.6309 1722.6888,1821.9401 Q1721.7448,1822.2493 1720.5241,1822.2493 Q1719.4336,1822.2493 1718.4245,1822.0215 Q1717.4316,1821.7936 1716.5853,1821.3379 L1716.5853,1818.4082 Q1717.0736,1818.6523 1717.5618,1818.8802 Q1718.0664,1819.0918 1718.571,1819.2708 Q1719.0918,1819.4336 1719.5964,1819.5313 Q1720.1172,1819.6289 1720.638,1819.6289 Q1721.1426,1819.6289 1721.5169,1819.515 Q1721.8913,1819.401 1722.1191,1819.1895 Q1722.347,1818.9779 1722.4447,1818.7012 Q1722.5586,1818.4082 1722.5586,1818.0664 Q1722.5586,1817.6432 1722.3796,1817.334 Q1722.2005,1817.0085 1721.875,1816.7318 Q1721.5658,1816.4388 1721.11,1816.1784 Q1720.6543,1815.918 1720.1009,1815.625 Q1719.6289,1815.3809 1719.043,1815.0391 Q1718.4733,1814.681 1717.9525,1814.1764 Q1717.4479,1813.6556 1717.0898,1812.9395 Q1716.748,1812.207 1716.748,1811.1816 Q1716.748,1810.1888 1717.0736,1809.4076 Q1717.4154,1808.61 1718.0176,1808.0729 Q1718.6361,1807.5195 1719.4987,1807.2428 Q1720.3776,1806.9499 1721.4518,1806.9499 Q1721.9889,1806.9499 1722.4935,1807.0313 Q1723.0143,1807.0964 1723.5189,1807.2266 Q1724.0234,1807.3568 1724.528,1807.5521 Q1725.0488,1807.7474 1725.5859,1807.9915 L1724.5605,1810.4492 Q1724.1048,1810.2376 1723.7142,1810.0749 Q1723.3236,1809.9121 1722.9329,1809.7982 Q1722.5586,1809.6842 1722.2005,1809.6354 Q1721.8424,1809.5703 1721.4681,1809.5703 Q1720.6868,1809.5703 1720.2637,1809.9935 Q1719.8405,1810.4167 1719.8405,1811.1165 Q1719.8405,1811.4909 1719.9544,1811.7839 Q1720.0846,1812.0768 1720.3613,1812.3372 Q1720.6543,1812.5814 1721.0938,1812.8581 Q1721.5332,1813.1185 1722.168,1813.444 Q1722.9329,1813.8509 1723.5677,1814.2741 Q1724.2188,1814.6973 1724.6745,1815.2181 Q1725.1302,1815.7227 1725.3906,1816.3737 Q1725.651,1817.0247 1725.651,1817.9036 Z " fill="#2FA4E7"/><text fill="#2FA4E7" font-family="Calibri" font-size="20.8333" font-style="italic" lengthAdjust="spacingAndGlyphs" textLength="108.3333" x="1786.9792" y="1826.7924">«Singleton»</text><text fill="#2FA4E7" font-family="Calibri" font-size="20.8333" lengthAdjust="spacingAndGlyphs" textLength="192.7083" x="1744.7917" y="1851.0437">FileWatcherManager</text><rect height="73.5026" rx="4.1667" ry="4.1667" style="stroke:#2FA4E7;stroke-width:1.5625;fill:none;" width="231.25" x="2043.75" y="256.6732"/><ellipse cx="2063.5417" cy="276.4648" fill="#ADD1B2" rx="12.5" ry="12.5" style="stroke:#2FA4E7;stroke-width:1.0416666666666667;"/><path d="M2068.3594,279.6224 Q2068.3594,280.6152 2068.0176,281.429 Q2067.6758,282.2266 2067.0085,282.7962 Q2066.3574,283.3496 2065.3971,283.6589 Q2064.4531,283.9681 2063.2324,283.9681 Q2062.1419,283.9681 2061.1328,283.7402 Q2060.14,283.5124 2059.2936,283.0566 L2059.2936,280.127 Q2059.7819,280.3711 2060.2702,280.599 Q2060.7747,280.8105 2061.2793,280.9896 Q2061.8001,281.1523 2062.3047,281.25 Q2062.8255,281.3477 2063.3464,281.3477 Q2063.8509,281.3477 2064.2253,281.2337 Q2064.5996,281.1198 2064.8275,280.9082 Q2065.0553,280.6966 2065.153,280.4199 Q2065.2669,280.127 2065.2669,279.7852 Q2065.2669,279.362 2065.0879,279.0527 Q2064.9089,278.7272 2064.5833,278.4505 Q2064.2741,278.1576 2063.8184,277.8971 Q2063.3626,277.6367 2062.8092,277.3438 Q2062.3372,277.0996 2061.7513,276.7578 Q2061.1816,276.3997 2060.6608,275.8952 Q2060.1563,275.3743 2059.7982,274.6582 Q2059.4564,273.9258 2059.4564,272.9004 Q2059.4564,271.9076 2059.7819,271.1263 Q2060.1237,270.3288 2060.7259,269.7917 Q2061.3444,269.2383 2062.207,268.9616 Q2063.0859,268.6686 2064.1602,268.6686 Q2064.6973,268.6686 2065.2018,268.75 Q2065.7227,268.8151 2066.2272,268.9453 Q2066.7318,269.0755 2067.2363,269.2708 Q2067.7572,269.4661 2068.2943,269.7103 L2067.2689,272.168 Q2066.8132,271.9564 2066.4225,271.7936 Q2066.0319,271.6309 2065.6413,271.5169 Q2065.2669,271.403 2064.9089,271.3542 Q2064.5508,271.2891 2064.1764,271.2891 Q2063.3952,271.2891 2062.972,271.7122 Q2062.5488,272.1354 2062.5488,272.8353 Q2062.5488,273.2096 2062.6628,273.5026 Q2062.793,273.7956 2063.0697,274.056 Q2063.3626,274.3001 2063.8021,274.5768 Q2064.2415,274.8372 2064.8763,275.1628 Q2065.6413,275.5697 2066.276,275.9928 Q2066.9271,276.416 2067.3828,276.9368 Q2067.8385,277.4414 2068.099,278.0924 Q2068.3594,278.7435 2068.3594,279.6224 Z " fill="#2FA4E7"/><text fill="#2FA4E7" font-family="Calibri" font-size="20.8333" font-style="italic" lengthAdjust="spacingAndGlyphs" textLength="108.3333" x="2120.8333" y="288.5111">«Singleton»</text><text fill="#2FA4E7" font-family="Calibri" font-size="20.8333" lengthAdjust="spacingAndGlyphs" textLength="175" x="2087.5" y="312.7625">StatusBarManager</text><rect height="73.5026" rx="4.1667" ry="4.1667" style="stroke:#2FA4E7;stroke-width:1.5625;fill:none;" width="231.25" x="2043.75" y="1794.9544"/><ellipse cx="2063.5417" cy="1814.7461" fill="#ADD1B2" rx="12.5" ry="12.5" style="stroke:#2FA4E7;stroke-width:1.0416666666666667;"/><path d="M2068.3594,1817.9036 Q2068.3594,1818.8965 2068.0176,1819.7103 Q2067.6758,1820.5078 2067.0085,1821.0775 Q2066.3574,1821.6309 2065.3971,1821.9401 Q2064.4531,1822.2493 2063.2324,1822.2493 Q2062.1419,1822.2493 2061.1328,1822.0215 Q2060.14,1821.7936 2059.2936,1821.3379 L2059.2936,1818.4082 Q2059.7819,1818.6523 2060.2702,1818.8802 Q2060.7747,1819.0918 2061.2793,1819.2708 Q2061.8001,1819.4336 2062.3047,1819.5313 Q2062.8255,1819.6289 2063.3464,1819.6289 Q2063.8509,1819.6289 2064.2253,1819.515 Q2064.5996,1819.401 2064.8275,1819.1895 Q2065.0553,1818.9779 2065.153,1818.7012 Q2065.2669,1818.4082 2065.2669,1818.0664 Q2065.2669,1817.6432 2065.0879,1817.334 Q2064.9089,1817.0085 2064.5833,1816.7318 Q2064.2741,1816.4388 2063.8184,1816.1784 Q2063.3626,1815.918 2062.8092,1815.625 Q2062.3372,1815.3809 2061.7513,1815.0391 Q2061.1816,1814.681 2060.6608,1814.1764 Q2060.1563,1813.6556 2059.7982,1812.9395 Q2059.4564,1812.207 2059.4564,1811.1816 Q2059.4564,1810.1888 2059.7819,1809.4076 Q2060.1237,1808.61 2060.7259,1808.0729 Q2061.3444,1807.5195 2062.207,1807.2428 Q2063.0859,1806.9499 2064.1602,1806.9499 Q2064.6973,1806.9499 2065.2018,1807.0313 Q2065.7227,1807.0964 2066.2272,1807.2266 Q2066.7318,1807.3568 2067.2363,1807.5521 Q2067.7572,1807.7474 2068.2943,1807.9915 L2067.2689,1810.4492 Q2066.8132,1810.2376 2066.4225,1810.0749 Q2066.0319,1809.9121 2065.6413,1809.7982 Q2065.2669,1809.6842 2064.9089,1809.6354 Q2064.5508,1809.5703 2064.1764,1809.5703 Q2063.3952,1809.5703 2062.972,1809.9935 Q2062.5488,1810.4167 2062.5488,1811.1165 Q2062.5488,1811.4909 2062.6628,1811.7839 Q2062.793,1812.0768 2063.0697,1812.3372 Q2063.3626,1812.5814 2063.8021,1812.8581 Q2064.2415,1813.1185 2064.8763,1813.444 Q2065.6413,1813.8509 2066.276,1814.2741 Q2066.9271,1814.6973 2067.3828,1815.2181 Q2067.8385,1815.7227 2068.099,1816.3737 Q2068.3594,1817.0247 2068.3594,1817.9036 Z " fill="#2FA4E7"/><text fill="#2FA4E7" font-family="Calibri" font-size="20.8333" font-style="italic" lengthAdjust="spacingAndGlyphs" textLength="108.3333" x="2120.8333" y="1826.7924">«Singleton»</text><text fill="#2FA4E7" font-family="Calibri" font-size="20.8333" lengthAdjust="spacingAndGlyphs" textLength="175" x="2087.5" y="1851.0437">StatusBarManager</text><rect height="49.2513" rx="4.1667" ry="4.1667" style="stroke:#2FA4E7;stroke-width:1.5625;fill:none;" width="139.5833" x="2452.0833" y="280.9245"/><text fill="#2FA4E7" font-family="Calibri" font-size="20.8333" lengthAdjust="spacingAndGlyphs" textLength="114.5833" x="2464.5833" y="312.7625">VS Code API</text><rect height="49.2513" rx="4.1667" ry="4.1667" style="stroke:#2FA4E7;stroke-width:1.5625;fill:none;" width="139.5833" x="2452.0833" y="1794.9544"/><text fill="#2FA4E7" font-family="Calibri" font-size="20.8333" lengthAdjust="spacingAndGlyphs" textLength="114.5833" x="2464.5833" y="1826.7924">VS Code API</text><rect height="1158.8216" style="stroke:#333333;stroke-width:1.0416666666666667;fill:none;" width="10.4167" x="261.4583" y="451.237"/><rect height="49.2513" style="stroke:#333333;stroke-width:1.0416666666666667;fill:none;" width="10.4167" x="261.4583" y="1727.9948"/><rect height="147.7539" style="stroke:#333333;stroke-width:1.0416666666666667;fill:none;" width="10.4167" x="758.3333" y="500.4883"/><rect height="300.4232" style="stroke:#333333;stroke-width:1.0416666666666667;fill:none;" width="10.4167" x="1129.1667" y="697.4935"/><rect height="60.7096" style="stroke:#333333;stroke-width:1.0416666666666667;fill:none;" width="10.4167" x="1134.375" y="755.0781"/><rect height="60.7096" style="stroke:#333333;stroke-width:1.0416666666666667;fill:none;" width="10.4167" x="1134.375" y="880.6641"/><rect height="147.7539" style="stroke:#333333;stroke-width:1.0416666666666667;fill:none;" width="10.4167" x="1496.875" y="1145.6706"/><rect height="218.1315" style="stroke:#333333;stroke-width:1.0416666666666667;fill:none;" width="10.4167" x="1820.3125" y="1342.6758"/><rect height="49.2513" style="stroke:#333333;stroke-width:1.0416666666666667;fill:none;" width="10.4167" x="2154.1667" y="1047.168"/><rect height="49.2513" style="stroke:#333333;stroke-width:1.0416666666666667;fill:none;" width="10.4167" x="2154.1667" y="1455.013"/><rect height="49.2513" style="stroke:#333333;stroke-width:1.0416666666666667;fill:none;" width="10.4167" x="2516.6667" y="549.7396"/><rect height="49.2513" style="stroke:#333333;stroke-width:1.0416666666666667;fill:none;" width="10.4167" x="2516.6667" y="1194.9219"/><rect fill="#F8F9FA" height="3.125" style="stroke:#F8F9FA;stroke-width:1.0416666666666667;" width="2680.2083" x="0" y="374.9349"/><line style="stroke:#868E96;stroke-width:1.0416666666666667;" x1="0" x2="2680.2083" y1="374.9349" y2="374.9349"/><line style="stroke:#868E96;stroke-width:1.0416666666666667;" x1="0" x2="2680.2083" y1="378.0599" y2="378.0599"/><rect fill="#F8F9FA" height="47.8516" style="stroke:#868E96;stroke-width:2.0833333333333335;" width="194.7917" x="1242.7083" y="352.0508"/><text fill="#343A40" font-family="Calibri" font-size="25" font-weight="bold" lengthAdjust="spacingAndGlyphs" textLength="169.7917" x="1254.1667" y="384.6313">ACTIVATION =</text><line style="stroke:#2FA4E7;stroke-width:2.604166666666667;" x1="259.375" x2="248.9583" y1="451.237" y2="447.0703"/><line style="stroke:#2FA4E7;stroke-width:2.604166666666667;" x1="259.375" x2="248.9583" y1="451.237" y2="455.4036"/><line style="stroke:#2FA4E7;stroke-width:2.604166666666667;" x1="0" x2="260.4167" y1="451.237" y2="451.237"/><text fill="#343A40" font-family="Calibri" font-size="20.8333" font-weight="bold" lengthAdjust="spacingAndGlyphs" textLength="11.4583" x="12.5" y="439.032">1</text><text fill="#343A40" font-family="Calibri" font-size="20.8333" lengthAdjust="spacingAndGlyphs" textLength="182.2917" x="38.5417" y="439.032">&lt;&lt;event&gt;&gt;activate()</text><polygon fill="#2FA4E7" points="745.8333,496.3216,756.25,500.4883,745.8333,504.6549,750,500.4883" style="stroke:#2FA4E7;stroke-width:1.0416666666666667;"/><line style="stroke:#2FA4E7;stroke-width:2.604166666666667;" x1="271.875" x2="752.0833" y1="500.4883" y2="500.4883"/><text fill="#343A40" font-family="Calibri" font-size="20.8333" font-weight="bold" lengthAdjust="spacingAndGlyphs" textLength="11.4583" x="284.375" y="488.2833">2</text><text fill="#343A40" font-family="Calibri" font-size="20.8333" lengthAdjust="spacingAndGlyphs" textLength="430.2083" x="310.4167" y="488.2833">initializeOutputChannel(channelName: string)</text><polygon fill="#2FA4E7" points="2504.1667,545.5729,2514.5833,549.7396,2504.1667,553.9063,2508.3333,549.7396" style="stroke:#2FA4E7;stroke-width:1.0416666666666667;"/><line style="stroke:#2FA4E7;stroke-width:2.604166666666667;" x1="768.75" x2="2510.4167" y1="549.7396" y2="549.7396"/><text fill="#343A40" font-family="Calibri" font-size="20.8333" font-weight="bold" lengthAdjust="spacingAndGlyphs" textLength="11.4583" x="781.25" y="537.5346">3</text><text fill="#343A40" font-family="Calibri" font-size="20.8333" lengthAdjust="spacingAndGlyphs" textLength="488.5417" x="807.2917" y="537.5346">window.createOutputChannel(channelName: string)</text><polygon fill="#2FA4E7" points="780.2083,594.8242,769.7917,598.9909,780.2083,603.1576,776.0417,598.9909" style="stroke:#2FA4E7;stroke-width:1.0416666666666667;"/><line style="stroke:#2FA4E7;stroke-width:2.604166666666667;stroke-dasharray:2.0,2.0;" x1="773.9583" x2="2520.8333" y1="598.9909" y2="598.9909"/><text fill="#343A40" font-family="Calibri" font-size="20.8333" font-weight="bold" lengthAdjust="spacingAndGlyphs" textLength="11.4583" x="791.6667" y="586.7859">4</text><text fill="#343A40" font-family="Calibri" font-size="20.8333" lengthAdjust="spacingAndGlyphs" textLength="0" x="822.9167" y="586.7859"/><polygon fill="#2FA4E7" points="283.3333,644.0755,272.9167,648.2422,283.3333,652.4089,279.1667,648.2422" style="stroke:#2FA4E7;stroke-width:1.0416666666666667;"/><line style="stroke:#2FA4E7;stroke-width:2.604166666666667;stroke-dasharray:2.0,2.0;" x1="277.0833" x2="762.5" y1="648.2422" y2="648.2422"/><text fill="#343A40" font-family="Calibri" font-size="20.8333" font-weight="bold" lengthAdjust="spacingAndGlyphs" textLength="11.4583" x="294.7917" y="636.0372">5</text><text fill="#343A40" font-family="Calibri" font-size="20.8333" lengthAdjust="spacingAndGlyphs" textLength="0" x="326.0417" y="636.0372"/><polygon fill="#2FA4E7" points="1116.6667,693.3268,1127.0833,697.4935,1116.6667,701.6602,1120.8333,697.4935" style="stroke:#2FA4E7;stroke-width:1.0416666666666667;"/><line style="stroke:#2FA4E7;stroke-width:2.604166666666667;" x1="271.875" x2="1122.9167" y1="697.4935" y2="697.4935"/><text fill="#343A40" font-family="Calibri" font-size="20.8333" font-weight="bold" lengthAdjust="spacingAndGlyphs" textLength="11.4583" x="284.375" y="685.2885">6</text><text fill="#343A40" font-family="Calibri" font-size="20.8333" lengthAdjust="spacingAndGlyphs" textLength="573.9583" x="310.4167" y="685.2885">initializeExtensionConfiguration(rootConfigurationKey: string)</text><line style="stroke:#2FA4E7;stroke-width:2.604166666666667;" x1="1139.5833" x2="1188.5417" y1="741.5365" y2="741.5365"/><line style="stroke:#2FA4E7;stroke-width:2.604166666666667;" x1="1188.5417" x2="1188.5417" y1="741.5365" y2="755.0781"/><line style="stroke:#2FA4E7;stroke-width:2.604166666666667;" x1="1145.8333" x2="1188.5417" y1="755.0781" y2="755.0781"/><polygon fill="#2FA4E7" points="1156.25,750.9115,1145.8333,755.0781,1156.25,759.2448,1152.0833,755.0781" style="stroke:#2FA4E7;stroke-width:1.0416666666666667;"/><text fill="#343A40" font-family="Calibri" font-size="20.8333" font-weight="bold" lengthAdjust="spacingAndGlyphs" textLength="11.4583" x="1157.2917" y="729.3315">7</text><text fill="#343A40" font-family="Calibri" font-size="20.8333" lengthAdjust="spacingAndGlyphs" textLength="185.4167" x="1183.3333" y="729.3315">mapConfiguration()</text><line style="stroke:#2FA4E7;stroke-width:2.604166666666667;stroke-dasharray:2.0,2.0;" x1="1144.7917" x2="1188.5417" y1="814.7461" y2="814.7461"/><line style="stroke:#2FA4E7;stroke-width:2.604166666666667;stroke-dasharray:2.0,2.0;" x1="1188.5417" x2="1188.5417" y1="814.7461" y2="828.2878"/><line style="stroke:#2FA4E7;stroke-width:2.604166666666667;stroke-dasharray:2.0,2.0;" x1="1139.5833" x2="1188.5417" y1="828.2878" y2="828.2878"/><polygon fill="#2FA4E7" points="1150,824.1211,1139.5833,828.2878,1150,832.4544,1145.8333,828.2878" style="stroke:#2FA4E7;stroke-width:1.0416666666666667;"/><text fill="#343A40" font-family="Calibri" font-size="20.8333" font-weight="bold" lengthAdjust="spacingAndGlyphs" textLength="11.4583" x="1157.2917" y="802.5411">8</text><text fill="#343A40" font-family="Calibri" font-size="20.8333" lengthAdjust="spacingAndGlyphs" textLength="0" x="1188.5417" y="802.5411"/><line style="stroke:#2FA4E7;stroke-width:2.604166666666667;" x1="1139.5833" x2="1188.5417" y1="867.1224" y2="867.1224"/><line style="stroke:#2FA4E7;stroke-width:2.604166666666667;" x1="1188.5417" x2="1188.5417" y1="867.1224" y2="880.6641"/><line style="stroke:#2FA4E7;stroke-width:2.604166666666667;" x1="1145.8333" x2="1188.5417" y1="880.6641" y2="880.6641"/><polygon fill="#2FA4E7" points="1156.25,876.4974,1145.8333,880.6641,1156.25,884.8307,1152.0833,880.6641" style="stroke:#2FA4E7;stroke-width:1.0416666666666667;"/><text fill="#343A40" font-family="Calibri" font-size="20.8333" font-weight="bold" lengthAdjust="spacingAndGlyphs" textLength="11.4583" x="1157.2917" y="854.9174">9</text><text fill="#343A40" font-family="Calibri" font-size="20.8333" lengthAdjust="spacingAndGlyphs" textLength="306.25" x="1183.3333" y="854.9174">initializeConfigurationWatchers()</text><line style="stroke:#2FA4E7;stroke-width:2.604166666666667;stroke-dasharray:2.0,2.0;" x1="1144.7917" x2="1188.5417" y1="940.332" y2="940.332"/><line style="stroke:#2FA4E7;stroke-width:2.604166666666667;stroke-dasharray:2.0,2.0;" x1="1188.5417" x2="1188.5417" y1="940.332" y2="953.8737"/><line style="stroke:#2FA4E7;stroke-width:2.604166666666667;stroke-dasharray:2.0,2.0;" x1="1139.5833" x2="1188.5417" y1="953.8737" y2="953.8737"/><polygon fill="#2FA4E7" points="1150,949.707,1139.5833,953.8737,1150,958.0404,1145.8333,953.8737" style="stroke:#2FA4E7;stroke-width:1.0416666666666667;"/><text fill="#343A40" font-family="Calibri" font-size="20.8333" font-weight="bold" lengthAdjust="spacingAndGlyphs" textLength="22.9167" x="1157.2917" y="928.127">10</text><text fill="#343A40" font-family="Calibri" font-size="20.8333" lengthAdjust="spacingAndGlyphs" textLength="0" x="1200" y="928.127"/><polygon fill="#2FA4E7" points="283.3333,993.75,272.9167,997.9167,283.3333,1002.0833,279.1667,997.9167" style="stroke:#2FA4E7;stroke-width:1.0416666666666667;"/><line style="stroke:#2FA4E7;stroke-width:2.604166666666667;stroke-dasharray:2.0,2.0;" x1="277.0833" x2="1133.3333" y1="997.9167" y2="997.9167"/><text fill="#343A40" font-family="Calibri" font-size="20.8333" font-weight="bold" lengthAdjust="spacingAndGlyphs" textLength="22.9167" x="294.7917" y="985.7117">11</text><text fill="#343A40" font-family="Calibri" font-size="20.8333" lengthAdjust="spacingAndGlyphs" textLength="0" x="337.5" y="985.7117"/><polygon fill="#2FA4E7" points="2141.6667,1043.0013,2152.0833,1047.168,2141.6667,1051.3346,2145.8333,1047.168" style="stroke:#2FA4E7;stroke-width:1.0416666666666667;"/><line style="stroke:#2FA4E7;stroke-width:2.604166666666667;" x1="271.875" x2="2147.9167" y1="1047.168" y2="1047.168"/><text fill="#343A40" font-family="Calibri" font-size="20.8333" font-weight="bold" lengthAdjust="spacingAndGlyphs" textLength="22.9167" x="284.375" y="1034.963">12</text><text fill="#343A40" font-family="Calibri" font-size="20.8333" lengthAdjust="spacingAndGlyphs" textLength="181.25" x="321.875" y="1034.963">initializeStatusBar()</text><polygon fill="#2FA4E7" points="283.3333,1092.2526,272.9167,1096.4193,283.3333,1100.5859,279.1667,1096.4193" style="stroke:#2FA4E7;stroke-width:1.0416666666666667;"/><line style="stroke:#2FA4E7;stroke-width:2.604166666666667;stroke-dasharray:2.0,2.0;" x1="277.0833" x2="2158.3333" y1="1096.4193" y2="1096.4193"/><text fill="#343A40" font-family="Calibri" font-size="20.8333" font-weight="bold" lengthAdjust="spacingAndGlyphs" textLength="22.9167" x="294.7917" y="1084.2143">13</text><text fill="#343A40" font-family="Calibri" font-size="20.8333" lengthAdjust="spacingAndGlyphs" textLength="0" x="337.5" y="1084.2143"/><polygon fill="#2FA4E7" points="1484.375,1141.5039,1494.7917,1145.6706,1484.375,1149.8372,1488.5417,1145.6706" style="stroke:#2FA4E7;stroke-width:1.0416666666666667;"/><line style="stroke:#2FA4E7;stroke-width:2.604166666666667;" x1="271.875" x2="1490.625" y1="1145.6706" y2="1145.6706"/><text fill="#343A40" font-family="Calibri" font-size="20.8333" font-weight="bold" lengthAdjust="spacingAndGlyphs" textLength="22.9167" x="284.375" y="1133.4656">14</text><text fill="#343A40" font-family="Calibri" font-size="20.8333" lengthAdjust="spacingAndGlyphs" textLength="243.75" x="321.875" y="1133.4656">initializeFileContentStore()</text><polygon fill="#2FA4E7" points="2504.1667,1190.7552,2514.5833,1194.9219,2504.1667,1199.0885,2508.3333,1194.9219" style="stroke:#2FA4E7;stroke-width:1.0416666666666667;"/><line style="stroke:#2FA4E7;stroke-width:2.604166666666667;" x1="1507.2917" x2="2510.4167" y1="1194.9219" y2="1194.9219"/><text fill="#343A40" font-family="Calibri" font-size="20.8333" font-weight="bold" lengthAdjust="spacingAndGlyphs" textLength="22.9167" x="1519.7917" y="1182.7169">15</text><text fill="#343A40" font-family="Calibri" font-size="20.8333" lengthAdjust="spacingAndGlyphs" textLength="182.2917" x="1557.2917" y="1182.7169">workspace.findFiles</text><polygon fill="#2FA4E7" points="1518.75,1240.0065,1508.3333,1244.1732,1518.75,1248.3398,1514.5833,1244.1732" style="stroke:#2FA4E7;stroke-width:1.0416666666666667;"/><line style="stroke:#2FA4E7;stroke-width:2.604166666666667;stroke-dasharray:2.0,2.0;" x1="1512.5" x2="2520.8333" y1="1244.1732" y2="1244.1732"/><text fill="#343A40" font-family="Calibri" font-size="20.8333" font-weight="bold" lengthAdjust="spacingAndGlyphs" textLength="22.9167" x="1530.2083" y="1231.9682">16</text><text fill="#343A40" font-family="Calibri" font-size="20.8333" lengthAdjust="spacingAndGlyphs" textLength="0" x="1572.9167" y="1231.9682"/><polygon fill="#2FA4E7" points="283.3333,1289.2578,272.9167,1293.4245,283.3333,1297.5911,279.1667,1293.4245" style="stroke:#2FA4E7;stroke-width:1.0416666666666667;"/><line style="stroke:#2FA4E7;stroke-width:2.604166666666667;stroke-dasharray:2.0,2.0;" x1="277.0833" x2="1501.0417" y1="1293.4245" y2="1293.4245"/><text fill="#343A40" font-family="Calibri" font-size="20.8333" font-weight="bold" lengthAdjust="spacingAndGlyphs" textLength="22.9167" x="294.7917" y="1281.2195">17</text><text fill="#343A40" font-family="Calibri" font-size="20.8333" lengthAdjust="spacingAndGlyphs" textLength="0" x="337.5" y="1281.2195"/><polygon fill="#2FA4E7" points="1807.8125,1338.5091,1818.2292,1342.6758,1807.8125,1346.8424,1811.9792,1342.6758" style="stroke:#2FA4E7;stroke-width:1.0416666666666667;"/><line style="stroke:#2FA4E7;stroke-width:2.604166666666667;" x1="271.875" x2="1814.0625" y1="1342.6758" y2="1342.6758"/><text fill="#343A40" font-family="Calibri" font-size="20.8333" font-weight="bold" lengthAdjust="spacingAndGlyphs" textLength="22.9167" x="284.375" y="1330.4708">18</text><text fill="#343A40" font-family="Calibri" font-size="20.8333" lengthAdjust="spacingAndGlyphs" textLength="208.3333" x="321.875" y="1330.4708">initializeFileWatchers()</text><path d="M1653.125,1358.3008 L1751.0417,1358.3008 L1751.0417,1384.3424 L1740.625,1394.7591 L1648.9583,1394.7591 L1648.9583,1362.4674 " fill="#E9ECEF" style="stroke:#868E96;stroke-width:1.0416666666666667;"/><rect fill="none" height="154.2969" rx="4.1667" ry="4.1667" style="stroke:#868E96;stroke-width:2.0833333333333335;" width="678.125" x="1648.9583" y="1358.3008"/><text fill="#033C73" font-family="Calibri" font-size="20.8333" font-weight="bold" lengthAdjust="spacingAndGlyphs" textLength="44.7917" x="1669.7917" y="1383.8888">loop</text><text fill="#343A40" font-family="Calibri" font-size="20.8333" font-weight="bold" lengthAdjust="spacingAndGlyphs" textLength="275" x="1771.875" y="1384.9304">[for each file watcher type]</text><polygon fill="#2FA4E7" points="2141.6667,1450.8464,2152.0833,1455.013,2141.6667,1459.1797,2145.8333,1455.013" style="stroke:#2FA4E7;stroke-width:1.0416666666666667;"/><line style="stroke:#2FA4E7;stroke-width:2.604166666666667;" x1="1830.7292" x2="2147.9167" y1="1455.013" y2="1455.013"/><text fill="#343A40" font-family="Calibri" font-size="20.8333" font-weight="bold" lengthAdjust="spacingAndGlyphs" textLength="22.9167" x="1843.2292" y="1442.808">19</text><text fill="#343A40" font-family="Calibri" font-size="20.8333" lengthAdjust="spacingAndGlyphs" textLength="215.625" x="1880.7292" y="1442.808">updateStatusBarItem()</text><polygon fill="#2FA4E7" points="1842.1875,1500.0977,1831.7708,1504.2643,1842.1875,1508.431,1838.0208,1504.2643" style="stroke:#2FA4E7;stroke-width:1.0416666666666667;"/><line style="stroke:#2FA4E7;stroke-width:2.604166666666667;stroke-dasharray:2.0,2.0;" x1="1835.9375" x2="2158.3333" y1="1504.2643" y2="1504.2643"/><text fill="#343A40" font-family="Calibri" font-size="20.8333" font-weight="bold" lengthAdjust="spacingAndGlyphs" textLength="22.9167" x="1853.6458" y="1492.0593">20</text><text fill="#343A40" font-family="Calibri" font-size="20.8333" lengthAdjust="spacingAndGlyphs" textLength="0" x="1896.3542" y="1492.0593"/><polygon fill="#2FA4E7" points="283.3333,1556.6406,272.9167,1560.8073,283.3333,1564.974,279.1667,1560.8073" style="stroke:#2FA4E7;stroke-width:1.0416666666666667;"/><line style="stroke:#2FA4E7;stroke-width:2.604166666666667;stroke-dasharray:2.0,2.0;" x1="277.0833" x2="1824.4792" y1="1560.8073" y2="1560.8073"/><text fill="#343A40" font-family="Calibri" font-size="20.8333" font-weight="bold" lengthAdjust="spacingAndGlyphs" textLength="22.9167" x="294.7917" y="1548.6023">21</text><text fill="#343A40" font-family="Calibri" font-size="20.8333" lengthAdjust="spacingAndGlyphs" textLength="0" x="337.5" y="1548.6023"/><line style="stroke:#2FA4E7;stroke-width:2.604166666666667;" x1="0" x2="10.4167" y1="1610.0586" y2="1605.8919"/><line style="stroke:#2FA4E7;stroke-width:2.604166666666667;" x1="0" x2="10.4167" y1="1610.0586" y2="1614.2253"/><line style="stroke:#2FA4E7;stroke-width:2.604166666666667;stroke-dasharray:2.0,2.0;" x1="0" x2="265.625" y1="1610.0586" y2="1610.0586"/><text fill="#343A40" font-family="Calibri" font-size="20.8333" font-weight="bold" lengthAdjust="spacingAndGlyphs" textLength="22.9167" x="22.9167" y="1597.8536">22</text><text fill="#343A40" font-family="Calibri" font-size="20.8333" lengthAdjust="spacingAndGlyphs" textLength="0" x="65.625" y="1597.8536"/><rect fill="#F8F9FA" height="3.125" style="stroke:#F8F9FA;stroke-width:1.0416666666666667;" width="2680.2083" x="0" y="1651.6927"/><line style="stroke:#868E96;stroke-width:1.0416666666666667;" x1="0" x2="2680.2083" y1="1651.6927" y2="1651.6927"/><line style="stroke:#868E96;stroke-width:1.0416666666666667;" x1="0" x2="2680.2083" y1="1654.8177" y2="1654.8177"/><rect fill="#F8F9FA" height="47.8516" style="stroke:#868E96;stroke-width:2.0833333333333335;" width="226.0417" x="1227.0833" y="1628.8086"/><text fill="#343A40" font-family="Calibri" font-size="25" font-weight="bold" lengthAdjust="spacingAndGlyphs" textLength="201.0417" x="1238.5417" y="1661.3892">DEACTIVATION =</text><line style="stroke:#2FA4E7;stroke-width:2.604166666666667;" x1="259.375" x2="248.9583" y1="1727.9948" y2="1723.8281"/><line style="stroke:#2FA4E7;stroke-width:2.604166666666667;" x1="259.375" x2="248.9583" y1="1727.9948" y2="1732.1615"/><line style="stroke:#2FA4E7;stroke-width:2.604166666666667;" x1="0" x2="260.4167" y1="1727.9948" y2="1727.9948"/><text fill="#343A40" font-family="Calibri" font-size="20.8333" font-weight="bold" lengthAdjust="spacingAndGlyphs" textLength="22.9167" x="12.5" y="1715.7898">23</text><text fill="#343A40" font-family="Calibri" font-size="20.8333" lengthAdjust="spacingAndGlyphs" textLength="193.75" x="50" y="1715.7898">&lt;&lt;event&gt;&gt;dectivate()</text><line style="stroke:#2FA4E7;stroke-width:2.604166666666667;" x1="0" x2="10.4167" y1="1777.2461" y2="1773.0794"/><line style="stroke:#2FA4E7;stroke-width:2.604166666666667;" x1="0" x2="10.4167" y1="1777.2461" y2="1781.4128"/><line style="stroke:#2FA4E7;stroke-width:2.604166666666667;stroke-dasharray:2.0,2.0;" x1="0" x2="265.625" y1="1777.2461" y2="1777.2461"/><text fill="#343A40" font-family="Calibri" font-size="20.8333" font-weight="bold" lengthAdjust="spacingAndGlyphs" textLength="22.9167" x="22.9167" y="1765.0411">24</text><text fill="#343A40" font-family="Calibri" font-size="20.8333" lengthAdjust="spacingAndGlyphs" textLength="0" x="65.625" y="1765.0411"/><rect fill="#FFFFFF" height="129.0039" rx="5.2083" ry="5.2083" style="stroke:#FFFFFF;stroke-width:1.0416666666666667;" width="287.5" x="8.3333" y="78.418"/><rect fill="#F8F8FF" height="34.668" style="stroke:none;stroke-width:1.0416666666666667;" width="264.5833" x="19.7917" y="90.918"/><text fill="#343A40" font-family="Calibri" font-size="20.8333" lengthAdjust="spacingAndGlyphs" textLength="0" x="66.6667" y="115.4643"/><text fill="#343A40" font-family="Calibri" font-size="20.8333" font-weight="bold" lengthAdjust="spacingAndGlyphs" textLength="0" x="82.2917" y="115.4643"/><text fill="#343A40" font-family="Calibri" font-size="20.8333" font-weight="bold" lengthAdjust="spacingAndGlyphs" text-decoration="underline" textLength="191.6667" x="82.2917" y="115.4643">ESB Message Types</text><text fill="#343A40" font-family="Calibri" font-size="20.8333" font-weight="bold" lengthAdjust="spacingAndGlyphs" textLength="0" x="279.1667" y="115.4643"/><rect fill="#008000" height="34.668" style="stroke:none;stroke-width:1.0416666666666667;" width="52.0833" x="19.7917" y="125.5859"/><text fill="#343A40" font-family="Calibri" font-size="20.8333" lengthAdjust="spacingAndGlyphs" textLength="0" x="40.625" y="150.1322"/><text fill="#343A40" font-family="Calibri" font-size="20.8333" lengthAdjust="spacingAndGlyphs" textLength="43.75" x="82.2917" y="150.1322">Sync</text><rect fill="#FFA500" height="34.668" style="stroke:none;stroke-width:1.0416666666666667;" width="52.0833" x="19.7917" y="160.2539"/><text fill="#343A40" font-family="Calibri" font-size="20.8333" lengthAdjust="spacingAndGlyphs" textLength="0" x="35.4167" y="184.8002"/><text fill="#343A40" font-family="Calibri" font-size="20.8333" lengthAdjust="spacingAndGlyphs" textLength="55.2083" x="82.2917" y="184.8002">Async</text><line style="stroke:#F8F8FF;stroke-width:1.0416666666666667;" x1="19.7917" x2="284.375" y1="90.918" y2="90.918"/><line style="stroke:#F8F8FF;stroke-width:1.0416666666666667;" x1="19.7917" x2="284.375" y1="125.5859" y2="125.5859"/><line style="stroke:#F8F8FF;stroke-width:1.0416666666666667;" x1="19.7917" x2="284.375" y1="160.2539" y2="160.2539"/><line style="stroke:#F8F8FF;stroke-width:1.0416666666666667;" x1="19.7917" x2="284.375" y1="194.9219" y2="194.9219"/><line style="stroke:#F8F8FF;stroke-width:1.0416666666666667;" x1="19.7917" x2="19.7917" y1="90.918" y2="194.9219"/><line style="stroke:#F8F8FF;stroke-width:1.0416666666666667;" x1="71.875" x2="71.875" y1="90.918" y2="194.9219"/><line style="stroke:#F8F8FF;stroke-width:1.0416666666666667;" x1="284.375" x2="284.375" y1="90.918" y2="194.9219"/><!--MD5=[205a17c5033bf1b756fa24972d3a79d5]
@startuml Extension Initialization Sequence

!include style/sequence.style.iuml
!include style/sequence.settings.iuml
!include style/sequence.variables.iuml

legend top left
  <#GhostWhite,#GhostWhite>|        |= __ESB Message Types__ |
  |<$syncColor>   | Sync|
  |<$asyncColor>  | Async|
endlegend

title Extension Initialization Sequence - Updated

!define X "Extension"
!define OPCMNG "OutputChannelManager"
!define CNFMNG "ConfigurationManager"
!define FCS "FileContentStore"
!define FWM "FileWatcherManager"
!define SBM "StatusBarManager"

!define VSCAPI "VS Code API"

box "Internal Logic" $internalServicesBoxColor
    participant X
    participant OPCMNG   << (S,#ADD1B2) Singleton >>
    participant CNFMNG   << (S,#ADD1B2) Singleton >>
    participant FCS      << (S,#ADD1B2) Singleton >>
    participant FWM      << (S,#ADD1B2) Singleton >>
    participant SBM      << (S,#ADD1B2) Singleton >>
end box

box "External Logic" $externalServicesBoxColor
    participant VSCAPI
end box

=== ACTIVATION ===
->>X:<<event>>activate()
X->OPCMNG:initializeOutputChannel(channelName: string)
OPCMNG->VSCAPI:window.createOutputChannel(channelName: string)
return
return
X->CNFMNG:initializeExtensionConfiguration(rootConfigurationKey: string)
CNFMNG->CNFMNG:mapConfiguration()
return
CNFMNG->CNFMNG:initializeConfigurationWatchers()
return
return
X->SBM:initializeStatusBar()
return
X->FCS:initializeFileContentStore()
FCS->VSCAPI:workspace.findFiles
return
return
X->FWM:initializeFileWatchers()
loop for each file watcher type
  FWM->SBM:updateStatusBarItem()
  return
end
return
return
=== DEACTIVATION ===
->>X:<<event>>dectivate()
return

@enduml

@startuml Extension Initialization Sequence





skinparam backgroundColor transparent
skinparam useBetaStyle false







skinparam defaultFontName       "Verdana"
skinparam defaultFontSize       12
skinparam dpi                   100
skinparam shadowing             false
skinparam roundcorner           8
skinparam ParticipantPadding    40
skinparam BoxPadding            40
skinparam Padding               5
skinparam ArrowColor            #868E96
skinparam stereotype {
    CBackgroundColor #EDF0F2
    CBorderColor #BABDBF
    ABackgroundColor #8FB961
    ABorderColor $SUCCESS_DARK
    IBackgroundColor #D2494E
    IBorderColor $DANGER_DARK
    EBackgroundColor #E47833
    EBorderColor $WARNING_DARK
    NBackgroundColor #35638F
    NBorderColor $INFO_DARK
}
skinparam title {
	FontColor	                 #2FA4E7
	BorderColor	                 #BABDBF
	FontSize	    	         20
	BorderRoundCorner            8
	BorderThickness 	         1
	BackgroundColor              transparent
}

skinparam legend {
	BackgroundColor transparent
	BorderColor #BABDBF
	FontColor #343A40
}

skinparam swimlane {
	BorderColor #033C73
	BorderThickness 2
	TitleBackgroundColor  #EDF0F2-#E9ECEF
	TitleFontColor #2FA4E7
}


skinparam activity {
		FontColor #2FA4E7
	BorderColor #2FA4E7
	BackgroundColor transparent
	BarColor #73A839
	StartColor #033C73
	EndColor #033C73
	DiamondBackgroundColor transparent
  	DiamondBorderColor #BABDBF
	DiamondFontColor #BABDBF
}


skinparam participant {
		FontColor #2FA4E7
	BorderColor #2FA4E7
	BackgroundColor transparent
	ParticipantBorderThickness 2
}


skinparam actor {
		FontColor #2FA4E7
	BorderColor #2FA4E7
	BackgroundColor transparent
}


skinparam arrow {
	Thickness 3
	Color #2FA4E7
	FontColor #343A40
}


skinparam sequence {
	BorderColor #2FA4E7
	TitleFontColor #2FA4E7
	BackgroundColor transparent
	StartColor #2FA4E7
	EndColor #2FA4E7
	BoxBackgroundColor transparent
	BoxBorderColor #868E96
	BoxFontColor #343A40
	DelayFontColor #343A40
	LifeLineBorderColor #BABDBF
	LifeLineBorderThickness 2
	LifeLineBackgroundColor transparent
	GroupBorderColor #868E96
	GroupFontColor #343A40
	GroupHeaderFontColor #033C73
	GroupBackgroundColor #E9ECEF
	GroupBodyBackgroundColor transparent
	GroupHeaderBackgroundColor transparent
	DividerBackgroundColor #F8F9FA
    DividerBorderColor #868E96
    DividerBorderThickness 2
    DividerFontColor #343A40
	ReferenceBackgroundColor transparent
	ReferenceBorderColor #868E96
	ReferenceFontColor #343A40
	ReferenceHeaderFontColor #033C73
	StereotypeFontColor #2FA4E7
}


skinparam partition {
	BorderColor #2FA4E7
	FontColor #2FA4E7
	BackgroundColor transparent
}


skinparam collections {
		FontColor #2FA4E7
	BorderColor #2FA4E7
	BackgroundColor transparent
}


skinparam control {
		FontColor #2FA4E7
	BorderColor #2FA4E7
	BackgroundColor transparent
}


skinparam entity {
		FontColor #2FA4E7
	BorderColor #2FA4E7
	BackgroundColor transparent
}


skinparam boundary {
		FontColor #2FA4E7
	BorderColor #2FA4E7
	BackgroundColor transparent
}


skinparam agent {
	BackgroundColor transparent
	BorderColor #999999
	FontColor #333333
}


skinparam note {
	BorderThickness 1
	BackgroundColor transparent
	BorderColor #033C73
	FontColor #033C73
}


skinparam artifact {
	BackgroundColor transparent
	BorderColor #868E96
	FontColor #868E96
}


skinparam component {
		FontColor #2FA4E7
	BorderColor #2FA4E7
	BackgroundColor transparent
}


skinparam interface {
	BackgroundColor  transparent
	BorderColor  #C71C22
	FontColor #343A40
}


skinparam storage {
	BackgroundColor transparent
  	BorderColor #DD5600
	FontColor #DD5600
}


skinparam node {
	BackgroundColor transparent
	BorderColor #343A40
	FontColor #343A40
}


skinparam cloud {
	BackgroundColor transparent
	BorderColor #F2FCFE
	FontColor #343A40
}


skinparam database {
		FontColor #2FA4E7
	BorderColor #2FA4E7
	BackgroundColor transparent
}


skinparam class {
		FontColor #2FA4E7
	BorderColor #2FA4E7
	BackgroundColor transparent
	FontColor #F8F9FA
	HeaderBackgroundColor #2FA4E7-#2683B9
	StereotypeFontColor #343A40
	BorderThickness 1
	AttributeFontColor #343A40
	AttributeFontSize 11
}


skinparam object {
		FontColor #2FA4E7
	BorderColor #2FA4E7
	BackgroundColor transparent
	StereotypeFontColor #343A40
	BorderThickness 1
	AttributeFontColor #BABDBF
	AttributeFontSize 11
}


skinparam usecase {
		FontColor #2FA4E7
	BorderColor #2FA4E7
	BackgroundColor transparent
	BorderThickness 2
	StereotypeFontColor #2FA4E7
}


skinparam rectangle {
		FontColor #2FA4E7
	BorderColor #2FA4E7
	BackgroundColor transparent
	BorderThickness 2
	StereotypeFontColor #2FA4E7
}


skinparam package {
	BackgroundColor transparent
  	BorderColor #2FA4E7
	FontColor #2FA4E7
	BorderThickness 2
}


skinparam folder {
	BackgroundColor transparent
  	BorderColor #DD5600
	FontColor #DD5600
	BorderThickness 2
}


skinparam frame {
	BackgroundColor transparent
  	BorderColor #033C73
	FontColor #033C73
	BorderThickness 2
}


skinparam state {
		FontColor #2FA4E7
	BorderColor #2FA4E7
	BackgroundColor transparent
	StartColor #033C73
	EndColor #033C73
	AttributeFontColor #BABDBF
	AttributeFontSize 11
}


skinparam queue {
		FontColor #2FA4E7
	BorderColor #2FA4E7
	BackgroundColor transparent
}


skinparam card {
	BackgroundColor transparent
	BorderColor #033C73
	FontColor #033C73
}


skinparam file {
	BackgroundColor transparent
	BorderColor #868E96
	FontColor #868E96
}


skinparam stack {
		FontColor #2FA4E7
	BorderColor #2FA4E7
	BackgroundColor transparent
}




skinparam defaultFontName Calibri
skinparam defaultFontSize 20
skinparam sequenceLifeLineBorderColor #333
skinparam legendBackgroundColor #FFFFFF
skinparam legendBorderColor #FFFFFF
skinparam legendEntrySeparator #FFFFFF
skinparam arrowThickness 2.5
autoactivate on
autonumber


legend top left
  <#GhostWhite,#GhostWhite>|        |= __ESB Message Types__ |
  |<#green>   | Sync|
  |<#orange>  | Async|
endlegend

title Extension Initialization Sequence - Updated



box "Internal Logic" #Gainsboro
    participant "Extension"
    participant "OutputChannelManager"   << (S,#ADD1B2) Singleton >>
    participant "ConfigurationManager"   << (S,#ADD1B2) Singleton >>
    participant "FileContentStore"      << (S,#ADD1B2) Singleton >>
    participant "FileWatcherManager"      << (S,#ADD1B2) Singleton >>
    participant "StatusBarManager"      << (S,#ADD1B2) Singleton >>
end box

box "External Logic" #Lavender
    participant "VS Code API"
end box

=== ACTIVATION ===
->>"Extension":<<event>>activate()
"Extension"->"OutputChannelManager":initializeOutputChannel(channelName: string)
"OutputChannelManager"->"VS Code API":window.createOutputChannel(channelName: string)
return
return
"Extension"->"ConfigurationManager":initializeExtensionConfiguration(rootConfigurationKey: string)
"ConfigurationManager"->"ConfigurationManager":mapConfiguration()
return
"ConfigurationManager"->"ConfigurationManager":initializeConfigurationWatchers()
return
return
"Extension"->"StatusBarManager":initializeStatusBar()
return
"Extension"->"FileContentStore":initializeFileContentStore()
"FileContentStore"->"VS Code API":workspace.findFiles
return
return
"Extension"->"FileWatcherManager":initializeFileWatchers()
loop for each file watcher type
  "FileWatcherManager"->"StatusBarManager":updateStatusBarItem()
  return
end
return
return
=== DEACTIVATION ===
->>"Extension":<<event>>dectivate()
return

@enduml

PlantUML version 1.2020.23(Sun Dec 13 19:14:58 GMT 2020)
(GPL source distribution)
Java Runtime: OpenJDK Runtime Environment
JVM: OpenJDK 64-Bit Server VM
Default Encoding: UTF-8
Language: en
Country: US
--></g></svg>