<?xml version="1.0" encoding="UTF-8" standalone="no"?><svg xmlns="http://www.w3.org/2000/svg" xmlns:xlink="http://www.w3.org/1999/xlink" contentScriptType="application/ecmascript" contentStyleType="text/css" height="1091px" preserveAspectRatio="none" style="width:1586px;height:1091px;" version="1.1" viewBox="0 0 1586 1091" width="1586px" zoomAndPan="magnify"><defs><filter height="300%" id="fk60oeaa9s8q4" width="300%" x="-1" y="-1"><feGaussianBlur result="blurOut" stdDeviation="2.0"/><feColorMatrix in="blurOut" result="blurOut2" type="matrix" values="0 0 0 0 0 0 0 0 0 0 0 0 0 0 0 0 0 0 .4 0"/><feOffset dx="4.0" dy="4.0" in="blurOut2" result="blurOut3"/><feBlend in="SourceGraphic" in2="blurOut3" mode="normal"/></filter></defs><g><text fill="#000000" font-family="Calibri" font-size="20" lengthAdjust="spacingAndGlyphs" textLength="295" x="642" y="30.5645">Extension Initialization Sequence</text><rect fill="#DCDCDC" height="941.7813" style="stroke:#A80036;stroke-width:1.0;" width="1218.5" x="155.5" y="144.125"/><text fill="#000000" font-family="Calibri" font-size="20" font-weight="bold" lengthAdjust="spacingAndGlyphs" textLength="137" x="696.25" y="162.6895">Internal Logic</text><rect fill="#E6E6FA" height="941.7813" style="stroke:#A80036;stroke-width:1.0;" width="144" x="1434" y="144.125"/><text fill="#000000" font-family="Calibri" font-size="20" font-weight="bold" lengthAdjust="spacingAndGlyphs" textLength="138" x="1437" y="162.6895">External Logic</text><rect fill="#FFFFFF" filter="url(#fk60oeaa9s8q4)" height="676.1563" style="stroke:#333333;stroke-width:1.0;" width="10" x="207" y="332.1875"/><rect fill="#FFFFFF" filter="url(#fk60oeaa9s8q4)" height="9" style="stroke:#333333;stroke-width:1.0;" width="10" x="212" y="999.3438"/><rect fill="#FFFFFF" filter="url(#fk60oeaa9s8q4)" height="111.8438" style="stroke:#333333;stroke-width:1.0;" width="10" x="664" y="369.4688"/><rect fill="#FFFFFF" filter="url(#fk60oeaa9s8q4)" height="238.4063" style="stroke:#333333;stroke-width:1.0;" width="10" x="934" y="518.5938"/><rect fill="#FFFFFF" filter="url(#fk60oeaa9s8q4)" height="48.2813" style="stroke:#333333;stroke-width:1.0;" width="10" x="939" y="563.875"/><rect fill="#FFFFFF" filter="url(#fk60oeaa9s8q4)" height="48.2813" style="stroke:#333333;stroke-width:1.0;" width="10" x="939" y="664.4375"/><rect fill="#FFFFFF" filter="url(#fk60oeaa9s8q4)" height="111.8438" style="stroke:#333333;stroke-width:1.0;" width="10" x="1267" y="794.2813"/><rect fill="#FFFFFF" filter="url(#fk60oeaa9s8q4)" height="37.2813" style="stroke:#333333;stroke-width:1.0;" width="10" x="1501" y="406.75"/><rect fill="#FFFFFF" filter="url(#fk60oeaa9s8q4)" height="37.2813" style="stroke:#333333;stroke-width:1.0;" width="10" x="1501" y="831.5625"/><line style="stroke:#333333;stroke-width:1.0;stroke-dasharray:5.0,5.0;" x1="211.5" x2="211.5" y1="236.9688" y2="1017.3438"/><line style="stroke:#333333;stroke-width:1.0;stroke-dasharray:5.0,5.0;" x1="669" x2="669" y1="236.9688" y2="1017.3438"/><line style="stroke:#333333;stroke-width:1.0;stroke-dasharray:5.0,5.0;" x1="939" x2="939" y1="236.9688" y2="1017.3438"/><line style="stroke:#333333;stroke-width:1.0;stroke-dasharray:5.0,5.0;" x1="1272" x2="1272" y1="236.9688" y2="1017.3438"/><line style="stroke:#333333;stroke-width:1.0;stroke-dasharray:5.0,5.0;" x1="1506" x2="1506" y1="236.9688" y2="1017.3438"/><rect fill="#FEFECE" filter="url(#fk60oeaa9s8q4)" height="37.2813" style="stroke:#A80036;stroke-width:1.5;" width="101" x="159.5" y="194.6875"/><text fill="#000000" font-family="Calibri" font-size="20" lengthAdjust="spacingAndGlyphs" textLength="87" x="166.5" y="220.252">Extension</text><rect fill="#FEFECE" filter="url(#fk60oeaa9s8q4)" height="37.2813" style="stroke:#A80036;stroke-width:1.5;" width="101" x="159.5" y="1016.3438"/><text fill="#000000" font-family="Calibri" font-size="20" lengthAdjust="spacingAndGlyphs" textLength="87" x="166.5" y="1041.9082">Extension</text><rect fill="#FEFECE" filter="url(#fk60oeaa9s8q4)" height="60.5625" style="stroke:#A80036;stroke-width:1.5;" width="264" x="535" y="171.4063"/><ellipse cx="554" cy="190.4063" fill="#ADD1B2" rx="12" ry="12" style="stroke:#A80036;stroke-width:1.0;"/><path d="M558.625,193.4375 Q558.625,194.3906 558.2969,195.1719 Q557.9688,195.9375 557.3281,196.4844 Q556.7031,197.0156 555.7813,197.3125 Q554.875,197.6094 553.7031,197.6094 Q552.6563,197.6094 551.6875,197.3906 Q550.7344,197.1719 549.9219,196.7344 L549.9219,193.9219 Q550.3906,194.1563 550.8594,194.375 Q551.3438,194.5781 551.8281,194.75 Q552.3281,194.9063 552.8125,195 Q553.3125,195.0938 553.8125,195.0938 Q554.2969,195.0938 554.6563,194.9844 Q555.0156,194.875 555.2344,194.6719 Q555.4531,194.4688 555.5469,194.2031 Q555.6563,193.9219 555.6563,193.5938 Q555.6563,193.1875 555.4844,192.8906 Q555.3125,192.5781 555,192.3125 Q554.7031,192.0313 554.2656,191.7813 Q553.8281,191.5313 553.2969,191.25 Q552.8438,191.0156 552.2813,190.6875 Q551.7344,190.3438 551.2344,189.8594 Q550.75,189.3594 550.4063,188.6719 Q550.0781,187.9688 550.0781,186.9844 Q550.0781,186.0313 550.3906,185.2813 Q550.7188,184.5156 551.2969,184 Q551.8906,183.4688 552.7188,183.2031 Q553.5625,182.9219 554.5938,182.9219 Q555.1094,182.9219 555.5938,183 Q556.0938,183.0625 556.5781,183.1875 Q557.0625,183.3125 557.5469,183.5 Q558.0469,183.6875 558.5625,183.9219 L557.5781,186.2813 Q557.1406,186.0781 556.7656,185.9219 Q556.3906,185.7656 556.0156,185.6563 Q555.6563,185.5469 555.3125,185.5 Q554.9688,185.4375 554.6094,185.4375 Q553.8594,185.4375 553.4531,185.8438 Q553.0469,186.25 553.0469,186.9219 Q553.0469,187.2813 553.1563,187.5625 Q553.2813,187.8438 553.5469,188.0938 Q553.8281,188.3281 554.25,188.5938 Q554.6719,188.8438 555.2813,189.1563 Q556.0156,189.5469 556.625,189.9531 Q557.25,190.3594 557.6875,190.8594 Q558.125,191.3438 558.375,191.9688 Q558.625,192.5938 558.625,193.4375 Z " fill="#000000"/><text fill="#000000" font-family="Calibri" font-size="20" font-style="italic" lengthAdjust="spacingAndGlyphs" textLength="104" x="630" y="196.9707">«Singleton»</text><text fill="#000000" font-family="Calibri" font-size="20" lengthAdjust="spacingAndGlyphs" textLength="220" x="572" y="220.252">OutputChannelManager</text><rect fill="#FEFECE" filter="url(#fk60oeaa9s8q4)" height="60.5625" style="stroke:#A80036;stroke-width:1.5;" width="264" x="535" y="1016.3438"/><ellipse cx="554" cy="1035.3438" fill="#ADD1B2" rx="12" ry="12" style="stroke:#A80036;stroke-width:1.0;"/><path d="M558.625,1038.375 Q558.625,1039.3281 558.2969,1040.1094 Q557.9688,1040.875 557.3281,1041.4219 Q556.7031,1041.9531 555.7813,1042.25 Q554.875,1042.5469 553.7031,1042.5469 Q552.6563,1042.5469 551.6875,1042.3281 Q550.7344,1042.1094 549.9219,1041.6719 L549.9219,1038.8594 Q550.3906,1039.0938 550.8594,1039.3125 Q551.3438,1039.5156 551.8281,1039.6875 Q552.3281,1039.8438 552.8125,1039.9375 Q553.3125,1040.0313 553.8125,1040.0313 Q554.2969,1040.0313 554.6563,1039.9219 Q555.0156,1039.8125 555.2344,1039.6094 Q555.4531,1039.4063 555.5469,1039.1406 Q555.6563,1038.8594 555.6563,1038.5313 Q555.6563,1038.125 555.4844,1037.8281 Q555.3125,1037.5156 555,1037.25 Q554.7031,1036.9688 554.2656,1036.7188 Q553.8281,1036.4688 553.2969,1036.1875 Q552.8438,1035.9531 552.2813,1035.625 Q551.7344,1035.2813 551.2344,1034.7969 Q550.75,1034.2969 550.4063,1033.6094 Q550.0781,1032.9063 550.0781,1031.9219 Q550.0781,1030.9688 550.3906,1030.2188 Q550.7188,1029.4531 551.2969,1028.9375 Q551.8906,1028.4063 552.7188,1028.1406 Q553.5625,1027.8594 554.5938,1027.8594 Q555.1094,1027.8594 555.5938,1027.9375 Q556.0938,1028 556.5781,1028.125 Q557.0625,1028.25 557.5469,1028.4375 Q558.0469,1028.625 558.5625,1028.8594 L557.5781,1031.2188 Q557.1406,1031.0156 556.7656,1030.8594 Q556.3906,1030.7031 556.0156,1030.5938 Q555.6563,1030.4844 555.3125,1030.4375 Q554.9688,1030.375 554.6094,1030.375 Q553.8594,1030.375 553.4531,1030.7813 Q553.0469,1031.1875 553.0469,1031.8594 Q553.0469,1032.2188 553.1563,1032.5 Q553.2813,1032.7813 553.5469,1033.0313 Q553.8281,1033.2656 554.25,1033.5313 Q554.6719,1033.7813 555.2813,1034.0938 Q556.0156,1034.4844 556.625,1034.8906 Q557.25,1035.2969 557.6875,1035.7969 Q558.125,1036.2813 558.375,1036.9063 Q558.625,1037.5313 558.625,1038.375 Z " fill="#000000"/><text fill="#000000" font-family="Calibri" font-size="20" font-style="italic" lengthAdjust="spacingAndGlyphs" textLength="104" x="630" y="1041.9082">«Singleton»</text><text fill="#000000" font-family="Calibri" font-size="20" lengthAdjust="spacingAndGlyphs" textLength="220" x="572" y="1065.1895">OutputChannelManager</text><rect fill="#FEFECE" filter="url(#fk60oeaa9s8q4)" height="60.5625" style="stroke:#A80036;stroke-width:1.5;" width="248" x="813" y="171.4063"/><ellipse cx="832" cy="190.4063" fill="#ADD1B2" rx="12" ry="12" style="stroke:#A80036;stroke-width:1.0;"/><path d="M836.625,193.4375 Q836.625,194.3906 836.2969,195.1719 Q835.9688,195.9375 835.3281,196.4844 Q834.7031,197.0156 833.7813,197.3125 Q832.875,197.6094 831.7031,197.6094 Q830.6563,197.6094 829.6875,197.3906 Q828.7344,197.1719 827.9219,196.7344 L827.9219,193.9219 Q828.3906,194.1563 828.8594,194.375 Q829.3438,194.5781 829.8281,194.75 Q830.3281,194.9063 830.8125,195 Q831.3125,195.0938 831.8125,195.0938 Q832.2969,195.0938 832.6563,194.9844 Q833.0156,194.875 833.2344,194.6719 Q833.4531,194.4688 833.5469,194.2031 Q833.6563,193.9219 833.6563,193.5938 Q833.6563,193.1875 833.4844,192.8906 Q833.3125,192.5781 833,192.3125 Q832.7031,192.0313 832.2656,191.7813 Q831.8281,191.5313 831.2969,191.25 Q830.8438,191.0156 830.2813,190.6875 Q829.7344,190.3438 829.2344,189.8594 Q828.75,189.3594 828.4063,188.6719 Q828.0781,187.9688 828.0781,186.9844 Q828.0781,186.0313 828.3906,185.2813 Q828.7188,184.5156 829.2969,184 Q829.8906,183.4688 830.7188,183.2031 Q831.5625,182.9219 832.5938,182.9219 Q833.1094,182.9219 833.5938,183 Q834.0938,183.0625 834.5781,183.1875 Q835.0625,183.3125 835.5469,183.5 Q836.0469,183.6875 836.5625,183.9219 L835.5781,186.2813 Q835.1406,186.0781 834.7656,185.9219 Q834.3906,185.7656 834.0156,185.6563 Q833.6563,185.5469 833.3125,185.5 Q832.9688,185.4375 832.6094,185.4375 Q831.8594,185.4375 831.4531,185.8438 Q831.0469,186.25 831.0469,186.9219 Q831.0469,187.2813 831.1563,187.5625 Q831.2813,187.8438 831.5469,188.0938 Q831.8281,188.3281 832.25,188.5938 Q832.6719,188.8438 833.2813,189.1563 Q834.0156,189.5469 834.625,189.9531 Q835.25,190.3594 835.6875,190.8594 Q836.125,191.3438 836.375,191.9688 Q836.625,192.5938 836.625,193.4375 Z " fill="#000000"/><text fill="#000000" font-family="Calibri" font-size="20" font-style="italic" lengthAdjust="spacingAndGlyphs" textLength="104" x="900" y="196.9707">«Singleton»</text><text fill="#000000" font-family="Calibri" font-size="20" lengthAdjust="spacingAndGlyphs" textLength="204" x="850" y="220.252">ConfigurationManager</text><rect fill="#FEFECE" filter="url(#fk60oeaa9s8q4)" height="60.5625" style="stroke:#A80036;stroke-width:1.5;" width="248" x="813" y="1016.3438"/><ellipse cx="832" cy="1035.3438" fill="#ADD1B2" rx="12" ry="12" style="stroke:#A80036;stroke-width:1.0;"/><path d="M836.625,1038.375 Q836.625,1039.3281 836.2969,1040.1094 Q835.9688,1040.875 835.3281,1041.4219 Q834.7031,1041.9531 833.7813,1042.25 Q832.875,1042.5469 831.7031,1042.5469 Q830.6563,1042.5469 829.6875,1042.3281 Q828.7344,1042.1094 827.9219,1041.6719 L827.9219,1038.8594 Q828.3906,1039.0938 828.8594,1039.3125 Q829.3438,1039.5156 829.8281,1039.6875 Q830.3281,1039.8438 830.8125,1039.9375 Q831.3125,1040.0313 831.8125,1040.0313 Q832.2969,1040.0313 832.6563,1039.9219 Q833.0156,1039.8125 833.2344,1039.6094 Q833.4531,1039.4063 833.5469,1039.1406 Q833.6563,1038.8594 833.6563,1038.5313 Q833.6563,1038.125 833.4844,1037.8281 Q833.3125,1037.5156 833,1037.25 Q832.7031,1036.9688 832.2656,1036.7188 Q831.8281,1036.4688 831.2969,1036.1875 Q830.8438,1035.9531 830.2813,1035.625 Q829.7344,1035.2813 829.2344,1034.7969 Q828.75,1034.2969 828.4063,1033.6094 Q828.0781,1032.9063 828.0781,1031.9219 Q828.0781,1030.9688 828.3906,1030.2188 Q828.7188,1029.4531 829.2969,1028.9375 Q829.8906,1028.4063 830.7188,1028.1406 Q831.5625,1027.8594 832.5938,1027.8594 Q833.1094,1027.8594 833.5938,1027.9375 Q834.0938,1028 834.5781,1028.125 Q835.0625,1028.25 835.5469,1028.4375 Q836.0469,1028.625 836.5625,1028.8594 L835.5781,1031.2188 Q835.1406,1031.0156 834.7656,1030.8594 Q834.3906,1030.7031 834.0156,1030.5938 Q833.6563,1030.4844 833.3125,1030.4375 Q832.9688,1030.375 832.6094,1030.375 Q831.8594,1030.375 831.4531,1030.7813 Q831.0469,1031.1875 831.0469,1031.8594 Q831.0469,1032.2188 831.1563,1032.5 Q831.2813,1032.7813 831.5469,1033.0313 Q831.8281,1033.2656 832.25,1033.5313 Q832.6719,1033.7813 833.2813,1034.0938 Q834.0156,1034.4844 834.625,1034.8906 Q835.25,1035.2969 835.6875,1035.7969 Q836.125,1036.2813 836.375,1036.9063 Q836.625,1037.5313 836.625,1038.375 Z " fill="#000000"/><text fill="#000000" font-family="Calibri" font-size="20" font-style="italic" lengthAdjust="spacingAndGlyphs" textLength="104" x="900" y="1041.9082">«Singleton»</text><text fill="#000000" font-family="Calibri" font-size="20" lengthAdjust="spacingAndGlyphs" textLength="204" x="850" y="1065.1895">ConfigurationManager</text><rect fill="#FEFECE" filter="url(#fk60oeaa9s8q4)" height="60.5625" style="stroke:#A80036;stroke-width:1.5;" width="192" x="1174" y="171.4063"/><ellipse cx="1193" cy="190.4063" fill="#ADD1B2" rx="12" ry="12" style="stroke:#A80036;stroke-width:1.0;"/><path d="M1197.625,193.4375 Q1197.625,194.3906 1197.2969,195.1719 Q1196.9688,195.9375 1196.3281,196.4844 Q1195.7031,197.0156 1194.7813,197.3125 Q1193.875,197.6094 1192.7031,197.6094 Q1191.6563,197.6094 1190.6875,197.3906 Q1189.7344,197.1719 1188.9219,196.7344 L1188.9219,193.9219 Q1189.3906,194.1563 1189.8594,194.375 Q1190.3438,194.5781 1190.8281,194.75 Q1191.3281,194.9063 1191.8125,195 Q1192.3125,195.0938 1192.8125,195.0938 Q1193.2969,195.0938 1193.6563,194.9844 Q1194.0156,194.875 1194.2344,194.6719 Q1194.4531,194.4688 1194.5469,194.2031 Q1194.6563,193.9219 1194.6563,193.5938 Q1194.6563,193.1875 1194.4844,192.8906 Q1194.3125,192.5781 1194,192.3125 Q1193.7031,192.0313 1193.2656,191.7813 Q1192.8281,191.5313 1192.2969,191.25 Q1191.8438,191.0156 1191.2813,190.6875 Q1190.7344,190.3438 1190.2344,189.8594 Q1189.75,189.3594 1189.4063,188.6719 Q1189.0781,187.9688 1189.0781,186.9844 Q1189.0781,186.0313 1189.3906,185.2813 Q1189.7188,184.5156 1190.2969,184 Q1190.8906,183.4688 1191.7188,183.2031 Q1192.5625,182.9219 1193.5938,182.9219 Q1194.1094,182.9219 1194.5938,183 Q1195.0938,183.0625 1195.5781,183.1875 Q1196.0625,183.3125 1196.5469,183.5 Q1197.0469,183.6875 1197.5625,183.9219 L1196.5781,186.2813 Q1196.1406,186.0781 1195.7656,185.9219 Q1195.3906,185.7656 1195.0156,185.6563 Q1194.6563,185.5469 1194.3125,185.5 Q1193.9688,185.4375 1193.6094,185.4375 Q1192.8594,185.4375 1192.4531,185.8438 Q1192.0469,186.25 1192.0469,186.9219 Q1192.0469,187.2813 1192.1563,187.5625 Q1192.2813,187.8438 1192.5469,188.0938 Q1192.8281,188.3281 1193.25,188.5938 Q1193.6719,188.8438 1194.2813,189.1563 Q1195.0156,189.5469 1195.625,189.9531 Q1196.25,190.3594 1196.6875,190.8594 Q1197.125,191.3438 1197.375,191.9688 Q1197.625,192.5938 1197.625,193.4375 Z " fill="#000000"/><text fill="#000000" font-family="Calibri" font-size="20" font-style="italic" lengthAdjust="spacingAndGlyphs" textLength="104" x="1233" y="196.9707">«Singleton»</text><text fill="#000000" font-family="Calibri" font-size="20" lengthAdjust="spacingAndGlyphs" textLength="148" x="1211" y="220.252">FileContentStore</text><rect fill="#FEFECE" filter="url(#fk60oeaa9s8q4)" height="60.5625" style="stroke:#A80036;stroke-width:1.5;" width="192" x="1174" y="1016.3438"/><ellipse cx="1193" cy="1035.3438" fill="#ADD1B2" rx="12" ry="12" style="stroke:#A80036;stroke-width:1.0;"/><path d="M1197.625,1038.375 Q1197.625,1039.3281 1197.2969,1040.1094 Q1196.9688,1040.875 1196.3281,1041.4219 Q1195.7031,1041.9531 1194.7813,1042.25 Q1193.875,1042.5469 1192.7031,1042.5469 Q1191.6563,1042.5469 1190.6875,1042.3281 Q1189.7344,1042.1094 1188.9219,1041.6719 L1188.9219,1038.8594 Q1189.3906,1039.0938 1189.8594,1039.3125 Q1190.3438,1039.5156 1190.8281,1039.6875 Q1191.3281,1039.8438 1191.8125,1039.9375 Q1192.3125,1040.0313 1192.8125,1040.0313 Q1193.2969,1040.0313 1193.6563,1039.9219 Q1194.0156,1039.8125 1194.2344,1039.6094 Q1194.4531,1039.4063 1194.5469,1039.1406 Q1194.6563,1038.8594 1194.6563,1038.5313 Q1194.6563,1038.125 1194.4844,1037.8281 Q1194.3125,1037.5156 1194,1037.25 Q1193.7031,1036.9688 1193.2656,1036.7188 Q1192.8281,1036.4688 1192.2969,1036.1875 Q1191.8438,1035.9531 1191.2813,1035.625 Q1190.7344,1035.2813 1190.2344,1034.7969 Q1189.75,1034.2969 1189.4063,1033.6094 Q1189.0781,1032.9063 1189.0781,1031.9219 Q1189.0781,1030.9688 1189.3906,1030.2188 Q1189.7188,1029.4531 1190.2969,1028.9375 Q1190.8906,1028.4063 1191.7188,1028.1406 Q1192.5625,1027.8594 1193.5938,1027.8594 Q1194.1094,1027.8594 1194.5938,1027.9375 Q1195.0938,1028 1195.5781,1028.125 Q1196.0625,1028.25 1196.5469,1028.4375 Q1197.0469,1028.625 1197.5625,1028.8594 L1196.5781,1031.2188 Q1196.1406,1031.0156 1195.7656,1030.8594 Q1195.3906,1030.7031 1195.0156,1030.5938 Q1194.6563,1030.4844 1194.3125,1030.4375 Q1193.9688,1030.375 1193.6094,1030.375 Q1192.8594,1030.375 1192.4531,1030.7813 Q1192.0469,1031.1875 1192.0469,1031.8594 Q1192.0469,1032.2188 1192.1563,1032.5 Q1192.2813,1032.7813 1192.5469,1033.0313 Q1192.8281,1033.2656 1193.25,1033.5313 Q1193.6719,1033.7813 1194.2813,1034.0938 Q1195.0156,1034.4844 1195.625,1034.8906 Q1196.25,1035.2969 1196.6875,1035.7969 Q1197.125,1036.2813 1197.375,1036.9063 Q1197.625,1037.5313 1197.625,1038.375 Z " fill="#000000"/><text fill="#000000" font-family="Calibri" font-size="20" font-style="italic" lengthAdjust="spacingAndGlyphs" textLength="104" x="1233" y="1041.9082">«Singleton»</text><text fill="#000000" font-family="Calibri" font-size="20" lengthAdjust="spacingAndGlyphs" textLength="148" x="1211" y="1065.1895">FileContentStore</text><rect fill="#FEFECE" filter="url(#fk60oeaa9s8q4)" height="37.2813" style="stroke:#A80036;stroke-width:1.5;" width="124" x="1442" y="194.6875"/><text fill="#000000" font-family="Calibri" font-size="20" lengthAdjust="spacingAndGlyphs" textLength="110" x="1449" y="220.252">VS Code API</text><rect fill="#FEFECE" filter="url(#fk60oeaa9s8q4)" height="37.2813" style="stroke:#A80036;stroke-width:1.5;" width="124" x="1442" y="1016.3438"/><text fill="#000000" font-family="Calibri" font-size="20" lengthAdjust="spacingAndGlyphs" textLength="110" x="1449" y="1041.9082">VS Code API</text><rect fill="#FFFFFF" filter="url(#fk60oeaa9s8q4)" height="676.1563" style="stroke:#333333;stroke-width:1.0;" width="10" x="207" y="332.1875"/><rect fill="#FFFFFF" filter="url(#fk60oeaa9s8q4)" height="9" style="stroke:#333333;stroke-width:1.0;" width="10" x="212" y="999.3438"/><rect fill="#FFFFFF" filter="url(#fk60oeaa9s8q4)" height="111.8438" style="stroke:#333333;stroke-width:1.0;" width="10" x="664" y="369.4688"/><rect fill="#FFFFFF" filter="url(#fk60oeaa9s8q4)" height="238.4063" style="stroke:#333333;stroke-width:1.0;" width="10" x="934" y="518.5938"/><rect fill="#FFFFFF" filter="url(#fk60oeaa9s8q4)" height="48.2813" style="stroke:#333333;stroke-width:1.0;" width="10" x="939" y="563.875"/><rect fill="#FFFFFF" filter="url(#fk60oeaa9s8q4)" height="48.2813" style="stroke:#333333;stroke-width:1.0;" width="10" x="939" y="664.4375"/><rect fill="#FFFFFF" filter="url(#fk60oeaa9s8q4)" height="111.8438" style="stroke:#333333;stroke-width:1.0;" width="10" x="1267" y="794.2813"/><rect fill="#FFFFFF" filter="url(#fk60oeaa9s8q4)" height="37.2813" style="stroke:#333333;stroke-width:1.0;" width="10" x="1501" y="406.75"/><rect fill="#FFFFFF" filter="url(#fk60oeaa9s8q4)" height="37.2813" style="stroke:#333333;stroke-width:1.0;" width="10" x="1501" y="831.5625"/><rect fill="#EEEEEE" filter="url(#fk60oeaa9s8q4)" height="3" style="stroke:#EEEEEE;stroke-width:1.0;" width="1579" x="0" y="273.9375"/><line style="stroke:#000000;stroke-width:1.0;" x1="0" x2="1579" y1="273.9375" y2="273.9375"/><line style="stroke:#000000;stroke-width:1.0;" x1="0" x2="1579" y1="276.9375" y2="276.9375"/><rect fill="#EEEEEE" filter="url(#fk60oeaa9s8q4)" height="35.9375" style="stroke:#000000;stroke-width:2.0;" width="177" x="701" y="256.9688"/><text fill="#000000" font-family="Calibri" font-size="24" font-weight="bold" lengthAdjust="spacingAndGlyphs" textLength="163" x="707" y="283.2461">ACTIVATION =</text><line style="stroke:#A80036;stroke-width:2.5;" x1="205" x2="195" y1="332.1875" y2="328.1875"/><line style="stroke:#A80036;stroke-width:2.5;" x1="205" x2="195" y1="332.1875" y2="336.1875"/><line style="stroke:#A80036;stroke-width:2.5;" x1="0" x2="206" y1="332.1875" y2="332.1875"/><text fill="#000000" font-family="Calibri" font-size="20" font-weight="bold" lengthAdjust="spacingAndGlyphs" textLength="11" x="7" y="325.4707">1</text><text fill="#000000" font-family="Calibri" font-size="20" lengthAdjust="spacingAndGlyphs" textLength="151" x="22" y="325.4707">&lt;:zap:&gt; activate()</text><polygon fill="#A80036" points="652,365.4688,662,369.4688,652,373.4688,656,369.4688" style="stroke:#A80036;stroke-width:1.0;"/><line style="stroke:#A80036;stroke-width:2.5;" x1="217" x2="658" y1="369.4688" y2="369.4688"/><text fill="#000000" font-family="Calibri" font-size="20" font-weight="bold" lengthAdjust="spacingAndGlyphs" textLength="11" x="224" y="362.752">2</text><text fill="#000000" font-family="Calibri" font-size="20" lengthAdjust="spacingAndGlyphs" textLength="413" x="239" y="362.752">initializeOutputChannel(channelName: string)</text><polygon fill="#A80036" points="1489,402.75,1499,406.75,1489,410.75,1493,406.75" style="stroke:#A80036;stroke-width:1.0;"/><line style="stroke:#A80036;stroke-width:2.5;" x1="674" x2="1495" y1="406.75" y2="406.75"/><text fill="#000000" font-family="Calibri" font-size="20" font-weight="bold" lengthAdjust="spacingAndGlyphs" textLength="11" x="681" y="400.0332">3</text><text fill="#000000" font-family="Calibri" font-size="20" lengthAdjust="spacingAndGlyphs" textLength="469" x="696" y="400.0332">window.createOutputChannel(channelName: string)</text><polygon fill="#A80036" points="685,440.0313,675,444.0313,685,448.0313,681,444.0313" style="stroke:#A80036;stroke-width:1.0;"/><line style="stroke:#A80036;stroke-width:2.5;stroke-dasharray:2.0,2.0;" x1="679" x2="1505" y1="444.0313" y2="444.0313"/><text fill="#000000" font-family="Calibri" font-size="20" font-weight="bold" lengthAdjust="spacingAndGlyphs" textLength="11" x="691" y="437.3145">4</text><text fill="#000000" font-family="Calibri" font-size="20" lengthAdjust="spacingAndGlyphs" textLength="0" x="711" y="437.3145"/><polygon fill="#A80036" points="228,477.3125,218,481.3125,228,485.3125,224,481.3125" style="stroke:#A80036;stroke-width:1.0;"/><line style="stroke:#A80036;stroke-width:2.5;stroke-dasharray:2.0,2.0;" x1="222" x2="668" y1="481.3125" y2="481.3125"/><text fill="#000000" font-family="Calibri" font-size="20" font-weight="bold" lengthAdjust="spacingAndGlyphs" textLength="11" x="234" y="474.5957">5</text><text fill="#000000" font-family="Calibri" font-size="20" lengthAdjust="spacingAndGlyphs" textLength="0" x="254" y="474.5957"/><polygon fill="#A80036" points="922,514.5938,932,518.5938,922,522.5938,926,518.5938" style="stroke:#A80036;stroke-width:1.0;"/><line style="stroke:#A80036;stroke-width:2.5;" x1="217" x2="928" y1="518.5938" y2="518.5938"/><text fill="#000000" font-family="Calibri" font-size="20" font-weight="bold" lengthAdjust="spacingAndGlyphs" textLength="11" x="224" y="511.877">6</text><text fill="#000000" font-family="Calibri" font-size="20" lengthAdjust="spacingAndGlyphs" textLength="551" x="239" y="511.877">initializeExtensionConfiguration(rootConfigurationKey: string)</text><line style="stroke:#A80036;stroke-width:2.5;" x1="944" x2="991" y1="550.875" y2="550.875"/><line style="stroke:#A80036;stroke-width:2.5;" x1="991" x2="991" y1="550.875" y2="563.875"/><line style="stroke:#A80036;stroke-width:2.5;" x1="950" x2="991" y1="563.875" y2="563.875"/><polygon fill="#A80036" points="960,559.875,950,563.875,960,567.875,956,563.875" style="stroke:#A80036;stroke-width:1.0;"/><text fill="#000000" font-family="Calibri" font-size="20" font-weight="bold" lengthAdjust="spacingAndGlyphs" textLength="11" x="956" y="544.1582">7</text><text fill="#000000" font-family="Calibri" font-size="20" lengthAdjust="spacingAndGlyphs" textLength="178" x="971" y="544.1582">mapConfiguration()</text><line style="stroke:#A80036;stroke-width:2.5;stroke-dasharray:2.0,2.0;" x1="949" x2="991" y1="611.1563" y2="611.1563"/><line style="stroke:#A80036;stroke-width:2.5;stroke-dasharray:2.0,2.0;" x1="991" x2="991" y1="611.1563" y2="624.1563"/><line style="stroke:#A80036;stroke-width:2.5;stroke-dasharray:2.0,2.0;" x1="944" x2="991" y1="624.1563" y2="624.1563"/><polygon fill="#A80036" points="954,620.1563,944,624.1563,954,628.1563,950,624.1563" style="stroke:#A80036;stroke-width:1.0;"/><text fill="#000000" font-family="Calibri" font-size="20" font-weight="bold" lengthAdjust="spacingAndGlyphs" textLength="11" x="956" y="604.4395">8</text><text fill="#000000" font-family="Calibri" font-size="20" lengthAdjust="spacingAndGlyphs" textLength="0" x="976" y="604.4395"/><line style="stroke:#A80036;stroke-width:2.5;" x1="944" x2="991" y1="651.4375" y2="651.4375"/><line style="stroke:#A80036;stroke-width:2.5;" x1="991" x2="991" y1="651.4375" y2="664.4375"/><line style="stroke:#A80036;stroke-width:2.5;" x1="950" x2="991" y1="664.4375" y2="664.4375"/><polygon fill="#A80036" points="960,660.4375,950,664.4375,960,668.4375,956,664.4375" style="stroke:#A80036;stroke-width:1.0;"/><text fill="#000000" font-family="Calibri" font-size="20" font-weight="bold" lengthAdjust="spacingAndGlyphs" textLength="11" x="956" y="644.7207">9</text><text fill="#000000" font-family="Calibri" font-size="20" lengthAdjust="spacingAndGlyphs" textLength="294" x="971" y="644.7207">initializeConfigurationWatchers()</text><line style="stroke:#A80036;stroke-width:2.5;stroke-dasharray:2.0,2.0;" x1="949" x2="991" y1="711.7188" y2="711.7188"/><line style="stroke:#A80036;stroke-width:2.5;stroke-dasharray:2.0,2.0;" x1="991" x2="991" y1="711.7188" y2="724.7188"/><line style="stroke:#A80036;stroke-width:2.5;stroke-dasharray:2.0,2.0;" x1="944" x2="991" y1="724.7188" y2="724.7188"/><polygon fill="#A80036" points="954,720.7188,944,724.7188,954,728.7188,950,724.7188" style="stroke:#A80036;stroke-width:1.0;"/><text fill="#000000" font-family="Calibri" font-size="20" font-weight="bold" lengthAdjust="spacingAndGlyphs" textLength="22" x="956" y="705.002">10</text><text fill="#000000" font-family="Calibri" font-size="20" lengthAdjust="spacingAndGlyphs" textLength="0" x="987" y="705.002"/><polygon fill="#A80036" points="228,753,218,757,228,761,224,757" style="stroke:#A80036;stroke-width:1.0;"/><line style="stroke:#A80036;stroke-width:2.5;stroke-dasharray:2.0,2.0;" x1="222" x2="938" y1="757" y2="757"/><text fill="#000000" font-family="Calibri" font-size="20" font-weight="bold" lengthAdjust="spacingAndGlyphs" textLength="22" x="234" y="750.2832">11</text><text fill="#000000" font-family="Calibri" font-size="20" lengthAdjust="spacingAndGlyphs" textLength="0" x="265" y="750.2832"/><polygon fill="#A80036" points="1255,790.2813,1265,794.2813,1255,798.2813,1259,794.2813" style="stroke:#A80036;stroke-width:1.0;"/><line style="stroke:#A80036;stroke-width:2.5;" x1="217" x2="1261" y1="794.2813" y2="794.2813"/><text fill="#000000" font-family="Calibri" font-size="20" font-weight="bold" lengthAdjust="spacingAndGlyphs" textLength="22" x="224" y="787.5645">12</text><text fill="#000000" font-family="Calibri" font-size="20" lengthAdjust="spacingAndGlyphs" textLength="234" x="250" y="787.5645">initializeFileContentStore()</text><polygon fill="#A80036" points="1489,827.5625,1499,831.5625,1489,835.5625,1493,831.5625" style="stroke:#A80036;stroke-width:1.0;"/><line style="stroke:#A80036;stroke-width:2.5;" x1="1277" x2="1495" y1="831.5625" y2="831.5625"/><text fill="#000000" font-family="Calibri" font-size="20" font-weight="bold" lengthAdjust="spacingAndGlyphs" textLength="22" x="1284" y="824.8457">13</text><text fill="#000000" font-family="Calibri" font-size="20" lengthAdjust="spacingAndGlyphs" textLength="175" x="1310" y="824.8457">workspace.findFiles</text><polygon fill="#A80036" points="1288,864.8438,1278,868.8438,1288,872.8438,1284,868.8438" style="stroke:#A80036;stroke-width:1.0;"/><line style="stroke:#A80036;stroke-width:2.5;stroke-dasharray:2.0,2.0;" x1="1282" x2="1505" y1="868.8438" y2="868.8438"/><text fill="#000000" font-family="Calibri" font-size="20" font-weight="bold" lengthAdjust="spacingAndGlyphs" textLength="22" x="1294" y="862.127">14</text><text fill="#000000" font-family="Calibri" font-size="20" lengthAdjust="spacingAndGlyphs" textLength="0" x="1325" y="862.127"/><polygon fill="#A80036" points="228,902.125,218,906.125,228,910.125,224,906.125" style="stroke:#A80036;stroke-width:1.0;"/><line style="stroke:#A80036;stroke-width:2.5;stroke-dasharray:2.0,2.0;" x1="222" x2="1271" y1="906.125" y2="906.125"/><text fill="#000000" font-family="Calibri" font-size="20" font-weight="bold" lengthAdjust="spacingAndGlyphs" textLength="22" x="234" y="899.4082">15</text><text fill="#000000" font-family="Calibri" font-size="20" lengthAdjust="spacingAndGlyphs" textLength="0" x="265" y="899.4082"/><rect fill="#EEEEEE" filter="url(#fk60oeaa9s8q4)" height="3" style="stroke:#EEEEEE;stroke-width:1.0;" width="1579" x="0" y="941.0938"/><line style="stroke:#000000;stroke-width:1.0;" x1="0" x2="1579" y1="941.0938" y2="941.0938"/><line style="stroke:#000000;stroke-width:1.0;" x1="0" x2="1579" y1="944.0938" y2="944.0938"/><rect fill="#EEEEEE" filter="url(#fk60oeaa9s8q4)" height="35.9375" style="stroke:#000000;stroke-width:2.0;" width="207" x="686" y="924.125"/><text fill="#000000" font-family="Calibri" font-size="24" font-weight="bold" lengthAdjust="spacingAndGlyphs" textLength="193" x="692" y="950.4023">DEACTIVATION =</text><line style="stroke:#A80036;stroke-width:2.5;" x1="205" x2="195" y1="999.3438" y2="995.3438"/><line style="stroke:#A80036;stroke-width:2.5;" x1="205" x2="195" y1="999.3438" y2="1003.3438"/><line style="stroke:#A80036;stroke-width:2.5;" x1="0" x2="206" y1="999.3438" y2="999.3438"/><text fill="#000000" font-family="Calibri" font-size="20" font-weight="bold" lengthAdjust="spacingAndGlyphs" textLength="22" x="7" y="992.627">16</text><text fill="#000000" font-family="Calibri" font-size="20" lengthAdjust="spacingAndGlyphs" textLength="162" x="33" y="992.627">&lt;:zap:&gt; dectivate()</text><rect fill="#FFFFFF" height="83.8438" rx="5" ry="5" style="stroke:#FFFFFF;stroke-width:1.0;" width="246" x="8" y="50.2813"/><rect fill="#F8F8FF" height="23.2813" style="stroke:none;stroke-width:1.0;" width="234" x="14" y="57.2813"/><text fill="#000000" font-family="Calibri" font-size="20" lengthAdjust="spacingAndGlyphs" textLength="0" x="54" y="75.8457"/><text fill="#000000" font-family="Calibri" font-size="20" font-weight="bold" lengthAdjust="spacingAndGlyphs" textLength="0" x="59" y="75.8457"/><text fill="#000000" font-family="Calibri" font-size="20" font-weight="bold" lengthAdjust="spacingAndGlyphs" text-decoration="underline" textLength="184" x="59" y="75.8457">ESB Message Types</text><text fill="#000000" font-family="Calibri" font-size="20" font-weight="bold" lengthAdjust="spacingAndGlyphs" textLength="0" x="248" y="75.8457"/><rect fill="#008000" height="23.2813" style="stroke:none;stroke-width:1.0;" width="40" x="14" y="80.5625"/><text fill="#000000" font-family="Calibri" font-size="20" lengthAdjust="spacingAndGlyphs" textLength="0" x="29" y="99.127"/><text fill="#000000" font-family="Calibri" font-size="20" lengthAdjust="spacingAndGlyphs" textLength="42" x="59" y="99.127">Sync</text><rect fill="#FFA500" height="23.2813" style="stroke:none;stroke-width:1.0;" width="40" x="14" y="103.8438"/><text fill="#000000" font-family="Calibri" font-size="20" lengthAdjust="spacingAndGlyphs" textLength="0" x="24" y="122.4082"/><text fill="#000000" font-family="Calibri" font-size="20" lengthAdjust="spacingAndGlyphs" textLength="53" x="59" y="122.4082">Async</text><line style="stroke:#F8F8FF;stroke-width:1.0;" x1="14" x2="248" y1="57.2813" y2="57.2813"/><line style="stroke:#F8F8FF;stroke-width:1.0;" x1="14" x2="248" y1="80.5625" y2="80.5625"/><line style="stroke:#F8F8FF;stroke-width:1.0;" x1="14" x2="248" y1="103.8438" y2="103.8438"/><line style="stroke:#F8F8FF;stroke-width:1.0;" x1="14" x2="248" y1="127.125" y2="127.125"/><line style="stroke:#F8F8FF;stroke-width:1.0;" x1="14" x2="14" y1="57.2813" y2="127.125"/><line style="stroke:#F8F8FF;stroke-width:1.0;" x1="54" x2="54" y1="57.2813" y2="127.125"/><line style="stroke:#F8F8FF;stroke-width:1.0;" x1="248" x2="248" y1="57.2813" y2="127.125"/><!--MD5=[34b833939b108e4284ea625cfabf25c9]
@startuml Extension Initialization Sequence

' !include style/sequence.style.iuml
' !theme cerulean-outline

skinparam defaultFontName Calibri
skinparam defaultFontSize 20
skinparam sequenceLifeLineBorderColor #333
skinparam legendBackgroundColor #FFFFFF
skinparam legendBorderColor #FFFFFF
skinparam legendEntrySeparator #FFFFFF
skinparam arrowThickness 2.5

!include style/sequence.settings.iuml
!include style/sequence.variables.iuml


legend top left
  <#GhostWhite,#GhostWhite>|        |= __ESB Message Types__ |
  |<$syncColor>   | Sync|
  |<$asyncColor>  | Async|
endlegend

title Extension Initialization Sequence

!define X "Extension"
!define OPCMNG "OutputChannelManager"
!define CNFMNG "ConfigurationManager"
!define FCS "FileContentStore"

!define VSCAPI "VS Code API"

box "Internal Logic" $internalServicesBoxColor
    participant X
    participant OPCMNG   << (S,#ADD1B2) Singleton >>
    participant CNFMNG   << (S,#ADD1B2) Singleton >>
    participant FCS      << (S,#ADD1B2) Singleton >>
end box

box "External Logic" $externalServicesBoxColor
    participant VSCAPI
end box

=== ACTIVATION ===
->>X: <:zap:> activate()
X->OPCMNG:initializeOutputChannel(channelName: string)
OPCMNG->VSCAPI:window.createOutputChannel(channelName: string)
return
return
X->CNFMNG:initializeExtensionConfiguration(rootConfigurationKey: string)
CNFMNG->CNFMNG:mapConfiguration()
return
CNFMNG->CNFMNG:initializeConfigurationWatchers()
return
return
X->FCS:initializeFileContentStore()
FCS->VSCAPI:workspace.findFiles
return
return
=== DEACTIVATION ===
->>X: <:zap:> dectivate()


@enduml

@startuml Extension Initialization Sequence


skinparam defaultFontName Calibri
skinparam defaultFontSize 20
skinparam sequenceLifeLineBorderColor #333
skinparam legendBackgroundColor #FFFFFF
skinparam legendBorderColor #FFFFFF
skinparam legendEntrySeparator #FFFFFF
skinparam arrowThickness 2.5

autoactivate on
autonumber



legend top left
  <#GhostWhite,#GhostWhite>|        |= __ESB Message Types__ |
  |<#green>   | Sync|
  |<#orange>  | Async|
endlegend

title Extension Initialization Sequence



box "Internal Logic" #Gainsboro
    participant "Extension"
    participant "OutputChannelManager"   << (S,#ADD1B2) Singleton >>
    participant "ConfigurationManager"   << (S,#ADD1B2) Singleton >>
    participant "FileContentStore"      << (S,#ADD1B2) Singleton >>
end box

box "External Logic" #Lavender
    participant "VS Code API"
end box

=== ACTIVATION ===
->>"Extension": <:zap:> activate()
"Extension"->"OutputChannelManager":initializeOutputChannel(channelName: string)
"OutputChannelManager"->"VS Code API":window.createOutputChannel(channelName: string)
return
return
"Extension"->"ConfigurationManager":initializeExtensionConfiguration(rootConfigurationKey: string)
"ConfigurationManager"->"ConfigurationManager":mapConfiguration()
return
"ConfigurationManager"->"ConfigurationManager":initializeConfigurationWatchers()
return
return
"Extension"->"FileContentStore":initializeFileContentStore()
"FileContentStore"->"VS Code API":workspace.findFiles
return
return
=== DEACTIVATION ===
->>"Extension": <:zap:> dectivate()


@enduml

PlantUML version 1.2020.23(Sun Dec 13 19:14:58 GMT 2020)
(GPL source distribution)
Java Runtime: OpenJDK Runtime Environment
JVM: OpenJDK 64-Bit Server VM
Default Encoding: UTF-8
Language: en
Country: US
--></g></svg>