<?xml version="1.0" encoding="UTF-8" standalone="no"?><svg xmlns="http://www.w3.org/2000/svg" xmlns:xlink="http://www.w3.org/1999/xlink" contentScriptType="application/ecmascript" contentStyleType="text/css" height="1414.5833px" preserveAspectRatio="none" style="width:1994px;height:1414px;background:#00000000;" version="1.1" viewBox="0 0 1994 1414" width="1994.7917px" zoomAndPan="magnify"><defs/><g><rect height="45.0846" rx="4.1667" ry="4.1667" style="stroke:#BABDBF;stroke-width:1.0416666666666667;fill:none;" width="334.375" x="826.0417" y="14.5833"/><text fill="#2FA4E7" font-family="Calibri" font-size="20.8333" lengthAdjust="spacingAndGlyphs" textLength="307.2917" x="839.5833" y="44.338">Extension Initialization Sequence</text><rect fill="#DCDCDC" height="1191.4388" rx="4.1667" ry="4.1667" style="stroke:#868E96;stroke-width:1.0416666666666667;" width="1490.1042" x="138.0208" y="217.8385"/><text fill="#343A40" font-family="Calibri" font-size="20.8333" font-weight="bold" lengthAdjust="spacingAndGlyphs" textLength="142.7083" x="811.7188" y="242.3848">Internal Logic</text><rect fill="#E6E6FA" height="1191.4388" rx="4.1667" ry="4.1667" style="stroke:#868E96;stroke-width:1.0416666666666667;" width="231.25" x="1713.5417" y="217.8385"/><text fill="#343A40" font-family="Calibri" font-size="20.8333" font-weight="bold" lengthAdjust="spacingAndGlyphs" textLength="143.75" x="1757.2917" y="242.3848">External Logic</text><rect height="870.9961" style="stroke:#333333;stroke-width:1.0416666666666667;fill:none;" width="10.4167" x="236.4583" y="451.237"/><rect height="9.375" style="stroke:#333333;stroke-width:1.0416666666666667;fill:none;" width="10.4167" x="241.6667" y="1312.8581"/><rect height="147.7539" style="stroke:#333333;stroke-width:1.0416666666666667;fill:none;" width="10.4167" x="733.3333" y="500.4883"/><rect height="300.4232" style="stroke:#333333;stroke-width:1.0416666666666667;fill:none;" width="10.4167" x="1104.1667" y="697.4935"/><rect height="60.7096" style="stroke:#333333;stroke-width:1.0416666666666667;fill:none;" width="10.4167" x="1109.375" y="755.0781"/><rect height="60.7096" style="stroke:#333333;stroke-width:1.0416666666666667;fill:none;" width="10.4167" x="1109.375" y="880.6641"/><rect height="147.7539" style="stroke:#333333;stroke-width:1.0416666666666667;fill:none;" width="10.4167" x="1471.875" y="1047.168"/><rect height="49.2513" style="stroke:#333333;stroke-width:1.0416666666666667;fill:none;" width="10.4167" x="1823.9583" y="549.7396"/><rect height="49.2513" style="stroke:#333333;stroke-width:1.0416666666666667;fill:none;" width="10.4167" x="1823.9583" y="1096.4193"/><line style="stroke:#333333;stroke-width:2.0833333333333335;fill:none;stroke-dasharray:5.0,5.0;" x1="241.1458" x2="241.1458" y1="331.2174" y2="1331.6081"/><line style="stroke:#333333;stroke-width:2.0833333333333335;fill:none;stroke-dasharray:5.0,5.0;" x1="738.5417" x2="738.5417" y1="331.2174" y2="1331.6081"/><line style="stroke:#333333;stroke-width:2.0833333333333335;fill:none;stroke-dasharray:5.0,5.0;" x1="1109.375" x2="1109.375" y1="331.2174" y2="1331.6081"/><line style="stroke:#333333;stroke-width:2.0833333333333335;fill:none;stroke-dasharray:5.0,5.0;" x1="1477.0833" x2="1477.0833" y1="331.2174" y2="1331.6081"/><line style="stroke:#333333;stroke-width:2.0833333333333335;fill:none;stroke-dasharray:5.0,5.0;" x1="1829.1667" x2="1829.1667" y1="331.2174" y2="1331.6081"/><rect height="49.2513" rx="4.1667" ry="4.1667" style="stroke:#2FA4E7;stroke-width:1.5625;fill:none;" width="115.625" x="183.8542" y="280.9245"/><text fill="#2FA4E7" font-family="Calibri" font-size="20.8333" lengthAdjust="spacingAndGlyphs" textLength="90.625" x="196.3542" y="312.7625">Extension</text><rect height="49.2513" rx="4.1667" ry="4.1667" style="stroke:#2FA4E7;stroke-width:1.5625;fill:none;" width="115.625" x="183.8542" y="1330.5664"/><text fill="#2FA4E7" font-family="Calibri" font-size="20.8333" lengthAdjust="spacingAndGlyphs" textLength="90.625" x="196.3542" y="1362.4044">Extension</text><rect height="73.5026" rx="4.1667" ry="4.1667" style="stroke:#2FA4E7;stroke-width:1.5625;fill:none;" width="285.4167" x="595.8333" y="256.6732"/><ellipse cx="615.625" cy="276.4648" fill="#ADD1B2" rx="12.5" ry="12.5" style="stroke:#2FA4E7;stroke-width:1.0416666666666667;"/><path d="M620.4427,279.6224 Q620.4427,280.6152 620.1009,281.429 Q619.7591,282.2266 619.0918,282.7962 Q618.4408,283.3496 617.4805,283.6589 Q616.5365,283.9681 615.3158,283.9681 Q614.2253,283.9681 613.2161,283.7402 Q612.2233,283.5124 611.377,283.0566 L611.377,280.127 Q611.8652,280.3711 612.3535,280.599 Q612.8581,280.8105 613.3626,280.9896 Q613.8835,281.1523 614.388,281.25 Q614.9089,281.3477 615.4297,281.3477 Q615.9342,281.3477 616.3086,281.2337 Q616.6829,281.1198 616.9108,280.9082 Q617.1387,280.6966 617.2363,280.4199 Q617.3503,280.127 617.3503,279.7852 Q617.3503,279.362 617.1712,279.0527 Q616.9922,278.7272 616.6667,278.4505 Q616.3574,278.1576 615.9017,277.8971 Q615.446,277.6367 614.8926,277.3438 Q614.4206,277.0996 613.8346,276.7578 Q613.265,276.3997 612.7441,275.8952 Q612.2396,275.3743 611.8815,274.6582 Q611.5397,273.9258 611.5397,272.9004 Q611.5397,271.9076 611.8652,271.1263 Q612.207,270.3288 612.8092,269.7917 Q613.4277,269.2383 614.2904,268.9616 Q615.1693,268.6686 616.2435,268.6686 Q616.7806,268.6686 617.2852,268.75 Q617.806,268.8151 618.3105,268.9453 Q618.8151,269.0755 619.3197,269.2708 Q619.8405,269.4661 620.3776,269.7103 L619.3522,272.168 Q618.8965,271.9564 618.5059,271.7936 Q618.1152,271.6309 617.7246,271.5169 Q617.3503,271.403 616.9922,271.3542 Q616.6341,271.2891 616.2598,271.2891 Q615.4785,271.2891 615.0553,271.7122 Q614.6322,272.1354 614.6322,272.8353 Q614.6322,273.2096 614.7461,273.5026 Q614.8763,273.7956 615.153,274.056 Q615.446,274.3001 615.8854,274.5768 Q616.3249,274.8372 616.9596,275.1628 Q617.7246,275.5697 618.3594,275.9928 Q619.0104,276.416 619.4661,276.9368 Q619.9219,277.4414 620.1823,278.0924 Q620.4427,278.7435 620.4427,279.6224 Z " fill="#2FA4E7"/><text fill="#2FA4E7" font-family="Calibri" font-size="20.8333" font-style="italic" lengthAdjust="spacingAndGlyphs" textLength="108.3333" x="700" y="288.5111">«Singleton»</text><text fill="#2FA4E7" font-family="Calibri" font-size="20.8333" lengthAdjust="spacingAndGlyphs" textLength="229.1667" x="639.5833" y="312.7625">OutputChannelManager</text><rect height="73.5026" rx="4.1667" ry="4.1667" style="stroke:#2FA4E7;stroke-width:1.5625;fill:none;" width="285.4167" x="595.8333" y="1330.5664"/><ellipse cx="615.625" cy="1350.3581" fill="#ADD1B2" rx="12.5" ry="12.5" style="stroke:#2FA4E7;stroke-width:1.0416666666666667;"/><path d="M620.4427,1353.5156 Q620.4427,1354.5085 620.1009,1355.3223 Q619.7591,1356.1198 619.0918,1356.6895 Q618.4408,1357.2428 617.4805,1357.5521 Q616.5365,1357.8613 615.3158,1357.8613 Q614.2253,1357.8613 613.2161,1357.6335 Q612.2233,1357.4056 611.377,1356.9499 L611.377,1354.0202 Q611.8652,1354.2643 612.3535,1354.4922 Q612.8581,1354.7038 613.3626,1354.8828 Q613.8835,1355.0456 614.388,1355.1432 Q614.9089,1355.2409 615.4297,1355.2409 Q615.9342,1355.2409 616.3086,1355.127 Q616.6829,1355.013 616.9108,1354.8014 Q617.1387,1354.5898 617.2363,1354.3132 Q617.3503,1354.0202 617.3503,1353.6784 Q617.3503,1353.2552 617.1712,1352.946 Q616.9922,1352.6204 616.6667,1352.3438 Q616.3574,1352.0508 615.9017,1351.7904 Q615.446,1351.5299 614.8926,1351.237 Q614.4206,1350.9928 613.8346,1350.651 Q613.265,1350.293 612.7441,1349.7884 Q612.2396,1349.2676 611.8815,1348.5514 Q611.5397,1347.819 611.5397,1346.7936 Q611.5397,1345.8008 611.8652,1345.0195 Q612.207,1344.222 612.8092,1343.6849 Q613.4277,1343.1315 614.2904,1342.8548 Q615.1693,1342.5618 616.2435,1342.5618 Q616.7806,1342.5618 617.2852,1342.6432 Q617.806,1342.7083 618.3105,1342.8385 Q618.8151,1342.9688 619.3197,1343.1641 Q619.8405,1343.3594 620.3776,1343.6035 L619.3522,1346.0612 Q618.8965,1345.8496 618.5059,1345.6868 Q618.1152,1345.5241 617.7246,1345.4102 Q617.3503,1345.2962 616.9922,1345.2474 Q616.6341,1345.1823 616.2598,1345.1823 Q615.4785,1345.1823 615.0553,1345.6055 Q614.6322,1346.0286 614.6322,1346.7285 Q614.6322,1347.1029 614.7461,1347.3958 Q614.8763,1347.6888 615.153,1347.9492 Q615.446,1348.1934 615.8854,1348.4701 Q616.3249,1348.7305 616.9596,1349.056 Q617.7246,1349.4629 618.3594,1349.8861 Q619.0104,1350.3092 619.4661,1350.8301 Q619.9219,1351.3346 620.1823,1351.9857 Q620.4427,1352.6367 620.4427,1353.5156 Z " fill="#2FA4E7"/><text fill="#2FA4E7" font-family="Calibri" font-size="20.8333" font-style="italic" lengthAdjust="spacingAndGlyphs" textLength="108.3333" x="700" y="1362.4044">«Singleton»</text><text fill="#2FA4E7" font-family="Calibri" font-size="20.8333" lengthAdjust="spacingAndGlyphs" textLength="229.1667" x="639.5833" y="1386.6557">OutputChannelManager</text><rect height="73.5026" rx="4.1667" ry="4.1667" style="stroke:#2FA4E7;stroke-width:1.5625;fill:none;" width="268.75" x="975" y="256.6732"/><ellipse cx="994.7917" cy="276.4648" fill="#ADD1B2" rx="12.5" ry="12.5" style="stroke:#2FA4E7;stroke-width:1.0416666666666667;"/><path d="M999.6094,279.6224 Q999.6094,280.6152 999.2676,281.429 Q998.9258,282.2266 998.2585,282.7962 Q997.6074,283.3496 996.6471,283.6589 Q995.7031,283.9681 994.4824,283.9681 Q993.3919,283.9681 992.3828,283.7402 Q991.39,283.5124 990.5436,283.0566 L990.5436,280.127 Q991.0319,280.3711 991.5202,280.599 Q992.0247,280.8105 992.5293,280.9896 Q993.0501,281.1523 993.5547,281.25 Q994.0755,281.3477 994.5964,281.3477 Q995.1009,281.3477 995.4753,281.2337 Q995.8496,281.1198 996.0775,280.9082 Q996.3053,280.6966 996.403,280.4199 Q996.5169,280.127 996.5169,279.7852 Q996.5169,279.362 996.3379,279.0527 Q996.1589,278.7272 995.8333,278.4505 Q995.5241,278.1576 995.0684,277.8971 Q994.6126,277.6367 994.0592,277.3438 Q993.5872,277.0996 993.0013,276.7578 Q992.4316,276.3997 991.9108,275.8952 Q991.4063,275.3743 991.0482,274.6582 Q990.7064,273.9258 990.7064,272.9004 Q990.7064,271.9076 991.0319,271.1263 Q991.3737,270.3288 991.9759,269.7917 Q992.5944,269.2383 993.457,268.9616 Q994.3359,268.6686 995.4102,268.6686 Q995.9473,268.6686 996.4518,268.75 Q996.9727,268.8151 997.4772,268.9453 Q997.9818,269.0755 998.4863,269.2708 Q999.0072,269.4661 999.5443,269.7103 L998.5189,272.168 Q998.0632,271.9564 997.6725,271.7936 Q997.2819,271.6309 996.8913,271.5169 Q996.5169,271.403 996.1589,271.3542 Q995.8008,271.2891 995.4264,271.2891 Q994.6452,271.2891 994.222,271.7122 Q993.7988,272.1354 993.7988,272.8353 Q993.7988,273.2096 993.9128,273.5026 Q994.043,273.7956 994.3197,274.056 Q994.6126,274.3001 995.0521,274.5768 Q995.4915,274.8372 996.1263,275.1628 Q996.8913,275.5697 997.526,275.9928 Q998.1771,276.416 998.6328,276.9368 Q999.0885,277.4414 999.349,278.0924 Q999.6094,278.7435 999.6094,279.6224 Z " fill="#2FA4E7"/><text fill="#2FA4E7" font-family="Calibri" font-size="20.8333" font-style="italic" lengthAdjust="spacingAndGlyphs" textLength="108.3333" x="1070.8333" y="288.5111">«Singleton»</text><text fill="#2FA4E7" font-family="Calibri" font-size="20.8333" lengthAdjust="spacingAndGlyphs" textLength="212.5" x="1018.75" y="312.7625">ConfigurationManager</text><rect height="73.5026" rx="4.1667" ry="4.1667" style="stroke:#2FA4E7;stroke-width:1.5625;fill:none;" width="268.75" x="975" y="1330.5664"/><ellipse cx="994.7917" cy="1350.3581" fill="#ADD1B2" rx="12.5" ry="12.5" style="stroke:#2FA4E7;stroke-width:1.0416666666666667;"/><path d="M999.6094,1353.5156 Q999.6094,1354.5085 999.2676,1355.3223 Q998.9258,1356.1198 998.2585,1356.6895 Q997.6074,1357.2428 996.6471,1357.5521 Q995.7031,1357.8613 994.4824,1357.8613 Q993.3919,1357.8613 992.3828,1357.6335 Q991.39,1357.4056 990.5436,1356.9499 L990.5436,1354.0202 Q991.0319,1354.2643 991.5202,1354.4922 Q992.0247,1354.7038 992.5293,1354.8828 Q993.0501,1355.0456 993.5547,1355.1432 Q994.0755,1355.2409 994.5964,1355.2409 Q995.1009,1355.2409 995.4753,1355.127 Q995.8496,1355.013 996.0775,1354.8014 Q996.3053,1354.5898 996.403,1354.3132 Q996.5169,1354.0202 996.5169,1353.6784 Q996.5169,1353.2552 996.3379,1352.946 Q996.1589,1352.6204 995.8333,1352.3438 Q995.5241,1352.0508 995.0684,1351.7904 Q994.6126,1351.5299 994.0592,1351.237 Q993.5872,1350.9928 993.0013,1350.651 Q992.4316,1350.293 991.9108,1349.7884 Q991.4063,1349.2676 991.0482,1348.5514 Q990.7064,1347.819 990.7064,1346.7936 Q990.7064,1345.8008 991.0319,1345.0195 Q991.3737,1344.222 991.9759,1343.6849 Q992.5944,1343.1315 993.457,1342.8548 Q994.3359,1342.5618 995.4102,1342.5618 Q995.9473,1342.5618 996.4518,1342.6432 Q996.9727,1342.7083 997.4772,1342.8385 Q997.9818,1342.9688 998.4863,1343.1641 Q999.0072,1343.3594 999.5443,1343.6035 L998.5189,1346.0612 Q998.0632,1345.8496 997.6725,1345.6868 Q997.2819,1345.5241 996.8913,1345.4102 Q996.5169,1345.2962 996.1589,1345.2474 Q995.8008,1345.1823 995.4264,1345.1823 Q994.6452,1345.1823 994.222,1345.6055 Q993.7988,1346.0286 993.7988,1346.7285 Q993.7988,1347.1029 993.9128,1347.3958 Q994.043,1347.6888 994.3197,1347.9492 Q994.6126,1348.1934 995.0521,1348.4701 Q995.4915,1348.7305 996.1263,1349.056 Q996.8913,1349.4629 997.526,1349.8861 Q998.1771,1350.3092 998.6328,1350.8301 Q999.0885,1351.3346 999.349,1351.9857 Q999.6094,1352.6367 999.6094,1353.5156 Z " fill="#2FA4E7"/><text fill="#2FA4E7" font-family="Calibri" font-size="20.8333" font-style="italic" lengthAdjust="spacingAndGlyphs" textLength="108.3333" x="1070.8333" y="1362.4044">«Singleton»</text><text fill="#2FA4E7" font-family="Calibri" font-size="20.8333" lengthAdjust="spacingAndGlyphs" textLength="212.5" x="1018.75" y="1386.6557">ConfigurationManager</text><rect height="73.5026" rx="4.1667" ry="4.1667" style="stroke:#2FA4E7;stroke-width:1.5625;fill:none;" width="210.4167" x="1371.875" y="256.6732"/><ellipse cx="1391.6667" cy="276.4648" fill="#ADD1B2" rx="12.5" ry="12.5" style="stroke:#2FA4E7;stroke-width:1.0416666666666667;"/><path d="M1396.4844,279.6224 Q1396.4844,280.6152 1396.1426,281.429 Q1395.8008,282.2266 1395.1335,282.7962 Q1394.4824,283.3496 1393.5221,283.6589 Q1392.5781,283.9681 1391.3574,283.9681 Q1390.2669,283.9681 1389.2578,283.7402 Q1388.265,283.5124 1387.4186,283.0566 L1387.4186,280.127 Q1387.9069,280.3711 1388.3952,280.599 Q1388.8997,280.8105 1389.4043,280.9896 Q1389.9251,281.1523 1390.4297,281.25 Q1390.9505,281.3477 1391.4714,281.3477 Q1391.9759,281.3477 1392.3503,281.2337 Q1392.7246,281.1198 1392.9525,280.9082 Q1393.1803,280.6966 1393.278,280.4199 Q1393.3919,280.127 1393.3919,279.7852 Q1393.3919,279.362 1393.2129,279.0527 Q1393.0339,278.7272 1392.7083,278.4505 Q1392.3991,278.1576 1391.9434,277.8971 Q1391.4876,277.6367 1390.9342,277.3438 Q1390.4622,277.0996 1389.8763,276.7578 Q1389.3066,276.3997 1388.7858,275.8952 Q1388.2813,275.3743 1387.9232,274.6582 Q1387.5814,273.9258 1387.5814,272.9004 Q1387.5814,271.9076 1387.9069,271.1263 Q1388.2487,270.3288 1388.8509,269.7917 Q1389.4694,269.2383 1390.332,268.9616 Q1391.2109,268.6686 1392.2852,268.6686 Q1392.8223,268.6686 1393.3268,268.75 Q1393.8477,268.8151 1394.3522,268.9453 Q1394.8568,269.0755 1395.3613,269.2708 Q1395.8822,269.4661 1396.4193,269.7103 L1395.3939,272.168 Q1394.9382,271.9564 1394.5475,271.7936 Q1394.1569,271.6309 1393.7663,271.5169 Q1393.3919,271.403 1393.0339,271.3542 Q1392.6758,271.2891 1392.3014,271.2891 Q1391.5202,271.2891 1391.097,271.7122 Q1390.6738,272.1354 1390.6738,272.8353 Q1390.6738,273.2096 1390.7878,273.5026 Q1390.918,273.7956 1391.1947,274.056 Q1391.4876,274.3001 1391.9271,274.5768 Q1392.3665,274.8372 1393.0013,275.1628 Q1393.7663,275.5697 1394.401,275.9928 Q1395.0521,276.416 1395.5078,276.9368 Q1395.9635,277.4414 1396.224,278.0924 Q1396.4844,278.7435 1396.4844,279.6224 Z " fill="#2FA4E7"/><text fill="#2FA4E7" font-family="Calibri" font-size="20.8333" font-style="italic" lengthAdjust="spacingAndGlyphs" textLength="108.3333" x="1438.5417" y="288.5111">«Singleton»</text><text fill="#2FA4E7" font-family="Calibri" font-size="20.8333" lengthAdjust="spacingAndGlyphs" textLength="154.1667" x="1415.625" y="312.7625">FileContentStore</text><rect height="73.5026" rx="4.1667" ry="4.1667" style="stroke:#2FA4E7;stroke-width:1.5625;fill:none;" width="210.4167" x="1371.875" y="1330.5664"/><ellipse cx="1391.6667" cy="1350.3581" fill="#ADD1B2" rx="12.5" ry="12.5" style="stroke:#2FA4E7;stroke-width:1.0416666666666667;"/><path d="M1396.4844,1353.5156 Q1396.4844,1354.5085 1396.1426,1355.3223 Q1395.8008,1356.1198 1395.1335,1356.6895 Q1394.4824,1357.2428 1393.5221,1357.5521 Q1392.5781,1357.8613 1391.3574,1357.8613 Q1390.2669,1357.8613 1389.2578,1357.6335 Q1388.265,1357.4056 1387.4186,1356.9499 L1387.4186,1354.0202 Q1387.9069,1354.2643 1388.3952,1354.4922 Q1388.8997,1354.7038 1389.4043,1354.8828 Q1389.9251,1355.0456 1390.4297,1355.1432 Q1390.9505,1355.2409 1391.4714,1355.2409 Q1391.9759,1355.2409 1392.3503,1355.127 Q1392.7246,1355.013 1392.9525,1354.8014 Q1393.1803,1354.5898 1393.278,1354.3132 Q1393.3919,1354.0202 1393.3919,1353.6784 Q1393.3919,1353.2552 1393.2129,1352.946 Q1393.0339,1352.6204 1392.7083,1352.3438 Q1392.3991,1352.0508 1391.9434,1351.7904 Q1391.4876,1351.5299 1390.9342,1351.237 Q1390.4622,1350.9928 1389.8763,1350.651 Q1389.3066,1350.293 1388.7858,1349.7884 Q1388.2813,1349.2676 1387.9232,1348.5514 Q1387.5814,1347.819 1387.5814,1346.7936 Q1387.5814,1345.8008 1387.9069,1345.0195 Q1388.2487,1344.222 1388.8509,1343.6849 Q1389.4694,1343.1315 1390.332,1342.8548 Q1391.2109,1342.5618 1392.2852,1342.5618 Q1392.8223,1342.5618 1393.3268,1342.6432 Q1393.8477,1342.7083 1394.3522,1342.8385 Q1394.8568,1342.9688 1395.3613,1343.1641 Q1395.8822,1343.3594 1396.4193,1343.6035 L1395.3939,1346.0612 Q1394.9382,1345.8496 1394.5475,1345.6868 Q1394.1569,1345.5241 1393.7663,1345.4102 Q1393.3919,1345.2962 1393.0339,1345.2474 Q1392.6758,1345.1823 1392.3014,1345.1823 Q1391.5202,1345.1823 1391.097,1345.6055 Q1390.6738,1346.0286 1390.6738,1346.7285 Q1390.6738,1347.1029 1390.7878,1347.3958 Q1390.918,1347.6888 1391.1947,1347.9492 Q1391.4876,1348.1934 1391.9271,1348.4701 Q1392.3665,1348.7305 1393.0013,1349.056 Q1393.7663,1349.4629 1394.401,1349.8861 Q1395.0521,1350.3092 1395.5078,1350.8301 Q1395.9635,1351.3346 1396.224,1351.9857 Q1396.4844,1352.6367 1396.4844,1353.5156 Z " fill="#2FA4E7"/><text fill="#2FA4E7" font-family="Calibri" font-size="20.8333" font-style="italic" lengthAdjust="spacingAndGlyphs" textLength="108.3333" x="1438.5417" y="1362.4044">«Singleton»</text><text fill="#2FA4E7" font-family="Calibri" font-size="20.8333" lengthAdjust="spacingAndGlyphs" textLength="154.1667" x="1415.625" y="1386.6557">FileContentStore</text><rect height="49.2513" rx="4.1667" ry="4.1667" style="stroke:#2FA4E7;stroke-width:1.5625;fill:none;" width="139.5833" x="1759.375" y="280.9245"/><text fill="#2FA4E7" font-family="Calibri" font-size="20.8333" lengthAdjust="spacingAndGlyphs" textLength="114.5833" x="1771.875" y="312.7625">VS Code API</text><rect height="49.2513" rx="4.1667" ry="4.1667" style="stroke:#2FA4E7;stroke-width:1.5625;fill:none;" width="139.5833" x="1759.375" y="1330.5664"/><text fill="#2FA4E7" font-family="Calibri" font-size="20.8333" lengthAdjust="spacingAndGlyphs" textLength="114.5833" x="1771.875" y="1362.4044">VS Code API</text><rect height="870.9961" style="stroke:#333333;stroke-width:1.0416666666666667;fill:none;" width="10.4167" x="236.4583" y="451.237"/><rect height="9.375" style="stroke:#333333;stroke-width:1.0416666666666667;fill:none;" width="10.4167" x="241.6667" y="1312.8581"/><rect height="147.7539" style="stroke:#333333;stroke-width:1.0416666666666667;fill:none;" width="10.4167" x="733.3333" y="500.4883"/><rect height="300.4232" style="stroke:#333333;stroke-width:1.0416666666666667;fill:none;" width="10.4167" x="1104.1667" y="697.4935"/><rect height="60.7096" style="stroke:#333333;stroke-width:1.0416666666666667;fill:none;" width="10.4167" x="1109.375" y="755.0781"/><rect height="60.7096" style="stroke:#333333;stroke-width:1.0416666666666667;fill:none;" width="10.4167" x="1109.375" y="880.6641"/><rect height="147.7539" style="stroke:#333333;stroke-width:1.0416666666666667;fill:none;" width="10.4167" x="1471.875" y="1047.168"/><rect height="49.2513" style="stroke:#333333;stroke-width:1.0416666666666667;fill:none;" width="10.4167" x="1823.9583" y="549.7396"/><rect height="49.2513" style="stroke:#333333;stroke-width:1.0416666666666667;fill:none;" width="10.4167" x="1823.9583" y="1096.4193"/><rect fill="#F8F9FA" height="3.125" style="stroke:#F8F9FA;stroke-width:1.0416666666666667;" width="1987.5" x="0" y="374.9349"/><line style="stroke:#868E96;stroke-width:1.0416666666666667;" x1="0" x2="1987.5" y1="374.9349" y2="374.9349"/><line style="stroke:#868E96;stroke-width:1.0416666666666667;" x1="0" x2="1987.5" y1="378.0599" y2="378.0599"/><rect fill="#F8F9FA" height="47.8516" style="stroke:#868E96;stroke-width:2.0833333333333335;" width="194.7917" x="896.3542" y="352.0508"/><text fill="#343A40" font-family="Calibri" font-size="25" font-weight="bold" lengthAdjust="spacingAndGlyphs" textLength="169.7917" x="907.8125" y="384.6313">ACTIVATION =</text><line style="stroke:#2FA4E7;stroke-width:2.604166666666667;" x1="234.375" x2="223.9583" y1="451.237" y2="447.0703"/><line style="stroke:#2FA4E7;stroke-width:2.604166666666667;" x1="234.375" x2="223.9583" y1="451.237" y2="455.4036"/><line style="stroke:#2FA4E7;stroke-width:2.604166666666667;" x1="0" x2="235.4167" y1="451.237" y2="451.237"/><text fill="#343A40" font-family="Calibri" font-size="20.8333" font-weight="bold" lengthAdjust="spacingAndGlyphs" textLength="11.4583" x="12.5" y="439.032">1</text><text fill="#343A40" font-family="Calibri" font-size="20.8333" lengthAdjust="spacingAndGlyphs" textLength="157.2917" x="38.5417" y="439.032">&lt;:zap:&gt; activate()</text><polygon fill="#2FA4E7" points="720.8333,496.3216,731.25,500.4883,720.8333,504.6549,725,500.4883" style="stroke:#2FA4E7;stroke-width:1.0416666666666667;"/><line style="stroke:#2FA4E7;stroke-width:2.604166666666667;" x1="246.875" x2="727.0833" y1="500.4883" y2="500.4883"/><text fill="#343A40" font-family="Calibri" font-size="20.8333" font-weight="bold" lengthAdjust="spacingAndGlyphs" textLength="11.4583" x="259.375" y="488.2833">2</text><text fill="#343A40" font-family="Calibri" font-size="20.8333" lengthAdjust="spacingAndGlyphs" textLength="430.2083" x="285.4167" y="488.2833">initializeOutputChannel(channelName: string)</text><polygon fill="#2FA4E7" points="1811.4583,545.5729,1821.875,549.7396,1811.4583,553.9063,1815.625,549.7396" style="stroke:#2FA4E7;stroke-width:1.0416666666666667;"/><line style="stroke:#2FA4E7;stroke-width:2.604166666666667;" x1="743.75" x2="1817.7083" y1="549.7396" y2="549.7396"/><text fill="#343A40" font-family="Calibri" font-size="20.8333" font-weight="bold" lengthAdjust="spacingAndGlyphs" textLength="11.4583" x="756.25" y="537.5346">3</text><text fill="#343A40" font-family="Calibri" font-size="20.8333" lengthAdjust="spacingAndGlyphs" textLength="488.5417" x="782.2917" y="537.5346">window.createOutputChannel(channelName: string)</text><polygon fill="#2FA4E7" points="755.2083,594.8242,744.7917,598.9909,755.2083,603.1576,751.0417,598.9909" style="stroke:#2FA4E7;stroke-width:1.0416666666666667;"/><line style="stroke:#2FA4E7;stroke-width:2.604166666666667;stroke-dasharray:2.0,2.0;" x1="748.9583" x2="1828.125" y1="598.9909" y2="598.9909"/><text fill="#343A40" font-family="Calibri" font-size="20.8333" font-weight="bold" lengthAdjust="spacingAndGlyphs" textLength="11.4583" x="766.6667" y="586.7859">4</text><text fill="#343A40" font-family="Calibri" font-size="20.8333" lengthAdjust="spacingAndGlyphs" textLength="0" x="797.9167" y="586.7859"/><polygon fill="#2FA4E7" points="258.3333,644.0755,247.9167,648.2422,258.3333,652.4089,254.1667,648.2422" style="stroke:#2FA4E7;stroke-width:1.0416666666666667;"/><line style="stroke:#2FA4E7;stroke-width:2.604166666666667;stroke-dasharray:2.0,2.0;" x1="252.0833" x2="737.5" y1="648.2422" y2="648.2422"/><text fill="#343A40" font-family="Calibri" font-size="20.8333" font-weight="bold" lengthAdjust="spacingAndGlyphs" textLength="11.4583" x="269.7917" y="636.0372">5</text><text fill="#343A40" font-family="Calibri" font-size="20.8333" lengthAdjust="spacingAndGlyphs" textLength="0" x="301.0417" y="636.0372"/><polygon fill="#2FA4E7" points="1091.6667,693.3268,1102.0833,697.4935,1091.6667,701.6602,1095.8333,697.4935" style="stroke:#2FA4E7;stroke-width:1.0416666666666667;"/><line style="stroke:#2FA4E7;stroke-width:2.604166666666667;" x1="246.875" x2="1097.9167" y1="697.4935" y2="697.4935"/><text fill="#343A40" font-family="Calibri" font-size="20.8333" font-weight="bold" lengthAdjust="spacingAndGlyphs" textLength="11.4583" x="259.375" y="685.2885">6</text><text fill="#343A40" font-family="Calibri" font-size="20.8333" lengthAdjust="spacingAndGlyphs" textLength="573.9583" x="285.4167" y="685.2885">initializeExtensionConfiguration(rootConfigurationKey: string)</text><line style="stroke:#2FA4E7;stroke-width:2.604166666666667;" x1="1114.5833" x2="1163.5417" y1="741.5365" y2="741.5365"/><line style="stroke:#2FA4E7;stroke-width:2.604166666666667;" x1="1163.5417" x2="1163.5417" y1="741.5365" y2="755.0781"/><line style="stroke:#2FA4E7;stroke-width:2.604166666666667;" x1="1120.8333" x2="1163.5417" y1="755.0781" y2="755.0781"/><polygon fill="#2FA4E7" points="1131.25,750.9115,1120.8333,755.0781,1131.25,759.2448,1127.0833,755.0781" style="stroke:#2FA4E7;stroke-width:1.0416666666666667;"/><text fill="#343A40" font-family="Calibri" font-size="20.8333" font-weight="bold" lengthAdjust="spacingAndGlyphs" textLength="11.4583" x="1132.2917" y="729.3315">7</text><text fill="#343A40" font-family="Calibri" font-size="20.8333" lengthAdjust="spacingAndGlyphs" textLength="185.4167" x="1158.3333" y="729.3315">mapConfiguration()</text><line style="stroke:#2FA4E7;stroke-width:2.604166666666667;stroke-dasharray:2.0,2.0;" x1="1119.7917" x2="1163.5417" y1="814.7461" y2="814.7461"/><line style="stroke:#2FA4E7;stroke-width:2.604166666666667;stroke-dasharray:2.0,2.0;" x1="1163.5417" x2="1163.5417" y1="814.7461" y2="828.2878"/><line style="stroke:#2FA4E7;stroke-width:2.604166666666667;stroke-dasharray:2.0,2.0;" x1="1114.5833" x2="1163.5417" y1="828.2878" y2="828.2878"/><polygon fill="#2FA4E7" points="1125,824.1211,1114.5833,828.2878,1125,832.4544,1120.8333,828.2878" style="stroke:#2FA4E7;stroke-width:1.0416666666666667;"/><text fill="#343A40" font-family="Calibri" font-size="20.8333" font-weight="bold" lengthAdjust="spacingAndGlyphs" textLength="11.4583" x="1132.2917" y="802.5411">8</text><text fill="#343A40" font-family="Calibri" font-size="20.8333" lengthAdjust="spacingAndGlyphs" textLength="0" x="1163.5417" y="802.5411"/><line style="stroke:#2FA4E7;stroke-width:2.604166666666667;" x1="1114.5833" x2="1163.5417" y1="867.1224" y2="867.1224"/><line style="stroke:#2FA4E7;stroke-width:2.604166666666667;" x1="1163.5417" x2="1163.5417" y1="867.1224" y2="880.6641"/><line style="stroke:#2FA4E7;stroke-width:2.604166666666667;" x1="1120.8333" x2="1163.5417" y1="880.6641" y2="880.6641"/><polygon fill="#2FA4E7" points="1131.25,876.4974,1120.8333,880.6641,1131.25,884.8307,1127.0833,880.6641" style="stroke:#2FA4E7;stroke-width:1.0416666666666667;"/><text fill="#343A40" font-family="Calibri" font-size="20.8333" font-weight="bold" lengthAdjust="spacingAndGlyphs" textLength="11.4583" x="1132.2917" y="854.9174">9</text><text fill="#343A40" font-family="Calibri" font-size="20.8333" lengthAdjust="spacingAndGlyphs" textLength="306.25" x="1158.3333" y="854.9174">initializeConfigurationWatchers()</text><line style="stroke:#2FA4E7;stroke-width:2.604166666666667;stroke-dasharray:2.0,2.0;" x1="1119.7917" x2="1163.5417" y1="940.332" y2="940.332"/><line style="stroke:#2FA4E7;stroke-width:2.604166666666667;stroke-dasharray:2.0,2.0;" x1="1163.5417" x2="1163.5417" y1="940.332" y2="953.8737"/><line style="stroke:#2FA4E7;stroke-width:2.604166666666667;stroke-dasharray:2.0,2.0;" x1="1114.5833" x2="1163.5417" y1="953.8737" y2="953.8737"/><polygon fill="#2FA4E7" points="1125,949.707,1114.5833,953.8737,1125,958.0404,1120.8333,953.8737" style="stroke:#2FA4E7;stroke-width:1.0416666666666667;"/><text fill="#343A40" font-family="Calibri" font-size="20.8333" font-weight="bold" lengthAdjust="spacingAndGlyphs" textLength="22.9167" x="1132.2917" y="928.127">10</text><text fill="#343A40" font-family="Calibri" font-size="20.8333" lengthAdjust="spacingAndGlyphs" textLength="0" x="1175" y="928.127"/><polygon fill="#2FA4E7" points="258.3333,993.75,247.9167,997.9167,258.3333,1002.0833,254.1667,997.9167" style="stroke:#2FA4E7;stroke-width:1.0416666666666667;"/><line style="stroke:#2FA4E7;stroke-width:2.604166666666667;stroke-dasharray:2.0,2.0;" x1="252.0833" x2="1108.3333" y1="997.9167" y2="997.9167"/><text fill="#343A40" font-family="Calibri" font-size="20.8333" font-weight="bold" lengthAdjust="spacingAndGlyphs" textLength="22.9167" x="269.7917" y="985.7117">11</text><text fill="#343A40" font-family="Calibri" font-size="20.8333" lengthAdjust="spacingAndGlyphs" textLength="0" x="312.5" y="985.7117"/><polygon fill="#2FA4E7" points="1459.375,1043.0013,1469.7917,1047.168,1459.375,1051.3346,1463.5417,1047.168" style="stroke:#2FA4E7;stroke-width:1.0416666666666667;"/><line style="stroke:#2FA4E7;stroke-width:2.604166666666667;" x1="246.875" x2="1465.625" y1="1047.168" y2="1047.168"/><text fill="#343A40" font-family="Calibri" font-size="20.8333" font-weight="bold" lengthAdjust="spacingAndGlyphs" textLength="22.9167" x="259.375" y="1034.963">12</text><text fill="#343A40" font-family="Calibri" font-size="20.8333" lengthAdjust="spacingAndGlyphs" textLength="243.75" x="296.875" y="1034.963">initializeFileContentStore()</text><polygon fill="#2FA4E7" points="1811.4583,1092.2526,1821.875,1096.4193,1811.4583,1100.5859,1815.625,1096.4193" style="stroke:#2FA4E7;stroke-width:1.0416666666666667;"/><line style="stroke:#2FA4E7;stroke-width:2.604166666666667;" x1="1482.2917" x2="1817.7083" y1="1096.4193" y2="1096.4193"/><text fill="#343A40" font-family="Calibri" font-size="20.8333" font-weight="bold" lengthAdjust="spacingAndGlyphs" textLength="22.9167" x="1494.7917" y="1084.2143">13</text><text fill="#343A40" font-family="Calibri" font-size="20.8333" lengthAdjust="spacingAndGlyphs" textLength="182.2917" x="1532.2917" y="1084.2143">workspace.findFiles</text><polygon fill="#2FA4E7" points="1493.75,1141.5039,1483.3333,1145.6706,1493.75,1149.8372,1489.5833,1145.6706" style="stroke:#2FA4E7;stroke-width:1.0416666666666667;"/><line style="stroke:#2FA4E7;stroke-width:2.604166666666667;stroke-dasharray:2.0,2.0;" x1="1487.5" x2="1828.125" y1="1145.6706" y2="1145.6706"/><text fill="#343A40" font-family="Calibri" font-size="20.8333" font-weight="bold" lengthAdjust="spacingAndGlyphs" textLength="22.9167" x="1505.2083" y="1133.4656">14</text><text fill="#343A40" font-family="Calibri" font-size="20.8333" lengthAdjust="spacingAndGlyphs" textLength="0" x="1547.9167" y="1133.4656"/><polygon fill="#2FA4E7" points="258.3333,1190.7552,247.9167,1194.9219,258.3333,1199.0885,254.1667,1194.9219" style="stroke:#2FA4E7;stroke-width:1.0416666666666667;"/><line style="stroke:#2FA4E7;stroke-width:2.604166666666667;stroke-dasharray:2.0,2.0;" x1="252.0833" x2="1476.0417" y1="1194.9219" y2="1194.9219"/><text fill="#343A40" font-family="Calibri" font-size="20.8333" font-weight="bold" lengthAdjust="spacingAndGlyphs" textLength="22.9167" x="269.7917" y="1182.7169">15</text><text fill="#343A40" font-family="Calibri" font-size="20.8333" lengthAdjust="spacingAndGlyphs" textLength="0" x="312.5" y="1182.7169"/><rect fill="#F8F9FA" height="3.125" style="stroke:#F8F9FA;stroke-width:1.0416666666666667;" width="1987.5" x="0" y="1236.556"/><line style="stroke:#868E96;stroke-width:1.0416666666666667;" x1="0" x2="1987.5" y1="1236.556" y2="1236.556"/><line style="stroke:#868E96;stroke-width:1.0416666666666667;" x1="0" x2="1987.5" y1="1239.681" y2="1239.681"/><rect fill="#F8F9FA" height="47.8516" style="stroke:#868E96;stroke-width:2.0833333333333335;" width="226.0417" x="880.7292" y="1213.6719"/><text fill="#343A40" font-family="Calibri" font-size="25" font-weight="bold" lengthAdjust="spacingAndGlyphs" textLength="201.0417" x="892.1875" y="1246.2524">DEACTIVATION =</text><line style="stroke:#2FA4E7;stroke-width:2.604166666666667;" x1="234.375" x2="223.9583" y1="1312.8581" y2="1308.6914"/><line style="stroke:#2FA4E7;stroke-width:2.604166666666667;" x1="234.375" x2="223.9583" y1="1312.8581" y2="1317.0247"/><line style="stroke:#2FA4E7;stroke-width:2.604166666666667;" x1="0" x2="235.4167" y1="1312.8581" y2="1312.8581"/><text fill="#343A40" font-family="Calibri" font-size="20.8333" font-weight="bold" lengthAdjust="spacingAndGlyphs" textLength="22.9167" x="12.5" y="1300.6531">16</text><text fill="#343A40" font-family="Calibri" font-size="20.8333" lengthAdjust="spacingAndGlyphs" textLength="168.75" x="50" y="1300.6531">&lt;:zap:&gt; dectivate()</text><rect fill="#FFFFFF" height="129.0039" rx="5.2083" ry="5.2083" style="stroke:#FFFFFF;stroke-width:1.0416666666666667;" width="287.5" x="8.3333" y="78.418"/><rect fill="#F8F8FF" height="34.668" style="stroke:none;stroke-width:1.0416666666666667;" width="264.5833" x="19.7917" y="90.918"/><text fill="#343A40" font-family="Calibri" font-size="20.8333" lengthAdjust="spacingAndGlyphs" textLength="0" x="66.6667" y="115.4643"/><text fill="#343A40" font-family="Calibri" font-size="20.8333" font-weight="bold" lengthAdjust="spacingAndGlyphs" textLength="0" x="82.2917" y="115.4643"/><text fill="#343A40" font-family="Calibri" font-size="20.8333" font-weight="bold" lengthAdjust="spacingAndGlyphs" text-decoration="underline" textLength="191.6667" x="82.2917" y="115.4643">ESB Message Types</text><text fill="#343A40" font-family="Calibri" font-size="20.8333" font-weight="bold" lengthAdjust="spacingAndGlyphs" textLength="0" x="279.1667" y="115.4643"/><rect fill="#008000" height="34.668" style="stroke:none;stroke-width:1.0416666666666667;" width="52.0833" x="19.7917" y="125.5859"/><text fill="#343A40" font-family="Calibri" font-size="20.8333" lengthAdjust="spacingAndGlyphs" textLength="0" x="40.625" y="150.1322"/><text fill="#343A40" font-family="Calibri" font-size="20.8333" lengthAdjust="spacingAndGlyphs" textLength="43.75" x="82.2917" y="150.1322">Sync</text><rect fill="#FFA500" height="34.668" style="stroke:none;stroke-width:1.0416666666666667;" width="52.0833" x="19.7917" y="160.2539"/><text fill="#343A40" font-family="Calibri" font-size="20.8333" lengthAdjust="spacingAndGlyphs" textLength="0" x="35.4167" y="184.8002"/><text fill="#343A40" font-family="Calibri" font-size="20.8333" lengthAdjust="spacingAndGlyphs" textLength="55.2083" x="82.2917" y="184.8002">Async</text><line style="stroke:#F8F8FF;stroke-width:1.0416666666666667;" x1="19.7917" x2="284.375" y1="90.918" y2="90.918"/><line style="stroke:#F8F8FF;stroke-width:1.0416666666666667;" x1="19.7917" x2="284.375" y1="125.5859" y2="125.5859"/><line style="stroke:#F8F8FF;stroke-width:1.0416666666666667;" x1="19.7917" x2="284.375" y1="160.2539" y2="160.2539"/><line style="stroke:#F8F8FF;stroke-width:1.0416666666666667;" x1="19.7917" x2="284.375" y1="194.9219" y2="194.9219"/><line style="stroke:#F8F8FF;stroke-width:1.0416666666666667;" x1="19.7917" x2="19.7917" y1="90.918" y2="194.9219"/><line style="stroke:#F8F8FF;stroke-width:1.0416666666666667;" x1="71.875" x2="71.875" y1="90.918" y2="194.9219"/><line style="stroke:#F8F8FF;stroke-width:1.0416666666666667;" x1="284.375" x2="284.375" y1="90.918" y2="194.9219"/><!--MD5=[cc252007b19a14c80ee9b05ae55ee89c]
@startuml Extension Initialization Sequence

!include style/sequence.style.iuml
!include style/sequence.settings.iuml
!include style/sequence.variables.iuml

legend top left
  <#GhostWhite,#GhostWhite>|        |= __ESB Message Types__ |
  |<$syncColor>   | Sync|
  |<$asyncColor>  | Async|
endlegend

title Extension Initialization Sequence

!define X "Extension"
!define OPCMNG "OutputChannelManager"
!define CNFMNG "ConfigurationManager"
!define FCS "FileContentStore"

!define VSCAPI "VS Code API"

box "Internal Logic" $internalServicesBoxColor
    participant X
    participant OPCMNG   << (S,#ADD1B2) Singleton >>
    participant CNFMNG   << (S,#ADD1B2) Singleton >>
    participant FCS      << (S,#ADD1B2) Singleton >>
end box

box "External Logic" $externalServicesBoxColor
    participant VSCAPI
end box

=== ACTIVATION ===
->>X: <:zap:> activate()
X->OPCMNG:initializeOutputChannel(channelName: string)
OPCMNG->VSCAPI:window.createOutputChannel(channelName: string)
return
return
X->CNFMNG:initializeExtensionConfiguration(rootConfigurationKey: string)
CNFMNG->CNFMNG:mapConfiguration()
return
CNFMNG->CNFMNG:initializeConfigurationWatchers()
return
return
X->FCS:initializeFileContentStore()
FCS->VSCAPI:workspace.findFiles
return
return
=== DEACTIVATION ===
->>X: <:zap:> dectivate()


@enduml

@startuml Extension Initialization Sequence





skinparam backgroundColor transparent
skinparam useBetaStyle false







skinparam defaultFontName       "Verdana"
skinparam defaultFontSize       12
skinparam dpi                   100
skinparam shadowing             false
skinparam roundcorner           8
skinparam ParticipantPadding    40
skinparam BoxPadding            40
skinparam Padding               5
skinparam ArrowColor            #868E96
skinparam stereotype {
    CBackgroundColor #EDF0F2
    CBorderColor #BABDBF
    ABackgroundColor #8FB961
    ABorderColor $SUCCESS_DARK
    IBackgroundColor #D2494E
    IBorderColor $DANGER_DARK
    EBackgroundColor #E47833
    EBorderColor $WARNING_DARK
    NBackgroundColor #35638F
    NBorderColor $INFO_DARK
}
skinparam title {
	FontColor	                 #2FA4E7
	BorderColor	                 #BABDBF
	FontSize	    	         20
	BorderRoundCorner            8
	BorderThickness 	         1
	BackgroundColor              transparent
}

skinparam legend {
	BackgroundColor transparent
	BorderColor #BABDBF
	FontColor #343A40
}

skinparam swimlane {
	BorderColor #033C73
	BorderThickness 2
	TitleBackgroundColor  #EDF0F2-#E9ECEF
	TitleFontColor #2FA4E7
}


skinparam activity {
		FontColor #2FA4E7
	BorderColor #2FA4E7
	BackgroundColor transparent
	BarColor #73A839
	StartColor #033C73
	EndColor #033C73
	DiamondBackgroundColor transparent
  	DiamondBorderColor #BABDBF
	DiamondFontColor #BABDBF
}


skinparam participant {
		FontColor #2FA4E7
	BorderColor #2FA4E7
	BackgroundColor transparent
	ParticipantBorderThickness 2
}


skinparam actor {
		FontColor #2FA4E7
	BorderColor #2FA4E7
	BackgroundColor transparent
}


skinparam arrow {
	Thickness 3
	Color #2FA4E7
	FontColor #343A40
}


skinparam sequence {
	BorderColor #2FA4E7
	TitleFontColor #2FA4E7
	BackgroundColor transparent
	StartColor #2FA4E7
	EndColor #2FA4E7
	BoxBackgroundColor transparent
	BoxBorderColor #868E96
	BoxFontColor #343A40
	DelayFontColor #343A40
	LifeLineBorderColor #BABDBF
	LifeLineBorderThickness 2
	LifeLineBackgroundColor transparent
	GroupBorderColor #868E96
	GroupFontColor #343A40
	GroupHeaderFontColor #033C73
	GroupBackgroundColor #E9ECEF
	GroupBodyBackgroundColor transparent
	GroupHeaderBackgroundColor transparent
	DividerBackgroundColor #F8F9FA
    DividerBorderColor #868E96
    DividerBorderThickness 2
    DividerFontColor #343A40
	ReferenceBackgroundColor transparent
	ReferenceBorderColor #868E96
	ReferenceFontColor #343A40
	ReferenceHeaderFontColor #033C73
	StereotypeFontColor #2FA4E7
}


skinparam partition {
	BorderColor #2FA4E7
	FontColor #2FA4E7
	BackgroundColor transparent
}


skinparam collections {
		FontColor #2FA4E7
	BorderColor #2FA4E7
	BackgroundColor transparent
}


skinparam control {
		FontColor #2FA4E7
	BorderColor #2FA4E7
	BackgroundColor transparent
}


skinparam entity {
		FontColor #2FA4E7
	BorderColor #2FA4E7
	BackgroundColor transparent
}


skinparam boundary {
		FontColor #2FA4E7
	BorderColor #2FA4E7
	BackgroundColor transparent
}


skinparam agent {
	BackgroundColor transparent
	BorderColor #999999
	FontColor #333333
}


skinparam note {
	BorderThickness 1
	BackgroundColor transparent
	BorderColor #033C73
	FontColor #033C73
}


skinparam artifact {
	BackgroundColor transparent
	BorderColor #868E96
	FontColor #868E96
}


skinparam component {
		FontColor #2FA4E7
	BorderColor #2FA4E7
	BackgroundColor transparent
}


skinparam interface {
	BackgroundColor  transparent
	BorderColor  #C71C22
	FontColor #343A40
}


skinparam storage {
	BackgroundColor transparent
  	BorderColor #DD5600
	FontColor #DD5600
}


skinparam node {
	BackgroundColor transparent
	BorderColor #343A40
	FontColor #343A40
}


skinparam cloud {
	BackgroundColor transparent
	BorderColor #F2FCFE
	FontColor #343A40
}


skinparam database {
		FontColor #2FA4E7
	BorderColor #2FA4E7
	BackgroundColor transparent
}


skinparam class {
		FontColor #2FA4E7
	BorderColor #2FA4E7
	BackgroundColor transparent
	FontColor #F8F9FA
	HeaderBackgroundColor #2FA4E7-#2683B9
	StereotypeFontColor #343A40
	BorderThickness 1
	AttributeFontColor #343A40
	AttributeFontSize 11
}


skinparam object {
		FontColor #2FA4E7
	BorderColor #2FA4E7
	BackgroundColor transparent
	StereotypeFontColor #343A40
	BorderThickness 1
	AttributeFontColor #BABDBF
	AttributeFontSize 11
}


skinparam usecase {
		FontColor #2FA4E7
	BorderColor #2FA4E7
	BackgroundColor transparent
	BorderThickness 2
	StereotypeFontColor #2FA4E7
}


skinparam rectangle {
		FontColor #2FA4E7
	BorderColor #2FA4E7
	BackgroundColor transparent
	BorderThickness 2
	StereotypeFontColor #2FA4E7
}


skinparam package {
	BackgroundColor transparent
  	BorderColor #2FA4E7
	FontColor #2FA4E7
	BorderThickness 2
}


skinparam folder {
	BackgroundColor transparent
  	BorderColor #DD5600
	FontColor #DD5600
	BorderThickness 2
}


skinparam frame {
	BackgroundColor transparent
  	BorderColor #033C73
	FontColor #033C73
	BorderThickness 2
}


skinparam state {
		FontColor #2FA4E7
	BorderColor #2FA4E7
	BackgroundColor transparent
	StartColor #033C73
	EndColor #033C73
	AttributeFontColor #BABDBF
	AttributeFontSize 11
}


skinparam queue {
		FontColor #2FA4E7
	BorderColor #2FA4E7
	BackgroundColor transparent
}


skinparam card {
	BackgroundColor transparent
	BorderColor #033C73
	FontColor #033C73
}


skinparam file {
	BackgroundColor transparent
	BorderColor #868E96
	FontColor #868E96
}


skinparam stack {
		FontColor #2FA4E7
	BorderColor #2FA4E7
	BackgroundColor transparent
}




skinparam defaultFontName Calibri
skinparam defaultFontSize 20
skinparam sequenceLifeLineBorderColor #333
skinparam legendBackgroundColor #FFFFFF
skinparam legendBorderColor #FFFFFF
skinparam legendEntrySeparator #FFFFFF
skinparam arrowThickness 2.5
autoactivate on
autonumber


legend top left
  <#GhostWhite,#GhostWhite>|        |= __ESB Message Types__ |
  |<#green>   | Sync|
  |<#orange>  | Async|
endlegend

title Extension Initialization Sequence



box "Internal Logic" #Gainsboro
    participant "Extension"
    participant "OutputChannelManager"   << (S,#ADD1B2) Singleton >>
    participant "ConfigurationManager"   << (S,#ADD1B2) Singleton >>
    participant "FileContentStore"      << (S,#ADD1B2) Singleton >>
end box

box "External Logic" #Lavender
    participant "VS Code API"
end box

=== ACTIVATION ===
->>"Extension": <:zap:> activate()
"Extension"->"OutputChannelManager":initializeOutputChannel(channelName: string)
"OutputChannelManager"->"VS Code API":window.createOutputChannel(channelName: string)
return
return
"Extension"->"ConfigurationManager":initializeExtensionConfiguration(rootConfigurationKey: string)
"ConfigurationManager"->"ConfigurationManager":mapConfiguration()
return
"ConfigurationManager"->"ConfigurationManager":initializeConfigurationWatchers()
return
return
"Extension"->"FileContentStore":initializeFileContentStore()
"FileContentStore"->"VS Code API":workspace.findFiles
return
return
=== DEACTIVATION ===
->>"Extension": <:zap:> dectivate()


@enduml

PlantUML version 1.2020.23(Sun Dec 13 19:14:58 GMT 2020)
(GPL source distribution)
Java Runtime: OpenJDK Runtime Environment
JVM: OpenJDK 64-Bit Server VM
Default Encoding: UTF-8
Language: en
Country: US
--></g></svg>