<?xml version="1.0" encoding="UTF-8" standalone="no"?><svg xmlns="http://www.w3.org/2000/svg" xmlns:xlink="http://www.w3.org/1999/xlink" contentScriptType="application/ecmascript" contentStyleType="text/css" height="69px" preserveAspectRatio="none" style="width:228px;height:69px;" version="1.1" viewBox="0 0 228 69" width="228px" zoomAndPan="magnify"><defs><filter height="300%" id="f39ni44uaxwno" width="300%" x="-1" y="-1"><feGaussianBlur result="blurOut" stdDeviation="2.0"/><feColorMatrix in="blurOut" result="blurOut2" type="matrix" values="0 0 0 0 0 0 0 0 0 0 0 0 0 0 0 0 0 0 .4 0"/><feOffset dx="4.0" dy="4.0" in="blurOut2" result="blurOut3"/><feBlend in="SourceGraphic" in2="blurOut3" mode="normal"/></filter></defs><g><!--MD5=[9f57ac87861df6213de8b6562fe37a6e]
class Bob--><rect fill="#FEFECE" filter="url(#f39ni44uaxwno)" height="48" id="Bob" style="stroke:#A80036;stroke-width:1.5;" width="53" x="7" y="7"/><ellipse cx="22" cy="23" fill="#ADD1B2" rx="11" ry="11" style="stroke:#A80036;stroke-width:1.0;"/><path d="M21.9375,18.8281 Q21.1875,18.8281 20.625,19.125 Q20.0625,19.4063 19.6719,19.9375 Q19.2813,20.4688 19.0781,21.25 Q18.8906,22.0156 18.8906,22.9688 Q18.8906,23.9375 19.0625,24.7031 Q19.25,25.4531 19.6094,25.9688 Q19.9844,26.4844 20.5625,26.7656 Q21.1406,27.0313 21.9375,27.0313 Q22.6719,27.0313 23.4063,26.8594 Q24.1563,26.6875 25.0313,26.3906 L25.0313,28.5469 Q24.625,28.7031 24.2344,28.8281 Q23.8438,28.9375 23.4375,29.0156 Q23.0313,29.0938 22.6094,29.125 Q22.1875,29.1719 21.6875,29.1719 Q20.2813,29.1719 19.25,28.7188 Q18.2344,28.2656 17.5625,27.4531 Q16.8906,26.6406 16.5625,25.5 Q16.2344,24.3438 16.2344,22.9531 Q16.2344,21.5781 16.6094,20.4219 Q16.9844,19.2656 17.7031,18.4375 Q18.4219,17.6094 19.4844,17.1563 Q20.5469,16.6875 21.9375,16.6875 Q22.8438,16.6875 23.75,16.9219 Q24.6563,17.1406 25.4844,17.5469 L24.6563,19.6406 Q23.9688,19.3125 23.2813,19.0781 Q22.5938,18.8281 21.9375,18.8281 Z " fill="#000000"/><text fill="#000000" font-family="sans-serif" font-size="12" lengthAdjust="spacingAndGlyphs" textLength="21" x="36" y="27.1543">Bob</text><line style="stroke:#A80036;stroke-width:1.5;" x1="8" x2="59" y1="39" y2="39"/><line style="stroke:#A80036;stroke-width:1.5;" x1="8" x2="59" y1="47" y2="47"/><!--MD5=[1d11bff648c05e5c086236afcf5827b8]
class Alice--><rect fill="#FEFECE" filter="url(#f39ni44uaxwno)" height="48" id="Alice" style="stroke:#A80036;stroke-width:1.5;" width="58" x="156.5" y="7"/><ellipse cx="171.5" cy="23" fill="#ADD1B2" rx="11" ry="11" style="stroke:#A80036;stroke-width:1.0;"/><path d="M171.4375,18.8281 Q170.6875,18.8281 170.125,19.125 Q169.5625,19.4063 169.1719,19.9375 Q168.7813,20.4688 168.5781,21.25 Q168.3906,22.0156 168.3906,22.9688 Q168.3906,23.9375 168.5625,24.7031 Q168.75,25.4531 169.1094,25.9688 Q169.4844,26.4844 170.0625,26.7656 Q170.6406,27.0313 171.4375,27.0313 Q172.1719,27.0313 172.9063,26.8594 Q173.6563,26.6875 174.5313,26.3906 L174.5313,28.5469 Q174.125,28.7031 173.7344,28.8281 Q173.3438,28.9375 172.9375,29.0156 Q172.5313,29.0938 172.1094,29.125 Q171.6875,29.1719 171.1875,29.1719 Q169.7813,29.1719 168.75,28.7188 Q167.7344,28.2656 167.0625,27.4531 Q166.3906,26.6406 166.0625,25.5 Q165.7344,24.3438 165.7344,22.9531 Q165.7344,21.5781 166.1094,20.4219 Q166.4844,19.2656 167.2031,18.4375 Q167.9219,17.6094 168.9844,17.1563 Q170.0469,16.6875 171.4375,16.6875 Q172.3438,16.6875 173.25,16.9219 Q174.1563,17.1406 174.9844,17.5469 L174.1563,19.6406 Q173.4688,19.3125 172.7813,19.0781 Q172.0938,18.8281 171.4375,18.8281 Z " fill="#000000"/><text fill="#000000" font-family="sans-serif" font-size="12" lengthAdjust="spacingAndGlyphs" textLength="26" x="185.5" y="27.1543">Alice</text><line style="stroke:#A80036;stroke-width:1.5;" x1="157.5" x2="213.5" y1="39" y2="39"/><line style="stroke:#A80036;stroke-width:1.5;" x1="157.5" x2="213.5" y1="47" y2="47"/><!--MD5=[838606ef52345285279842dbe5b94377]
link Bob to Alice--><path codeLine="1" d="M60.32,31 C87.26,31 128.63,31 156.35,31 " fill="none" id="Bob-Alice" style="stroke:#A80036;stroke-width:1.0;"/><text fill="#000000" font-family="sans-serif" font-size="13" lengthAdjust="spacingAndGlyphs" textLength="60" x="78.25" y="24.0669">hello - bye</text><!--MD5=[b9859a59b4ea2eeb838b04c50c1bb25a]
@startuml
Bob-Alice : hello - bye
@enduml

PlantUML version 1.2020.23(Sun Dec 13 19:14:58 GMT 2020)
(GPL source distribution)
Java Runtime: OpenJDK Runtime Environment
JVM: OpenJDK 64-Bit Server VM
Default Encoding: UTF-8
Language: en
Country: US
--></g></svg>